<?xml version="1.0" encoding="UTF-8"?>
<!DOCTYPE svg PUBLIC "-//W3C//DTD SVG 1.1//EN" "http://www.w3.org/Graphics/SVG/1.1/DTD/svg11.dtd">
<!-- Creator: CorelDRAW -->
<svg xmlns="http://www.w3.org/2000/svg" xml:space="preserve" width="121.073mm" height="6.9426mm" version="1.1" style="shape-rendering:geometricPrecision; text-rendering:geometricPrecision; image-rendering:optimizeQuality; fill-rule:evenodd; clip-rule:evenodd"
viewBox="0 0 12107.32 694.26"
 xmlns:xlink="http://www.w3.org/1999/xlink"
 xmlns:xodm="http://www.corel.com/coreldraw/odm/2003">
 <defs>
  <style type="text/css">
   <![CDATA[
    .fil0 {fill:white;fill-rule:nonzero}
   ]]>
  </style>
 </defs>
 <g id="Capa_x0020_1">
  <metadata id="CorelCorpID_0Corel-Layer"/>
  <path class="fil0" d="M544.48 72.85c3.82,24.76 5.82,50.36 5.82,76.47 0,5.15 -0.17,12.14 -0.5,20.79 -4.49,1 -7.98,1.49 -10.15,1.49 -1.99,0 -4.82,-0.33 -8.3,-1 -13.64,-37.74 -35.92,-66.84 -66.84,-87.11 -30.75,-20.46 -69,-30.6 -114.55,-30.6 -23.94,0 -44.23,2.83 -60.85,8.32 -29.27,9.98 -54.87,23.94 -76.98,41.56 -22.11,17.63 -40.74,38.74 -56.03,63.18 -15.29,24.43 -27.43,54.19 -36.24,89.12 -8.98,34.74 -13.47,70.32 -13.47,106.73 0,69.32 10.64,126.69 31.76,171.91 21.11,45.22 50.03,77.48 86.62,96.76 36.73,19.29 73.81,28.93 111.22,28.93l22.77 -0.5c26.11,-3.15 43.74,-6.32 53.21,-9.32 23.78,-6.64 43.23,-14.78 58.69,-23.94 15.47,-9.31 30.59,-22.27 45.39,-39.23 14.8,-16.79 27.27,-36.41 37.74,-58.69l5.99 -1.99c1.66,0 4.15,0.99 7.48,2.99 -0.33,7.65 -0.67,12.63 -1,14.97 -13.8,54.85 -23.78,92.26 -30.1,112.38 -5.14,1.17 -11.64,3.16 -19.45,5.83 -38.07,12.96 -88.77,19.45 -152.46,19.45 -51.37,0 -89.77,-3.5 -115.21,-10.48 -25.44,-6.98 -53.2,-17.79 -83.3,-32.59 -30.09,-14.63 -56.35,-34.25 -79.14,-58.52 -22.77,-24.27 -41.06,-55.03 -55.02,-92.11 -13.98,-37.08 -20.95,-77.48 -20.95,-121.36 0,-41.4 5.48,-77.65 16.62,-108.57 10.97,-30.92 28.1,-62.34 51.04,-94.11 23.11,-31.75 50.21,-58.17 81.64,-79.12 31.25,-21.13 66.17,-36.09 104.4,-44.73 26.93,-5.82 65.18,-8.81 114.56,-8.81 36.07,0 69.99,4.65 101.75,14.13 31.75,9.48 53.03,18.79 63.84,27.77zm10864.61 574.58c4.49,-2.65 8.47,-3.99 12.14,-3.99l11.13 0c2.33,0 6.15,-0.16 11.81,-0.5 24.94,-2.32 39.74,-4.49 44.23,-6.81 11.29,-6.15 21.11,-16.79 29.25,-32.1 16.79,-33.08 35.75,-80.12 56.69,-140.81 10.15,-28.76 16.46,-46.39 18.96,-52.54 8.14,-19.45 15.97,-39.9 23.27,-61.35l45.73 -128.02c7.15,-20.11 24.27,-66.17 51.37,-138.32 6.82,-18.12 15.12,-42.57 24.77,-72.99l15.3 -1 16.95 0.51c13.97,27.59 26.44,57.52 37.08,89.45 5.82,16.95 15.47,42.22 28.76,75.64l73.99 201.01 39.56 108.89c20.79,61.85 34.42,99.92 40.91,114.06 6.48,14.29 12.47,23.59 17.96,28.08 1.66,1.34 7.64,3.34 18.28,5.99 10.48,2.5 17.96,4.49 22.12,5.82 14.96,4.16 25.27,7.48 31.09,10.31 1.32,3.5 1.99,6.15 1.99,8.15 0,1.5 -0.49,3.82 -1.5,6.98 -10.31,0.34 -17.62,0.5 -21.95,0.5 -16.46,0 -45.71,-0.34 -87.44,-1l-48.72 -0.83 -58.85 0.5c-4,0 -7.99,0 -11.97,-0.33 -4.16,-0.17 -7.65,-0.34 -10.48,-0.34l-10.63 0c-3.67,-0.33 -6.83,-1.33 -9.82,-2.99 0,-4.66 0.84,-9.15 2.33,-13.47 3.82,-1.99 7.49,-3.16 10.64,-3.49l50.21 -3.48c12.97,-0.68 22.95,-2.34 29.76,-5.33 2,-5.98 2.99,-10.31 2.99,-13.3 0,-5.82 -4.32,-21.11 -12.8,-45.72 -5.82,-16.29 -10.81,-31.92 -15.3,-46.72 -4.31,-14.62 -21.61,-63.18 -51.7,-145.31 -13.3,-2.32 -24.94,-3.49 -35.09,-3.49l-103.74 1.01 -30.58 -0.51c-10.98,0 -23.12,0.84 -36.42,2.5 -4.32,9.8 -6.98,16.79 -8.31,20.94l-42.57 134.67c-18.12,51.37 -27.26,79.47 -27.26,84.8 0,2.99 1.5,7.81 4.33,14.62 6.81,2 15.96,3.83 27.26,5.49l66.34 5.82c3.49,2.99 5.32,5.65 5.32,7.97 0,1.67 -0.5,4.16 -1.5,7.49 -14.63,0.34 -25.77,0.5 -33.58,0.5 -25.94,0 -56.2,-1.33 -90.61,-3.99 -15.97,-0.66 -27.27,-1 -34.09,-1 -6.81,0 -18.61,0.34 -35.58,1 -10.97,0.66 -18.95,1 -23.76,1 -7.83,0 -17.96,-0.51 -30.27,-1.5l0 -2.99c0,-2.33 0.67,-5.49 2,-9.48zm231.93 -292.11c34.58,1.82 74.14,2.83 118.37,2.83 25.27,0 47.39,-0.84 66.5,-2.34 -3.16,-12.63 -6.98,-24.27 -11.13,-35.07 -21.12,-55.69 -32.76,-86.46 -35.09,-92.28l-44.22 -110.89 -4.82 -8.65c-2,3.83 -9.14,20.29 -21.45,49.38 -20.61,50.05 -35.41,88.95 -44.39,116.71 -4.32,12.48 -8.64,24.95 -13.13,37.25 -4.49,12.3 -7.32,20.94 -8.49,25.94 -1.16,4.98 -2.82,9.97 -5.14,15.13l2.99 1.99zm-983.08 -289.46l-0.5 -22.94c50.21,0 86.95,-1.17 110.39,-3.65 8.98,-0.84 15.3,-1.33 18.96,-1.33 2.83,0 7.32,0.33 13.14,0.99 13.47,11.31 26.1,24.44 37.74,39.08 2.66,2.81 5.65,6.15 8.81,9.64l102.41 113.55 14.63 17.62c20.62,24.28 39.56,45.22 56.53,62.34 16.95,17.3 50.04,53.21 99.25,107.74l116.05 129.19c11.3,12.63 25.77,28.43 43.56,47.38l0.5 -7.82c-1.99,-45.38 -3,-69.33 -3,-71.82l2.01 -29.26 -1 -46.05 0 -20.95c0,-13.3 -1.01,-54.54 -2.83,-123.54 -0.33,-9.47 -1.33,-27.26 -3.32,-53.52 -1.83,-26.11 -2.83,-49.21 -2.83,-69.01 0,-35.91 -2.17,-56.69 -6.48,-62.5 -2.99,-4.32 -16.97,-8.65 -42.24,-13.14 -5.82,-0.33 -15.13,-1.33 -27.76,-2.99 -14.8,-0.67 -23.61,-1.5 -26.27,-2.33 -2.67,-0.99 -5.32,-3.82 -7.98,-8.31 0.66,-5.16 2.16,-9.98 4.49,-14.47 8.81,-2.49 17.46,-3.83 25.93,-3.83 9.31,0 20.62,1.17 34.25,3.5 13.63,2.32 25.93,3.49 36.75,3.49 14.96,0 38.4,-0.82 70.33,-2.32 17.95,-1.17 30.42,-1.67 37.4,-1.67l8.31 0 -0.99 14.96c-5.16,2.33 -12.48,3.66 -21.62,4.16 -8.98,0.51 -17.62,1.83 -25.44,4.16 -11.64,3.49 -18.78,6.64 -20.94,9.14 -7.82,8.48 -11.81,17.13 -11.81,25.93l5.49 153.96 3.99 70.66 -0.5 20.45 2.99 97.93c2,66.84 2.99,125.02 2.99,174.39 0,10.82 -0.66,33.92 -1.99,69.67l-25.6 1.99c-11.31,-12.96 -50.38,-54.03 -116.88,-123.03 -15.63,-15.96 -26.11,-27.09 -31.6,-33.57l-41.72 -48.39c-16.13,-17.96 -26.6,-29.26 -31.6,-34.25 -4.81,-4.82 -8.3,-8.47 -10.63,-10.64 -35.24,-40.4 -80.97,-90.77 -137.16,-151.46 -15.3,-16.13 -37.57,-41.56 -67,-76.14 -18.45,-21.78 -30.09,-35.08 -34.92,-39.91 -4.82,-4.98 -11.47,-10.47 -19.95,-16.62l-1.33 16.62c0,63.35 1.49,150.8 4.65,262.36l3.5 161.6c0.17,13.63 0.99,26.77 2.32,39.4l17.13 3.99c30.75,2.83 61.02,7.32 90.95,13.14 2.32,1.99 4.14,3.32 5.81,4.32l-0.5 18.29c-5.15,1.5 -9.31,2.32 -12.63,2.32 -3.5,0 -7.82,-0.33 -12.97,-0.82 -31.92,-2.17 -70.82,-3.16 -116.71,-3.16 -32.26,0 -60.69,0.82 -85.29,2.48l-6.66 0.51c-2.99,0 -7.14,-0.34 -12.63,-1l-0.49 -14.3 12.63 -5.65 22.94 -3.5c20.45,-2.82 35.25,-6.15 44.72,-9.63 6.15,-2.34 11.15,-5.82 15.13,-10.31 3.5,-22.61 5.32,-55.53 5.32,-98.92 0,-20.13 -0.49,-57.19 -1.49,-111.06l0 -66.51 -1 -138.83c-0.66,-62 -2.66,-98.59 -6.32,-109.72 -1.99,-5.82 -5.99,-10.97 -12.14,-15.64 -12.46,-8.8 -28.59,-14.29 -48.54,-16.62 -19.96,-2.16 -32.92,-4.15 -38.74,-5.82zm-345.15 582.73c7.15,-2.82 14.47,-4.49 21.95,-5.15 49.87,-3.33 78.3,-9.14 85.46,-17.79 7.15,-8.64 10.8,-50.54 10.8,-125.52l-0.5 -51.38 0 -53.87 -2 -59.18 1 -34.74 -0.49 -38.08 0 -45.06 -1 -20.11 1 -25.44c0.33,-5.82 0.49,-12.64 0.49,-20.45 0,-20.62 -1,-42.39 -2.99,-65.18 -1.17,-4.49 -2.99,-8.97 -5.32,-13.12 -11.98,-6.33 -31.43,-10.48 -58.36,-12.48 -26.76,-2.15 -42.06,-4.49 -45.71,-7.15 -2.5,-1.99 -4,-6.97 -4.33,-14.96l41.06 0 129.36 3.99c33.24,0 77.47,-1.33 132.84,-3.99 0,5.16 -0.33,9.98 -1,14.47 -6.48,1.66 -17.29,3.48 -32.59,5.49 -30.92,3.48 -49.71,6.97 -56.52,10.14 -4.33,1.66 -7.32,4.49 -9.32,8.31 -3.16,5.82 -5.15,16.79 -5.82,32.75l-2.49 63.01 1.99 217.29 0 85.96c-0.66,26.94 -1,45.39 -1,55.2 0,36.41 1,59.69 2.67,69.83 1.82,10.14 4.99,17.29 9.48,21.78 4.49,4.32 11.79,7.81 21.94,10.47 15.13,3.49 27.1,5.49 35.58,5.82 18.45,0.66 30.09,3.32 35.07,7.81 1.01,4.16 1.5,7.81 1.5,10.81l0 3.83c-29.75,1 -51.7,1.49 -65.84,1.49 -8.14,0 -22.61,-0.49 -43.55,-1.33l-67.67 0.84 -115.38 -0.51 -9.31 0 -1 -13.8zm-616.31 -536.17l20.11 -73.49c1.33,-9.81 2.99,-16.12 5.32,-18.78 2.33,-2.83 4.82,-4.16 7.82,-4.16 5.82,0 12.3,6.98 19.78,20.95 5.49,10.14 10.14,16.62 13.63,19.45 3.5,2.66 8.81,4.49 15.63,5.49l4.82 -0.51 20.95 2 114.89 1.5 135.67 -0.51 39.89 0 75.49 -1.32c3.32,0 7.31,0.17 12.13,0.83 22.12,1.99 35.75,2.99 40.9,2.99 4.83,0 8.81,-1.66 11.64,-4.82 1,-1.33 6.31,-11.97 16.13,-32.26 4.32,-9.14 9.47,-13.79 15.62,-13.79 2.66,0 5.99,0.67 9.81,1.99 1.67,6.33 2.5,12.15 2.5,17.29l-0.5 19.46 0.5 41.06c0,9.98 -0.83,42.23 -2.5,96.6 0,3.66 -0.67,6.82 -1.99,9.81 -3.5,2.16 -6.65,3.32 -9.15,3.32 -2.65,0 -4.98,-1.16 -6.98,-3.66 -2,-2.32 -4.32,-9.8 -7.31,-22.27 -6.48,-28.94 -14.64,-49.72 -24.27,-62.18 -6.49,-7.98 -15.8,-13.8 -27.94,-17.3 -12.13,-3.49 -41.23,-5.31 -87.11,-5.31 -36.92,0 -64.18,0 -82.14,0 -0.5,12.96 -0.83,24.76 -0.83,35.58l3.83 302.09c0,11.97 -0.67,34.74 -2.01,68.15l0.51 64.68 -0.51 36.08c0,11.3 2.01,19.46 5.82,24.27 4,4.82 14.64,9.64 31.77,14.13 29.92,7.48 49.87,11.97 60.02,13.63 6.15,0.67 11.29,2.17 15.12,4.16l0 15.8 -69.33 -1.84c-38.07,-0.16 -66.67,-0.99 -85.79,-2.15l-71.33 3.15 -52.02 2.83c-14.8,0 -23.62,-0.33 -26.94,-1l-6.82 -2.83c0.66,-7.3 2.16,-11.97 4.32,-14.12 2.32,-1.99 8.31,-3.66 18.12,-4.99 13.64,-2 29.77,-5.49 48.38,-10.47 18.63,-5 30.76,-10.15 36.58,-15.31 3.33,-2.99 5.66,-7.81 6.99,-14.62 2.82,-14.3 4.31,-42.4 4.31,-84.46l0 -82.79 -1.99 -180.89 -1.99 -38.9 -0.51 -130.18c-20.44,0 -46.55,0 -78.46,0 -46.72,0 -75.15,2.82 -85.29,8.47 -15.97,8.81 -39.58,34.59 -71.17,77.31 -10.47,15.97 -19.61,23.94 -27.59,23.94l-4.32 -0.99c-1.34,-2 -1.99,-3.66 -1.99,-5.32 0,-4 2.65,-15.63 7.81,-35.09 6.64,-24.93 10.64,-41.9 11.97,-50.7zm-773.92 -46.56l-0.51 -22.94c50.21,0 86.95,-1.17 110.4,-3.65 8.97,-0.84 15.29,-1.33 18.95,-1.33 2.83,0 7.32,0.33 13.14,0.99 13.47,11.31 26.1,24.44 37.74,39.08 2.66,2.81 5.65,6.15 8.81,9.64l102.41 113.55 14.63 17.62c20.62,24.28 39.57,45.22 56.53,62.34 16.96,17.3 50.04,53.21 99.25,107.74l116.06 129.19c11.29,12.63 25.76,28.43 43.55,47.38l0.5 -7.82c-1.99,-45.38 -2.99,-69.33 -2.99,-71.82l2 -29.26 -1 -46.05 0 -20.95c0,-13.3 -1,-54.54 -2.83,-123.54 -0.33,-9.47 -1.33,-27.26 -3.32,-53.52 -1.83,-26.11 -2.83,-49.21 -2.83,-69.01 0,-35.91 -2.17,-56.69 -6.48,-62.5 -2.99,-4.32 -16.97,-8.65 -42.24,-13.14 -5.82,-0.33 -15.13,-1.33 -27.76,-2.99 -14.8,-0.67 -23.61,-1.5 -26.27,-2.33 -2.66,-0.99 -5.31,-3.82 -7.98,-8.31 0.66,-5.16 2.16,-9.98 4.49,-14.47 8.81,-2.49 17.46,-3.83 25.93,-3.83 9.31,0 20.62,1.17 34.25,3.5 13.64,2.32 25.94,3.49 36.75,3.49 14.96,0 38.4,-0.82 70.33,-2.32 17.95,-1.17 30.42,-1.67 37.41,-1.67l8.3 0 -0.99 14.96c-5.16,2.33 -12.47,3.66 -21.62,4.16 -8.98,0.51 -17.62,1.83 -25.43,4.16 -11.65,3.49 -18.79,6.64 -20.95,9.14 -7.81,8.48 -11.81,17.13 -11.81,25.93l5.49 153.96 4 70.66 -0.51 20.45 2.99 97.93c2,66.84 2.99,125.02 2.99,174.39 0,10.82 -0.66,33.92 -1.99,69.67l-25.6 1.99c-11.31,-12.96 -50.38,-54.03 -116.88,-123.03 -15.63,-15.96 -26.1,-27.09 -31.59,-33.57l-41.72 -48.39c-16.13,-17.96 -26.61,-29.26 -31.6,-34.25 -4.82,-4.82 -8.31,-8.47 -10.64,-10.64 -35.24,-40.4 -80.97,-90.77 -137.16,-151.46 -15.3,-16.13 -37.57,-41.56 -67,-76.14 -18.45,-21.78 -30.09,-35.08 -34.92,-39.91 -4.82,-4.98 -11.47,-10.47 -19.95,-16.62l-1.33 16.62c0,63.35 1.5,150.8 4.65,262.36l3.5 161.6c0.17,13.63 0.99,26.77 2.32,39.4l17.13 3.99c30.76,2.83 61.02,7.32 90.95,13.14 2.32,1.99 4.15,3.32 5.81,4.32l-0.5 18.29c-5.15,1.5 -9.3,2.32 -12.63,2.32 -3.5,0 -7.82,-0.33 -12.97,-0.82 -31.92,-2.17 -70.82,-3.16 -116.71,-3.16 -32.26,0 -60.69,0.82 -85.29,2.48l-6.66 0.51c-2.99,0 -7.14,-0.34 -12.63,-1l-0.49 -14.3 12.63 -5.65 22.94 -3.5c20.45,-2.82 35.25,-6.15 44.72,-9.63 6.15,-2.34 11.15,-5.82 15.13,-10.31 3.5,-22.61 5.32,-55.53 5.32,-98.92 0,-20.13 -0.49,-57.19 -1.49,-111.06l0 -66.51 -1 -138.83c-0.66,-62 -2.65,-98.59 -6.32,-109.72 -1.99,-5.82 -5.98,-10.97 -12.13,-15.64 -12.47,-8.8 -28.6,-14.29 -48.55,-16.62 -19.95,-2.16 -32.91,-4.15 -38.73,-5.82zm-643.75 588.88c3.32,-2.82 5.99,-4.65 8.32,-5.31 5.48,-1.66 14.96,-2.99 28.43,-3.83 31.59,-1.99 51.2,-4.98 58.68,-8.81 4.49,-6.48 6.81,-15.62 6.81,-27.27l-0.49 -34.08 0.49 -123.7 -0.98 -58.35 0.49 -122.19 -2.5 -138.67c-0.33,-33.08 -2.32,-51.71 -6.31,-56.02 -5.82,-6.16 -23.11,-9.65 -52.04,-10.65 -12.3,-0.33 -23.11,-1.32 -32.58,-2.99 -4.16,-2.16 -6.33,-5.15 -6.33,-8.8 0,-2.5 0.84,-5.66 2.5,-9.16 2.83,-1.66 5.49,-2.48 7.81,-2.48 4.49,0 9.98,0.16 16.46,0.49 19.12,1.99 38.9,2.99 59.52,2.99l35.91 -1 85.79 2.01c42.9,0 76.31,-0.68 100.25,-2.01 24.12,-1.32 40.4,-1.99 48.72,-1.99 7.48,0 26.1,1.17 55.53,3.49l69.16 -0.5 8.32 1.5 40.4 -1.5 4.82 2.5c1.66,2.49 2.82,5.32 3.5,8.14 0,4.66 -0.68,11.64 -2.17,20.95 -1.5,9.49 -2.16,15.29 -2.16,17.63 0,33.58 0.99,62.18 3.32,85.62 -0.33,1.83 -1.33,3.15 -2.82,3.82 -3.49,0 -6.83,-0.49 -9.64,-1.49 -3.5,-6.15 -8.32,-16.96 -14.31,-32.59 -5.98,-15.46 -15.12,-33.58 -27.09,-54.03 -8.16,-13.47 -14.47,-21.62 -18.96,-24.27 -4.49,-2.5 -13.96,-3.83 -28.27,-3.83 -2.82,0 -17.62,-0.33 -44.21,-1 -7.16,-0.33 -14.14,-0.5 -20.95,-0.5l-138.66 2.99 -12.3 0c-17.79,0 -28.43,2.17 -32.1,6.66 -5.48,7.81 -8.3,30.59 -8.3,68.49 0,3.83 0.82,42.57 2.48,116.38l0 67.33c3.5,1.01 7.48,1.5 11.64,1.5l8.16 0c5.47,0 13.46,0.17 24.1,0.51 16.79,0.66 28.1,0.99 33.91,0.99 3.83,0 7.15,-0.17 10.14,-0.5 34.75,-1.33 79.47,-1.99 134.18,-1.99 17.12,-2.83 27.1,-6.33 29.92,-10.14 4.82,-5.82 8.49,-21.12 10.97,-45.73 2.5,-24.76 7.99,-38.74 16.46,-41.89 4.33,0 8.15,0.83 11.81,2.49 0.67,2.5 1,4.99 1,7.15 0,2.33 -0.33,6.15 -1,11.3 -0.66,11.97 -0.99,49.55 -0.99,112.9 0,16.79 0.82,35.57 2.48,56.35 1.66,20.78 2.5,31.93 2.5,33.59 0,2.83 -0.49,6.81 -1.5,11.64 -2.49,1.32 -4.65,1.99 -6.31,1.99l-3.33 0c-5.15,-9.14 -10.31,-23.28 -15.13,-42.39 -8.31,-32.59 -17.29,-53.21 -26.43,-61.35 -9.32,-8.32 -24.28,-12.47 -44.89,-12.47 -4.49,0 -12.81,0.33 -24.78,0.83 -11.97,0.5 -29.76,0.66 -53.37,0.66l-31.59 0c-45.05,0 -74.48,1 -88.44,2.99l-0.5 15.97 0.5 89.61 -0.5 56.53 0.5 55.02c0.33,33.1 2.49,52.21 6.31,57.53 5.49,7.16 17.63,10.64 36.08,10.64l29.76 -0.49c2.5,0 12.64,0.33 30.43,0.82 17.62,0.51 39.4,0.67 65.5,0.67 62.68,0 104.41,-2.66 125.19,-7.98 20.79,-5.48 37.92,-14.97 51.38,-28.6 13.47,-13.63 30.43,-42.88 50.88,-88.11 6.15,-13.31 12.13,-19.95 18.28,-19.95 2.83,0 6.15,1.33 9.64,3.99 -9.14,32.08 -14.45,53.36 -15.79,63.34 -3.49,22.94 -5.49,46.22 -6.15,70 0,10.64 -2.66,19.62 -7.82,26.77l-10.8 0 -137 1.49 -61.52 -1 -146.47 1.83 -59.51 0c-7.48,0 -14.47,0.16 -20.95,0.5 -58.53,2.49 -101.58,3.66 -129.35,3.66 -4.82,0 -8.15,-0.84 -9.98,-2.5 -1.83,-1.5 -2.65,-3.98 -2.65,-7.32l0.49 -4.82zm-143.14 -583.06l5.48 73.83c2,22.28 2.99,37.57 2.99,45.54l-13.96 2.5c-21.78,-49.21 -48.72,-86.12 -81.13,-110.72 -32.26,-24.62 -71.82,-36.92 -118.55,-36.92 -57.19,0 -101.75,6.99 -133.5,20.95 -46.06,19.78 -85.62,54.36 -118.37,103.41 -32.76,49.05 -49.22,108.24 -49.22,177.4 0,40.07 5.99,75.98 17.96,107.74 12.13,31.91 29.1,61.51 50.87,88.94 21.95,27.44 47.88,51.38 77.81,71.49 19.45,13.3 42.73,23.45 69.67,30.26 15.13,3.49 37.9,5.32 68.16,5.32 19.45,0 41.07,-2.83 64.67,-8.32 23.77,-5.48 41.56,-12.96 53.7,-22.1 11.97,-9.32 20.12,-19.79 24.45,-31.59 4.49,-11.64 6.64,-34.41 6.64,-68.33 0,-56.2 -3.65,-88.96 -11.13,-98.26 -7.48,-9.31 -31.09,-15.46 -70.83,-18.29l-19.46 -1.5 -13.12 0.5c-2,-0.33 -4.49,-0.82 -7.83,-1.5l-7.31 -11.8c0,-1.66 1.16,-3.65 3.5,-6.32 16.79,-2.49 53.53,-3.81 110.23,-3.81 12.63,0 33.25,0.33 61.84,0.99l50.21 2 45.39 -0.51c8.81,0 19.29,0.33 31.75,0.84 2.16,0.33 3.66,0.99 4.33,1.82 0.66,0.66 1,2.16 1,4 0,3.49 -0.84,7.97 -2.5,13.47 -13.63,2.82 -24.27,4.32 -31.75,4.32l-31.76 -0.51c-10.64,0 -19.28,3.83 -25.94,11.15 -3.15,3.65 -4.82,15.79 -4.82,36.57l0.5 63.85c0,43.72 -1.83,71.65 -5.31,83.79 -2.01,7.15 -5.99,13.46 -12.32,19.12 -6.15,5.82 -19.11,12.47 -38.9,20.28 -28.25,11.31 -53.87,18.95 -76.81,22.95 -42.9,7.48 -84.29,11.13 -124.19,11.13 -64.34,0 -117.04,-8.14 -158.11,-24.6 -41.06,-16.46 -76.32,-39.24 -106.08,-68.5 -29.76,-29.26 -50.87,-58.68 -63.5,-88.62 -19.12,-43.89 -28.76,-88.45 -28.76,-134 0,-56.86 14.96,-112.39 45.05,-166.92 30.09,-54.37 78.47,-98.59 145.47,-132.67 47.06,-24.12 111.06,-36.09 191.86,-36.09 55.87,0 101.59,4.83 137.17,14.64 35.58,9.65 63.68,20.78 84.46,33.08zm-1214.84 576.75c47.38,-5.49 74.15,-9.47 80.3,-11.64 4.32,-1.66 8.15,-6.48 11.8,-14.64l0 -5.31c0,-8.15 1.33,-37.41 3.83,-88.12 0.66,-14.3 0.99,-28.1 0.99,-41.73l-1.49 -58.02 1 -65.68 -0.5 -122.02 0.5 -87.46c0.33,-37.08 -2.5,-59.52 -8.49,-67.66 -5.98,-8.14 -21.44,-13.96 -46.55,-17.3 -24.93,-3.48 -38.74,-5.98 -41.39,-7.48 -2.49,-1.66 -3.83,-4.31 -3.83,-7.81 0,-2.32 0.5,-5.31 1.5,-8.81 3.16,-3 10.64,-4.66 22.45,-4.82 1.49,0 5.98,-0.5 13.3,-1.33 7.31,-0.83 14.29,-1.17 20.78,-1.17l39.89 0 128.36 -1.5c72.33,0 123.2,5.33 152.29,16.13 29.1,10.64 52.21,28.76 69.5,54.2 17.12,25.44 25.77,53.87 25.77,85.3 0,59.68 -31.26,105.24 -93.61,136.66 -10.64,5.66 -18.94,10.47 -25.11,14.63 10.99,23.27 26.28,51.21 45.9,83.8l61.51 105.73c24.61,38.9 41.57,63.18 51.04,72.99 9.32,9.97 20.78,18.12 34.08,24.61 13.47,6.48 36.08,12.63 67.84,18.45 0.33,3.16 0.5,5.82 0.5,7.64 0,2 -0.17,4.49 -0.5,7.32 -44.39,0.66 -96.43,1 -156.12,1 -4.16,0 -9.98,-0.34 -17.46,-1 -22.94,-44.05 -50.04,-92.44 -81.29,-145.14l-71.99 -131.01c-9.64,-13.64 -17.79,-22.11 -24.11,-25.44 -6.31,-3.49 -14.8,-5.15 -25.27,-5.15l-41.57 0.49 -13.63 -0.49c-1,10.47 -1.5,31.59 -1.5,63.85l0 166.42c-0.33,6.15 1.01,14.79 3.83,25.93 2.65,6.15 6.98,10.98 13.31,14.8 6.15,3.66 24.1,9.3 54.03,16.78l19.61 4.84c2.67,3.15 3.82,7.3 3.82,12.79 -8.63,1.5 -14.8,2.33 -18.28,2.33 -29.09,0 -49.71,-0.16 -61.68,-0.67 -6.15,-0.16 -11.15,-0.33 -14.97,-0.33l-66 1 -64.5 -0.5c-2.83,0 -17.47,0.5 -44.07,1.49l-9.64 -1.99 -1 -4.82c0,-2.82 2.33,-6.31 6.82,-10.14zm179.73 -318.71c8.81,0.33 15.45,0.49 19.78,0.49 23.61,0 50.87,-2.83 81.64,-8.31 21.77,-4.15 39.39,-10.98 52.86,-20.61 13.47,-9.48 24.6,-23.61 33.74,-42.39 8.98,-18.8 13.47,-38.08 13.47,-58.2 0,-21.95 -6.97,-45.23 -21.11,-69.83 -10.97,-18.79 -29.26,-34.41 -55.02,-47.05 -25.78,-12.63 -56.7,-18.95 -92.78,-18.95 -8.97,0 -20.45,0.5 -34.59,1.5 -1.32,16.79 -1.82,29.76 -1.82,38.74l2.33 90.76 -0.51 37.25c0,25.27 0.67,57.53 2.01,96.6zm-887.99 317.71c4.49,-2.65 8.47,-3.99 12.14,-3.99l11.13 0c2.34,0 6.15,-0.16 11.81,-0.5 24.94,-2.32 39.74,-4.49 44.23,-6.81 11.3,-6.15 21.11,-16.79 29.25,-32.1 16.79,-33.08 35.75,-80.12 56.7,-140.81 10.14,-28.76 16.46,-46.39 18.95,-52.54 8.15,-19.45 15.97,-39.9 23.27,-61.35l45.73 -128.02c7.15,-20.11 24.27,-66.17 51.37,-138.32 6.82,-18.12 15.13,-42.57 24.78,-72.99l15.29 -1 16.95 0.51c13.98,27.59 26.44,57.52 37.08,89.45 5.82,16.95 15.47,42.22 28.76,75.64l73.99 201.01 39.57 108.89c20.78,61.85 34.41,99.92 40.9,114.06 6.48,14.29 12.47,23.59 17.96,28.08 1.66,1.34 7.64,3.34 18.28,5.99 10.48,2.5 17.96,4.49 22.12,5.82 14.96,4.16 25.27,7.48 31.09,10.31 1.32,3.5 1.99,6.15 1.99,8.15 0,1.5 -0.49,3.82 -1.49,6.98 -10.31,0.34 -17.63,0.5 -21.95,0.5 -16.46,0 -45.72,-0.34 -87.45,-1l-48.72 -0.83 -58.85 0.5c-3.99,0 -7.99,0 -11.97,-0.33 -4.16,-0.17 -7.65,-0.34 -10.47,-0.34l-10.64 0c-3.67,-0.33 -6.82,-1.33 -9.82,-2.99 0,-4.66 0.84,-9.15 2.34,-13.47 3.81,-1.99 7.48,-3.16 10.63,-3.49l50.21 -3.48c12.97,-0.68 22.95,-2.34 29.76,-5.33 2,-5.98 2.99,-10.31 2.99,-13.3 0,-5.82 -4.32,-21.11 -12.79,-45.72 -5.82,-16.29 -10.82,-31.92 -15.31,-46.72 -4.31,-14.62 -21.61,-63.18 -51.7,-145.31 -13.3,-2.32 -24.94,-3.49 -35.08,-3.49l-103.74 1.01 -30.59 -0.51c-10.98,0 -23.12,0.84 -36.42,2.5 -4.32,9.8 -6.97,16.79 -8.3,20.94l-42.57 134.67c-18.12,51.37 -27.27,79.47 -27.27,84.8 0,2.99 1.5,7.81 4.33,14.62 6.81,2 15.96,3.83 27.26,5.49l66.35 5.82c3.48,2.99 5.31,5.65 5.31,7.97 0,1.67 -0.5,4.16 -1.5,7.49 -14.63,0.34 -25.76,0.5 -33.58,0.5 -25.94,0 -56.2,-1.33 -90.61,-3.99 -15.97,-0.66 -27.26,-1 -34.09,-1 -6.81,0 -18.61,0.34 -35.58,1 -10.97,0.66 -18.94,1 -23.76,1 -7.83,0 -17.96,-0.51 -30.27,-1.5l0 -2.99c0,-2.33 0.67,-5.49 2,-9.48zm231.93 -292.11c34.58,1.82 74.14,2.83 118.37,2.83 25.28,0 47.39,-0.84 66.5,-2.34 -3.16,-12.63 -6.97,-24.27 -11.13,-35.07 -21.12,-55.69 -32.76,-86.46 -35.09,-92.28l-44.22 -110.89 -4.82 -8.65c-2,3.83 -9.14,20.29 -21.45,49.38 -20.61,50.05 -35.41,88.95 -44.38,116.71 -4.33,12.48 -8.65,24.95 -13.14,37.25 -4.49,12.3 -7.32,20.94 -8.48,25.94 -1.17,4.98 -2.83,9.97 -5.15,15.13l2.99 1.99zm-684.98 -127.62c-0.55,-2.09 -1.25,-3.61 -2.23,-4.3 -0.96,-0.84 -2.07,-1.25 -3.46,-1.25 -13.98,0 -35.88,22.3 -65.53,66.92 -2.91,0.27 -5.13,0.41 -6.5,0.41 -1.54,0 -4.3,-0.14 -8.04,-0.41 5.68,-11.36 14.96,-25.77 27.84,-43.09 12.89,-17.32 26.6,-31.87 41.16,-43.37 14.41,-11.5 28.26,-20.09 41.28,-25.76 4.3,-1.95 8.18,-2.91 11.78,-2.91 1.38,0 3.32,0.14 6.09,0.41 4.86,4.85 7.34,9.84 7.34,14.96 0,3.32 -0.41,6.52 -1.1,9.7 -0.7,3.33 -2.08,8.32 -4.29,14.96 -8.04,23.28 -14.14,39.49 -17.88,49.05l-23.28 59.85c-5.41,13.72 -10.66,28.27 -15.79,43.64 2.08,-2.63 4.02,-5.25 5.68,-7.61 25.22,-36.85 52.37,-72.05 81.61,-105.72 29.23,-33.66 53.19,-56.1 72.31,-67.47 13.45,-8.45 26.47,-12.61 38.66,-12.61 9.14,0 16.35,2.5 21.48,7.62 5.26,4.99 7.75,11.5 7.75,19.4 0,4.99 -0.55,9.7 -1.52,14.4 -1.94,10.27 -6.23,24.53 -12.75,42.96 -6.64,18.29 -23.82,58.19 -51.67,119.56l-41.02 93.66 -1.66 5.26c0,1.67 0.97,4.02 2.91,7.22 15.24,-3.2 38.11,-27.3 68.44,-72.33l16.77 0.42c-8.45,15.09 -22.3,34.64 -41.57,58.46 -14.82,18.16 -30.89,32.28 -47.94,42.26 -9.55,5.68 -19.8,8.59 -30.61,8.59 -6.51,0 -11.37,-1.39 -14.69,-4.01 -3.18,-2.77 -4.84,-5.68 -4.84,-8.88 0,-14.41 6.93,-36.44 20.77,-66.49l59.03 -128.72 22.71 -54.03c5.14,-11.91 8.32,-20.09 9.43,-24.66 0.97,-4.71 1.52,-9.29 1.52,-13.86 0,-3.73 -0.97,-6.64 -2.77,-8.73 -1.93,-2.07 -4.29,-3.18 -7.34,-3.18 -4.3,0 -9.28,1.8 -14.96,5.27 -19.95,11.91 -41.98,32.41 -66.09,61.37 -34.64,41.84 -57.49,71.76 -68.86,89.92 -28.54,45.03 -53.34,91.03 -74.54,137.85 -3.32,7.76 -7.21,13.3 -11.78,16.9 -5.68,0.84 -10.11,1.25 -13.02,1.25 -3.46,0 -9,-0.69 -16.21,-2.08 -1.11,-2.22 -1.66,-4.15 -1.66,-5.54 0,-2.07 1.39,-7.07 4.02,-14.55 5.96,-17.59 20.64,-54.73 43.78,-111.25l9.42 -21.89 51.82 -137.57zm-290.54 134.93c-9,24.53 -13.43,49.32 -13.43,74.41 0,18.28 4.29,32.98 13.02,43.92 5.67,7.61 13.44,11.36 23.28,11.36 5.95,0 11.21,-1.25 15.78,-3.61 10.13,-5.12 18.71,-11.08 25.91,-18.01 7.21,-6.93 14.7,-16.07 22.59,-27.15 7.89,-11.23 14.27,-23.83 19.12,-37.69l5.68 0c3.18,0 6.93,0.29 10.95,0.84 -8.18,30.05 -28.13,59.57 -60.14,88.53 -20.09,18.01 -40.73,27.01 -62.07,27.01 -14.41,0 -26.6,-6.51 -36.57,-19.53 -13.3,-17.05 -19.96,-40.46 -19.96,-70.53 0,-13.02 1.95,-28.53 5.82,-46.69 4.02,-18.14 8.46,-33.25 13.72,-45.44 8.03,-18.98 17.19,-36.85 27.16,-53.61l31.17 -45.45c20.37,-21.61 31.73,-33.52 34.09,-35.61 9.55,-8.17 18.98,-14.27 28.67,-18.55 9.56,-4.16 19.54,-6.25 29.79,-6.25 13.3,0 24.8,5.55 34.92,16.63 9.97,11.08 14.96,25.08 14.96,41.84 0,14.97 -3.89,29.65 -11.64,44.2 -7.62,14.41 -15.93,25.07 -24.94,31.87l-33.66 21.89c-3.75,1.93 -14,5.4 -30.48,10.39 -16.5,4.98 -37.83,10.11 -63.74,15.23zm6.93 -20.78c8.59,0.28 22.17,-3.04 40.6,-10.11 10.11,-3.74 23.27,-11.23 39.9,-22.3 6.51,-4.3 13.99,-11.78 22.31,-22.17 8.44,-10.4 14.82,-21.2 19.12,-32.43 4.29,-11.21 6.5,-22.71 6.5,-34.62 0,-7.91 -2.36,-14.28 -6.93,-19.41 -4.57,-5.12 -9.69,-7.75 -15.37,-7.75 -7.34,0 -16.07,4.15 -26.05,12.6 -16.77,14.56 -34.5,39.07 -52.93,73.3 -13.71,26.32 -22.85,47.23 -27.15,62.89zm-1019.25 -300.93l23.28 0c8.31,0 26.77,0.5 55.2,1.33 43.89,1.84 80.47,2.66 109.56,2.66l56.7 -1c7.97,0 15.79,0.67 23.28,1.84 2.15,2.65 3.32,5.31 3.32,8.14l0 5.33 -12.3 5.64 -5.33 0 -27.43 0.51 -14.13 -0.51c-11.14,0 -20.12,2.5 -26.94,7.48 -5.31,3.5 -7.81,7.32 -7.81,11.31 0,4.33 2.16,9.64 6.82,16.3 1.66,2.66 4.15,6.48 7.81,11.64 6.48,10.96 15.13,23.77 25.77,38.23 15.46,21.29 31.59,46.55 48.89,75.65 6.81,11.64 13.96,22.77 21.44,33.41l74.32 111.4c4.82,-6.15 11.46,-15.13 19.95,-27.1l69.99 -100.25 80.8 -120.54c7.15,-11.15 11.3,-19.45 12.63,-24.61 0.67,-2.65 1,-5.48 1,-8.47 0,-6.83 -3.15,-12.48 -9.3,-16.63 -9.98,-6.98 -31.26,-11.97 -64.18,-15.3 -2.33,-0.33 -5.32,-0.83 -9.14,-1.5 -2.17,-3.98 -3.34,-7.3 -3.34,-9.97 0,-2 0.18,-4.16 0.51,-6.49l25.27 -0.49 91.61 3.99 73.65 -1.5c2,0 8.81,0.17 20.45,0.5l-1.5 16.95c-2.16,0.68 -5.82,1.17 -10.64,1.5l-11.8 1.5c-1.83,0.17 -4.98,0.5 -9.14,0.83 -6.83,2.67 -12.3,5.33 -16.13,8.32 -47.72,50.2 -88.29,97.59 -121.88,142.48 -33.41,44.72 -61.67,85.45 -84.78,122.2 -7.32,11.97 -13.47,20.95 -17.95,26.76 -8.49,11.14 -13.47,19.12 -15.13,24.45 -3.5,12.46 -5.33,31.58 -5.33,57.18 0,100.42 1.83,159.78 5.49,177.9 1.99,8.98 4.49,14.47 7.81,16.46 8.65,4.16 42.74,9.14 102.41,14.96l0 5.82c0,4 -1.15,8.65 -3.49,14.13l-125.52 -3.98 -83.96 4.49 -68.66 0c-6.65,0 -13.8,-0.17 -21.61,-0.51 -1.33,-3.98 -2,-6.81 -2,-8.64 0,-1.84 0.5,-4.32 1.49,-7.48 2.33,-2.17 4.49,-3.5 6.82,-3.83l63.34 -9.64c21.79,-7.15 34.09,-11.97 36.75,-14.63 3.82,-3.83 6.32,-9.81 7.32,-17.79 0.33,-5.82 0.49,-50.71 0.49,-134.5 0,-31.26 -1,-50.38 -3.15,-57.36 -2.16,-6.98 -8.98,-19.12 -20.79,-36.58l-63.84 -96.93 -108.89 -158.28c-18.8,-27.92 -35.09,-46.55 -48.89,-56.02 -6.15,-4.32 -21.62,-7.48 -46.05,-9.81 -2.67,0 -6.48,-0.33 -11.64,-0.99l-1.5 -19.96zm-607.67 611.49c4.49,-2.65 8.48,-3.98 12.14,-3.98l11.13 0c2.34,0 6.15,-0.17 11.81,-0.51 24.94,-2.32 39.74,-4.49 44.23,-6.81 11.3,-6.15 21.11,-16.79 29.25,-32.09 16.79,-33.09 35.75,-80.13 56.7,-140.82 10.14,-28.76 16.46,-46.38 18.96,-52.53 8.14,-19.46 15.96,-39.91 23.26,-61.35l45.73 -128.03c7.15,-20.11 24.27,-66.16 51.37,-138.31 6.82,-18.13 15.13,-42.57 24.78,-72.99l15.29 -1.01 16.95 0.51c13.98,27.59 26.44,57.52 37.08,89.45 5.82,16.95 15.47,42.23 28.76,75.64l73.99 201.01 39.57 108.89c20.78,61.85 34.41,99.92 40.9,114.06 6.48,14.29 12.47,23.6 17.96,28.09 1.66,1.33 7.65,3.33 18.28,5.98 10.48,2.5 17.96,4.49 22.12,5.82 14.96,4.16 25.27,7.48 31.09,10.31 1.32,3.5 1.99,6.15 1.99,8.16 0,1.49 -0.49,3.81 -1.49,6.97 -10.31,0.34 -17.63,0.51 -21.95,0.51 -16.46,0 -45.72,-0.34 -87.45,-1l-48.72 -0.84 -58.85 0.51c-3.99,0 -7.99,0 -11.97,-0.33 -4.16,-0.18 -7.64,-0.35 -10.47,-0.35l-10.64 0c-3.67,-0.33 -6.82,-1.33 -9.82,-2.99 0,-4.65 0.84,-9.14 2.34,-13.47 3.81,-1.99 7.48,-3.15 10.64,-3.48l50.2 -3.49c12.97,-0.67 22.95,-2.33 29.76,-5.33 2,-5.98 2.99,-10.3 2.99,-13.3 0,-5.82 -4.32,-21.11 -12.79,-45.71 -5.82,-16.3 -10.82,-31.93 -15.31,-46.73 -4.31,-14.62 -21.61,-63.17 -51.7,-145.3 -13.3,-2.33 -24.94,-3.49 -35.08,-3.49l-103.74 1 -30.59 -0.51c-10.98,0 -23.12,0.84 -36.42,2.5 -4.32,9.8 -6.97,16.79 -8.3,20.95l-42.57 134.67c-18.12,51.37 -27.27,79.46 -27.27,84.79 0,2.99 1.5,7.81 4.33,14.62 6.81,2 15.96,3.83 27.26,5.49l66.35 5.82c3.48,2.99 5.31,5.66 5.31,7.98 0,1.66 -0.49,4.16 -1.5,7.48 -14.63,0.34 -25.76,0.51 -33.57,0.51 -25.95,0 -56.2,-1.33 -90.62,-4 -15.96,-0.66 -27.26,-1 -34.09,-1 -6.81,0 -18.61,0.34 -35.58,1 -10.97,0.66 -18.94,1 -23.76,1 -7.82,0 -17.96,-0.5 -30.27,-1.49l0 -2.99c0,-2.34 0.67,-5.5 2,-9.49zm231.93 -292.11c34.58,1.83 74.15,2.83 118.38,2.83 25.27,0 47.38,-0.84 66.49,-2.33 -3.15,-12.63 -6.97,-24.27 -11.13,-35.08 -21.11,-55.69 -32.76,-86.45 -35.09,-92.27l-44.22 -110.9 -4.81 -8.64c-2.01,3.83 -9.15,20.29 -21.46,49.37 -20.61,50.05 -35.4,88.96 -44.38,116.72 -4.33,12.47 -8.65,24.94 -13.14,37.24 -4.49,12.3 -7.32,20.95 -8.48,25.94 -1.17,4.99 -2.83,9.97 -5.15,15.13l2.99 1.99zm-792.38 310.07c0.33,-4.82 1.66,-9.15 3.83,-12.96 25.43,-6.83 50.04,-11.31 73.98,-13.64 15.96,-1.33 26.09,-4.83 30.58,-10.65 3.34,-4.31 5.33,-19.94 5.99,-46.88l3.33 -128.51 -0.5 -87.12 0.5 -113.88 0 -30.26c0.33,-68.5 0,-111.23 -1,-128.02 -0.33,-3.32 -1.66,-7.81 -3.99,-13.63 -8.48,-4 -15.63,-6.49 -21.28,-7.81 -5.82,-1.34 -31.42,-5.99 -76.97,-14.14 -0.35,-3.65 -0.51,-6.32 -0.51,-7.98 0,-2 0.16,-4.65 0.51,-7.99 6.15,0 16.29,0.34 30.42,1.17l74.32 2.83 43.23 1 12.63 -0.51c1.66,0 6.48,0.34 14.3,1 19.29,0 30.26,-0.16 33.25,-0.49l39.23 -2.99c26.44,0 45.06,0.49 55.86,1.49 -0.33,5.66 -1.5,11.81 -3.49,18.45 -3.48,0.67 -20.45,1.5 -50.71,2.67 -30.25,1.16 -47.71,2.99 -52.2,5.65 -7.48,4.15 -11.3,17.29 -11.3,39.07 0,5.15 -0.33,15.62 -1,31.59l0 29.26 0.49 90.28 0 30.75 1 161.43 -1.49 137.66 0.49 30.27c0,9.64 1.68,15.62 4.83,17.96 8.14,0.33 32.08,0.66 71.48,0.99l33.1 0 84.12 -3c22.12,-0.49 37.91,-2.82 47.21,-6.48 9.49,-3.83 25.11,-14.63 47.22,-32.92 13.31,-11.64 23.62,-23.61 31.1,-35.91 1.66,-2.66 4.32,-6.48 8.3,-11.8 6.15,-8.31 14.47,-25.27 24.78,-50.55l15.97 0c-2.01,11.64 -4.16,22.79 -6.33,33.26 -9.47,45.88 -16.12,84.13 -19.62,114.71 -0.66,6.49 -1.33,12.48 -1.99,17.96l-182.05 -5.32c-156.28,0 -249.05,1.16 -278.32,3.33 -9.14,0.49 -18.61,0.66 -28.76,0.66l-50.54 0zm-545.14 -624.96c5.82,-0.99 9.47,-1.5 11.13,-1.5 10.97,0 29.1,1 54.54,3.17 13.29,0.49 22.27,0.82 27.1,0.82 7.14,0 22.28,-0.66 45.38,-1.99l82.63 -4.99c21.78,-1.99 47.06,-2.99 75.98,-2.99 50.88,0 91.44,7.31 121.53,21.78 30.27,14.47 53.54,37.08 69.83,67.83 16.46,30.93 24.62,61.52 24.62,92.11 0,50.87 -17.79,94.93 -53.54,131.84 -35.75,37.08 -83.79,55.53 -144.15,55.53 -16.96,0 -31.08,-1.66 -42.4,-5.15 -11.47,-3.32 -24.43,-9.98 -39.06,-19.78 -6.15,-4.16 -9.82,-8.49 -11.15,-13.14 1.33,-2.17 3.17,-3.83 5.33,-4.82 4.65,0 9.3,0.99 14.12,2.99 10.98,3.99 24.94,5.99 41.9,5.99 25.61,0 49.88,-6.33 72.82,-18.96 22.78,-12.81 40.07,-30.76 51.88,-54.19 11.64,-23.45 17.45,-48.05 17.45,-74.16 0,-25.27 -6.15,-50.04 -18.45,-73.81 -12.3,-23.94 -28.43,-43.07 -48.54,-57.37 -11.31,-8.14 -28.6,-14.96 -52.04,-20.44 -23.45,-5.49 -41.57,-8.32 -54.54,-8.32 -40.06,0 -63.84,2.99 -71.32,8.81l-0.51 6.82 1.5 55.03 -0.5 9.81c-0.65,8.81 -1,22.28 -1,40.4 0,66.33 1,107.57 2.83,123.86l0 27.27 6.15 222.95c0,3.15 -0.33,9.14 -1.15,17.95 -0.84,8.81 -1.33,16.46 -1.33,22.94 0,15.64 1.33,27.44 3.98,35.58 7.66,2.34 30.43,7.65 67.84,16.13 17.45,4.16 26.93,6.48 28.59,7.15 2.67,0.99 4.82,3.16 6.81,6.32 -1.32,4.82 -2.99,7.81 -5.15,9.31 -1.99,1.49 -6.15,2.16 -12.3,2.16 -3.83,0 -12.97,-0.83 -27.26,-2.49 -27.77,-3 -49.72,-4.49 -65.51,-4.49l-85.45 4.49 -51.05 -1.83c-3.16,0 -12.63,0.5 -28.09,1.33l-0.51 -12.97 63.01 -12.14c10.31,-2.99 16.64,-5.98 18.96,-8.81 3.16,-4.65 4.82,-13.46 4.82,-26.93 0,-2.83 0.16,-9.31 0.5,-18.96 0.33,-6.81 0.5,-16.29 0.5,-28.43 0,-38.4 -1.5,-120.2 -4.32,-245.56 -1.17,-58.52 -1.67,-118.04 -1.67,-178.55l0 -8.32c0,-23.45 -3.65,-38.23 -10.8,-44.39 -11.97,-10.81 -42.23,-19.62 -90.45,-26.43 -1.66,-3.66 -2.49,-6.66 -2.49,-8.98 0,-2.66 0.99,-5.82 3,-9.48zm-779.09 613.66c11.98,-5.16 25.94,-8.49 41.9,-10.15 23.11,-2.49 40.24,-8.14 51.71,-16.46 8.8,-17.95 13.13,-63.5 13.13,-136.65l0 -76.99 1 -46.38 -1 -34.09 1 -63.01 -1.5 -158.44c0,-17.96 -2.66,-29.6 -7.81,-35.24 -7.48,-8.15 -27.44,-15.63 -59.69,-22.44 -13.3,-2.83 -21.44,-5.49 -24.43,-7.83 -2.83,-2.48 -4.67,-6.97 -5.33,-13.63 7.48,-1.5 12.63,-2.32 15.63,-2.32l34.59 0 18.12 -0.51c11.97,0 25.27,1.33 39.89,4 29.93,1.99 60.69,2.99 92.28,2.99 8.98,0 22.11,-0.5 38.9,-1.33 44.89,-2.49 77.15,-3.65 96.6,-3.65 39.4,0 76.48,3.81 111.39,11.64 34.92,7.81 71,22.1 108.06,43.21 23.12,13.3 46.73,34.25 71,62.85 24.11,28.6 42.56,59.86 55.03,93.77 12.47,33.75 18.79,71.82 18.79,114.22 0,37.91 -6.98,75.48 -20.79,112.72 -13.79,37.24 -32.92,69.49 -57.68,96.77 -24.78,27.43 -49.71,48.04 -75.15,61.68 -25.27,13.79 -64.01,25.76 -115.89,35.74 -21.44,3.82 -60.01,5.82 -115.54,5.82 -36.75,0 -66.68,-1 -89.78,-2.83 -8.98,-1.16 -18.79,-1.66 -29.27,-1.66 -1.49,0 -3.32,0.17 -5.31,0.5l-198.84 3.99 -1.01 -3.83c-0.66,-1.66 -1,-3.32 -1,-5.31l1 -7.15zm248.06 -20.29c24.6,8.48 49.55,12.64 74.98,12.64 32.76,0 65,-5.16 96.43,-15.3 31.6,-10.3 59.35,-24.6 83.62,-43.4 24.12,-18.61 44.07,-39.56 59.69,-63.17 15.47,-23.44 26.61,-44.56 33.09,-63.51 9.15,-27.44 13.64,-63.35 13.64,-107.4 0,-42.23 -8.98,-84.96 -26.77,-128.52 -12.31,-30.09 -34.08,-58.85 -65.01,-86.45 -31.1,-27.6 -67.67,-47.72 -109.89,-60.51 -42.24,-12.81 -87.96,-19.29 -137,-19.29 -33.75,0 -58.69,3.65 -74.98,11.13 -1.99,2.01 -3.83,4.33 -5.82,6.82 -2,8.15 -3,15.63 -3,22.45 0,4.16 0.17,9.14 0.5,14.96 1,37.74 1.49,67.83 1.49,90.61l-0.49 110.39c0,162.11 2.99,252.38 8.98,270.67 5.98,18.28 22.94,34.25 50.54,47.88zm-825.47 31.59c0.33,-4.82 1.67,-9.15 3.83,-12.96 25.44,-6.83 50.04,-11.31 73.98,-13.64 15.97,-1.33 26.1,-4.83 30.59,-10.65 3.33,-4.31 5.32,-19.94 5.98,-46.88l3.34 -128.51 -0.51 -87.12 0.51 -113.88 0 -30.26c0.33,-68.5 0,-111.23 -1,-128.02 -0.33,-3.32 -1.66,-7.81 -4,-13.63 -8.47,-4 -15.62,-6.49 -21.28,-7.81 -5.82,-1.34 -31.42,-5.99 -76.97,-14.14 -0.34,-3.65 -0.5,-6.32 -0.5,-7.98 0,-2 0.16,-4.65 0.5,-7.99 6.15,0 16.3,0.34 30.42,1.17l74.32 2.83 43.23 1 12.63 -0.51c1.66,0 6.48,0.34 14.31,1 19.28,0 30.25,-0.16 33.24,-0.49l39.24 -2.99c26.44,0 45.05,0.49 55.86,1.49 -0.33,5.66 -1.5,11.81 -3.49,18.45 -3.49,0.67 -20.45,1.5 -50.71,2.67 -30.26,1.16 -47.72,2.99 -52.21,5.65 -7.48,4.15 -11.3,17.29 -11.3,39.07 0,5.15 -0.33,15.62 -1,31.59l0 29.26 0.5 90.28 0 30.75 1 161.43 -1.5 137.66 0.5 30.27c0,9.64 1.67,15.62 4.83,17.96 8.14,0.33 32.08,0.66 71.48,0.99l33.1 0 84.12 -3c22.11,-0.49 37.9,-2.82 47.21,-6.48 9.48,-3.83 25.11,-14.63 47.22,-32.92 13.3,-11.64 23.61,-23.61 31.09,-35.91 1.67,-2.66 4.33,-6.48 8.31,-11.8 6.15,-8.31 14.47,-25.27 24.78,-50.55l15.96 0c-2,11.64 -4.16,22.79 -6.32,33.26 -9.48,45.88 -16.12,84.13 -19.62,114.71 -0.66,6.49 -1.33,12.48 -1.99,17.96l-182.06 -5.32c-156.27,0 -249.04,1.16 -278.31,3.33 -9.14,0.49 -18.62,0.66 -28.76,0.66l-50.55 0zm-739.5 -313.23c0,-33.08 3.98,-62.51 11.97,-88.44 7.97,-25.77 21.28,-53.87 40.23,-84.13 18.78,-30.1 41.56,-55.37 68.16,-75.65 26.61,-20.29 63.52,-38.24 110.73,-53.86 33.08,-10.81 74.98,-16.13 125.69,-16.13 34.08,0 67.5,4.49 100.25,13.63 32.59,9.14 62.19,21.78 88.96,38.08 26.6,16.12 53.19,41.22 79.79,74.98 18.63,23.44 32.59,48.54 42.07,75.47 12.3,35.58 18.46,71.99 18.46,109.74 0,42.89 -4.16,78.47 -12.48,106.73 -8.3,28.27 -22.11,56.2 -41.57,83.79 -15.29,21.45 -41.55,46.22 -78.46,74.16 -24.78,18.78 -55.53,34.07 -92.28,45.55 -36.57,11.47 -76.31,17.29 -118.87,17.29 -43.23,0 -81.8,-4.99 -115.54,-15.12 -33.76,-9.98 -62.02,-22.28 -84.47,-36.75 -22.61,-14.47 -45.89,-35.91 -69.83,-64.18 -23.78,-28.26 -41.9,-59.35 -54.36,-93.6 -12.3,-34.08 -18.45,-71.32 -18.45,-111.56zm338.33 303.26c27.26,0 55.53,-3.83 84.96,-11.48 29.42,-7.64 55.53,-20.29 78.3,-38.06 22.61,-17.63 40.4,-37.75 53.37,-60.36 12.8,-22.61 23.11,-51.54 30.92,-87.12 7.82,-35.41 11.64,-70.82 11.64,-106.24 0,-44.22 -6.48,-87.95 -19.45,-131.18 -10.15,-32.75 -26.61,-62 -49.22,-87.95 -22.77,-25.76 -50.2,-45.71 -82.46,-59.85 -32.08,-14.13 -66.33,-21.28 -102.75,-21.28 -29.58,0 -58.52,4.82 -86.78,14.64 -28.26,9.8 -51.54,22.11 -69.66,37.24 -18.12,15.13 -35.09,36.57 -50.71,64.34 -15.62,27.76 -27.43,58.52 -35.58,91.93 -8.14,33.43 -12.14,63.01 -12.14,88.79 0,26.94 4,57.52 12.14,91.61 8.15,34.08 19.29,63.68 33.43,88.77 14.12,24.95 31.58,47.22 52.19,66.51 20.62,19.29 43.73,34.09 69.34,44.38 25.76,10.15 53.19,15.31 82.46,15.31z"/>
 </g>
</svg>
