<?xml version="1.0" encoding="UTF-8"?>
<!DOCTYPE svg PUBLIC "-//W3C//DTD SVG 1.1//EN" "http://www.w3.org/Graphics/SVG/1.1/DTD/svg11.dtd">
<!-- Creator: CorelDRAW -->
<svg xmlns="http://www.w3.org/2000/svg" xml:space="preserve" width="25.3998mm" height="22.2672mm" version="1.1" style="shape-rendering:geometricPrecision; text-rendering:geometricPrecision; image-rendering:optimizeQuality; fill-rule:evenodd; clip-rule:evenodd"
viewBox="0 0 2539.98 2226.72"
 xmlns:xlink="http://www.w3.org/1999/xlink"
 xmlns:xodm="http://www.corel.com/coreldraw/odm/2003">
 <defs>
  <style type="text/css">
   <![CDATA[
    .fil0 {fill:#25367C;fill-rule:nonzero}
   ]]>
  </style>
 </defs>
 <g id="Capa_x0020_1">
  <metadata id="CorelCorpID_0Corel-Layer"/>
  <path class="fil0" d="M310.36 240.76c-43.66,0 -79.37,35.72 -79.37,79.38l0 1587.5c0,43.65 35.71,79.37 79.37,79.37l1905 0.01c43.66,0 79.37,-35.72 79.37,-79.38l0 -1587.5c0,-43.65 -35.71,-79.37 -79.37,-79.37l-1905 -0.01zm-317.5 79.38c0,-175.12 142.38,-317.5 317.5,-317.5l1905 0c175.12,0 317.5,142.38 317.5,317.5l0 1587.5c0,175.12 -142.38,317.5 -317.5,317.5l-1905 0c-175.12,0 -317.5,-142.38 -317.5,-317.5l0 -1587.5zm868.16 391.91c46.64,-46.63 122.04,-46.63 168.18,0l233.16 233.17 233.17 -233.17c46.63,-46.63 122.04,-46.63 168.17,0 46.14,46.64 46.64,122.04 0,168.18l-233.16 233.16 233.16 233.17c46.64,46.63 46.64,122.04 0,168.17 -46.63,46.14 -122.04,46.64 -168.17,0l-233.17 -233.16 -233.16 233.16c-46.63,46.64 -122.04,46.64 -168.18,0 -46.13,-46.63 -46.63,-122.04 0,-168.17l233.17 -233.17 -233.17 -233.16c-46.63,-46.63 -46.63,-122.04 0,-168.18z"/>
 </g>
</svg>
