<?xml version="1.0" encoding="UTF-8"?>
<!DOCTYPE svg PUBLIC "-//W3C//DTD SVG 1.1//EN" "http://www.w3.org/Graphics/SVG/1.1/DTD/svg11.dtd">
<!-- Creator: CorelDRAW -->
<svg xmlns="http://www.w3.org/2000/svg" xml:space="preserve" width="8.6358mm" height="7.4506mm" version="1.1" style="shape-rendering:geometricPrecision; text-rendering:geometricPrecision; image-rendering:optimizeQuality; fill-rule:evenodd; clip-rule:evenodd"
viewBox="0 0 863.58 745.06"
 xmlns:xlink="http://www.w3.org/1999/xlink"
 xmlns:xodm="http://www.corel.com/coreldraw/odm/2003">
 <defs>
  <style type="text/css">
   <![CDATA[
    .fil0 {fill:#FFA2F3;fill-rule:nonzero}
   ]]>
  </style>
 </defs>
 <g id="Capa_x0020_1">
  <metadata id="CorelCorpID_0Corel-Layer"/>
  <path class="fil0" d="M114.29 81.49c-14.55,0 -26.46,11.91 -26.46,26.46l0 529.16c0,14.55 11.91,26.46 26.46,26.46l635 0c14.55,0 26.46,-11.91 26.46,-26.46l0 -529.16c0,-14.55 -11.91,-26.46 -26.46,-26.46l-635 0zm-105.84 26.46c0,-58.38 47.46,-105.84 105.84,-105.84l635 0c58.38,0 105.84,47.46 105.84,105.84l0 529.16c0,58.38 -47.46,105.83 -105.84,105.83l-635 0.01c-58.38,0 -105.84,-47.46 -105.84,-105.84l0 -529.16zm289.39 130.64c15.55,-15.55 40.68,-15.55 56.06,0l77.72 77.72 77.73 -77.72c15.54,-15.55 40.68,-15.55 56.05,0 15.38,15.54 15.55,40.67 0,56.05l-77.72 77.72 77.72 77.73c15.55,15.54 15.55,40.68 0,56.05 -15.54,15.38 -40.68,15.55 -56.05,0l-77.73 -77.72 -77.72 77.72c-15.54,15.55 -40.68,15.55 -56.06,0 -15.38,-15.54 -15.54,-40.68 0,-56.05l77.73 -77.73 -77.73 -77.72c-15.54,-15.54 -15.54,-40.68 0,-56.05z"/>
 </g>
</svg>
