<?xml version="1.0" encoding="UTF-8"?>
<!DOCTYPE svg PUBLIC "-//W3C//DTD SVG 1.1//EN" "http://www.w3.org/Graphics/SVG/1.1/DTD/svg11.dtd">
<!-- Creator: CorelDRAW -->
<svg xmlns="http://www.w3.org/2000/svg" xml:space="preserve" width="8.4666mm" height="8.4666mm" version="1.1" style="shape-rendering:geometricPrecision; text-rendering:geometricPrecision; image-rendering:optimizeQuality; fill-rule:evenodd; clip-rule:evenodd"
viewBox="0 0 846.66 846.66"
 xmlns:xlink="http://www.w3.org/1999/xlink"
 xmlns:xodm="http://www.corel.com/coreldraw/odm/2003">
 <defs>
  <style type="text/css">
   <![CDATA[
    .fil0 {fill:#FFA2F3}
   ]]>
  </style>
 </defs>
 <g id="Capa_x0020_1">
  <metadata id="CorelCorpID_0Corel-Layer"/>
  <path class="fil0" d="M127.01 21.17c58.45,0 105.83,47.39 105.83,105.84 0,58.45 -47.38,105.83 -105.83,105.83 -58.45,0 -105.84,-47.38 -105.84,-105.83 0,-58.45 47.39,-105.84 105.84,-105.84zm592.66 592.66c58.45,0 105.83,47.39 105.83,105.84 0,58.45 -47.38,105.83 -105.83,105.83 -58.45,0 -105.84,-47.38 -105.84,-105.83 0,-58.45 47.39,-105.84 105.84,-105.84zm-296.33 0c58.45,0 105.83,47.39 105.83,105.84 0,58.45 -47.38,105.83 -105.83,105.83 -58.45,0 -105.84,-47.38 -105.84,-105.83 0,-58.45 47.39,-105.84 105.84,-105.84zm-296.33 0c58.45,0 105.83,47.39 105.83,105.84 0,58.45 -47.38,105.83 -105.83,105.83 -58.45,0 -105.84,-47.38 -105.84,-105.83 0,-58.45 47.39,-105.84 105.84,-105.84zm592.66 -296.33c58.45,0 105.83,47.39 105.83,105.84 0,58.45 -47.38,105.83 -105.83,105.83 -58.45,0 -105.84,-47.38 -105.84,-105.83 0,-58.45 47.39,-105.84 105.84,-105.84zm-296.33 0c58.45,0 105.83,47.39 105.83,105.84 0,58.45 -47.38,105.83 -105.83,105.83 -58.45,0 -105.84,-47.38 -105.84,-105.83 0,-58.45 47.39,-105.84 105.84,-105.84zm-296.33 0c58.45,0 105.83,47.39 105.83,105.84 0,58.45 -47.38,105.83 -105.83,105.83 -58.45,0 -105.84,-47.38 -105.84,-105.83 0,-58.45 47.39,-105.84 105.84,-105.84zm592.66 -296.33c58.45,0 105.83,47.39 105.83,105.84 0,58.45 -47.38,105.83 -105.83,105.83 -58.45,0 -105.84,-47.38 -105.84,-105.83 0,-58.45 47.39,-105.84 105.84,-105.84zm-296.33 0c58.45,0 105.83,47.39 105.83,105.84 0,58.45 -47.38,105.83 -105.83,105.83 -58.45,0 -105.84,-47.38 -105.84,-105.83 0,-58.45 47.39,-105.84 105.84,-105.84z"/>
 </g>
</svg>
