<?xml version="1.0" encoding="UTF-8"?>
<!DOCTYPE svg PUBLIC "-//W3C//DTD SVG 1.1//EN" "http://www.w3.org/Graphics/SVG/1.1/DTD/svg11.dtd">
<!-- Creator: CorelDRAW -->
<svg xmlns="http://www.w3.org/2000/svg" xml:space="preserve" width="50.7998mm" height="8.4666mm" version="1.1" style="shape-rendering:geometricPrecision; text-rendering:geometricPrecision; image-rendering:optimizeQuality; fill-rule:evenodd; clip-rule:evenodd"
viewBox="0 0 5079.98 846.66"
 xmlns:xlink="http://www.w3.org/1999/xlink"
 xmlns:xodm="http://www.corel.com/coreldraw/odm/2003">
 <defs>
  <style type="text/css">
   <![CDATA[
    .fil0 {fill:#FF83EF}
    .fil1 {fill:#FF83EF;fill-rule:nonzero}
   ]]>
  </style>
 </defs>
 <g id="Capa_x0020_1">
  <metadata id="CorelCorpID_0Corel-Layer"/>
  <g id="_1320500713264">
   <g>
    <path class="fil0" d="M1078.4 722.3c0.81,6.15 2.08,5.91 2.88,-0.08 20.73,-240.24 6.38,-287.64 227.81,-303.72 10.6,-0.73 11.64,-8.41 2.02,-9.49 -228.6,-15.7 -195.59,-43.43 -226.62,-228.21 -2.28,-12.95 -7.01,-13.51 -9.24,-0.88 -31.03,184.78 1.98,212.52 -226.62,228.21 -14.07,1.01 -13.39,10.29 -0.02,11.47 230.25,14.36 204.35,56.56 229.79,302.7zm-195.58 12.99c0.4,3.08 1.04,2.96 1.44,-0.04 10.39,-120.36 3.2,-144.1 114.12,-152.16 5.32,-0.36 5.84,-4.21 1.02,-4.75 -114.53,-7.86 -97.99,-21.76 -113.53,-114.33 -1.14,-6.48 -3.51,-6.77 -4.63,-0.44 -15.55,92.57 0.99,106.47 -113.53,114.33 -7.05,0.51 -6.71,5.15 -0.01,5.75 115.35,7.19 102.37,28.33 115.12,151.64zm-63.83 -354.84c0.4,3.08 1.04,2.96 1.44,-0.04 10.39,-120.36 3.2,-144.1 114.13,-152.16 5.31,-0.36 5.83,-4.21 1.01,-4.75 -114.52,-7.86 -97.98,-21.76 -113.53,-114.33 -1.14,-6.48 -3.51,-6.77 -4.63,-0.44 -15.54,92.57 0.99,106.47 -113.53,114.33 -7.05,0.51 -6.71,5.15 -0.01,5.75 115.35,7.19 102.37,28.33 115.12,151.64z"/>
    <path class="fil0" d="M1548.94 620.96l485.1 0 -244.59 -398.39 -240.51 398.39zm118.79 -143.17l245.9 0 70.89 115.46 -386.49 0 69.7 -115.46zm228.89 -27.7l-212.16 0 105.19 -174.24 106.97 174.24z"/>
    <path class="fil1" d="M3136.05 554.13c-17.7,-30.66 -6.52,-72.87 25.86,-116.33 3.44,-4.61 7.13,-9.26 11.05,-13.91 -3.92,-4.66 -7.61,-9.3 -11.05,-13.91 -32.38,-43.46 -43.56,-85.67 -25.86,-116.33 17.7,-30.66 59.84,-42.08 113.65,-35.76 5.71,0.67 11.57,1.54 17.55,2.61 2.07,-5.71 4.24,-11.2 6.51,-16.47 21.46,-49.81 52.43,-80.62 87.84,-80.62 35.41,0 66.38,30.81 87.84,80.62 2.27,5.27 4.44,10.76 6.5,16.47 5.99,-1.07 11.85,-1.94 17.56,-2.61 53.81,-6.32 95.95,5.1 113.65,35.76 17.7,30.66 6.52,72.87 -25.86,116.33 -3.44,4.61 -7.13,9.25 -11.05,13.91 3.92,4.66 7.61,9.3 11.05,13.91 32.38,43.46 43.56,85.67 25.86,116.33 -17.7,30.66 -59.84,42.08 -113.65,35.76 -5.71,-0.67 -11.57,-1.54 -17.55,-2.61 -2.07,5.71 -4.24,11.2 -6.51,16.47 -21.46,49.81 -52.43,80.62 -87.84,80.62 -35.41,0 -66.38,-30.81 -87.84,-80.62 -2.27,-5.27 -4.44,-10.77 -6.51,-16.47 -5.98,1.07 -11.84,1.94 -17.55,2.61 -53.81,6.32 -95.95,-5.1 -113.65,-35.76zm55.71 -150.82c15.5,-15.75 33.51,-31.41 53.63,-46.43 2.95,-24.97 7.52,-48.44 13.42,-69.77 -4.16,-0.69 -8.25,-1.27 -12.25,-1.74 -42.71,-5.01 -74.95,1.97 -86.59,22.13 -11.64,20.15 -1.56,51.55 24.13,86.03 2.42,3.24 4.97,6.5 7.66,9.78zm339.68 41.16c-15.5,15.75 -33.52,31.41 -53.63,46.43 -2.95,24.97 -7.52,48.44 -13.42,69.77 4.16,0.68 8.24,1.26 12.25,1.73 42.71,5.02 74.95,-1.96 86.59,-22.12 11.64,-20.15 1.56,-51.55 -24.13,-86.03 -2.42,-3.24 -4.97,-6.5 -7.66,-9.78zm-102.78 136.81c-21.4,-5.56 -43.98,-13.34 -67.06,-23.26 -23.08,9.92 -45.66,17.7 -67.06,23.26 1.5,3.97 3.05,7.82 4.65,11.54 16.99,39.45 39.14,63.85 62.41,63.85 23.27,0 45.42,-24.4 62.41,-63.85 1.6,-3.72 3.15,-7.57 4.65,-11.54zm-101.17 -39.33c-8.61,-4.41 -17.25,-9.11 -25.88,-14.09l-0.05 -0.03 -0.01 0.02c-8.61,-4.97 -16.98,-10.09 -25.1,-15.33 2.56,14.97 5.75,29.18 9.49,42.45 13.38,-3.4 27.29,-7.74 41.55,-13.02zm-82.1 -51.02c-20.11,-15.02 -38.13,-30.69 -53.64,-46.45 -2.68,3.27 -5.23,6.53 -7.65,9.77 -25.69,34.48 -35.77,65.88 -24.13,86.03 11.64,20.16 43.88,27.14 86.59,22.12 4,-0.47 8.09,-1.05 12.25,-1.73 -5.9,-21.33 -10.46,-44.78 -13.42,-69.74zm49.15 -224.43c21.4,5.56 43.98,13.34 67.06,23.26 23.08,-9.92 45.66,-17.7 67.06,-23.26 -1.5,-3.97 -3.05,-7.82 -4.65,-11.54 -16.99,-39.45 -39.14,-63.85 -62.41,-63.85 -23.27,0 -45.42,24.4 -62.41,63.85 -1.6,3.72 -3.15,7.57 -4.65,11.54zm101.17 39.32c8.61,4.42 17.25,9.12 25.88,14.1l0.05 0.02 0.01 -0.02c8.61,4.97 16.98,10.1 25.09,15.34 -2.55,-14.97 -5.74,-29.18 -9.48,-42.45 -13.38,3.4 -27.3,7.74 -41.55,13.01zm82.1 51.03c20.11,15.02 38.13,30.69 53.64,46.45 2.68,-3.27 5.23,-6.53 7.65,-9.77 25.69,-34.48 35.77,-65.88 24.13,-86.03 -11.64,-20.16 -43.88,-27.14 -86.59,-22.13 -4.01,0.47 -8.09,1.05 -12.25,1.74 5.9,21.32 10.46,44.78 13.42,69.74zm35.17 67.04c-9.62,-9.87 -20.33,-19.74 -32.02,-29.44 0.48,9.66 0.73,19.49 0.73,29.44 0,9.96 -0.25,19.79 -0.73,29.46 11.68,-9.7 22.4,-19.57 32.02,-29.46zm-61.41 -51.99c-13.68,-9.72 -28.31,-19.13 -43.77,-28.06 -0.04,-0.02 -0.18,-0.1 -0.17,-0.12 -15.4,-8.89 -30.82,-16.82 -46.03,-23.78 -15.21,6.96 -30.63,14.89 -46.04,23.78 0.02,0.03 -0.17,0.1 -0.21,0.12 -15.44,8.91 -30.06,18.31 -43.72,28.03 -1.58,16.73 -2.42,34.14 -2.42,52.02 0,17.87 0.83,35.27 2.42,51.99 13.67,9.72 28.31,19.13 43.77,28.06 0.04,0.02 0.18,0.09 0.16,0.12 15.41,8.89 30.83,16.82 46.04,23.78 15.21,-6.96 30.63,-14.89 46.03,-23.78 -0.01,-0.03 0.18,-0.1 0.22,-0.12 15.44,-8.92 30.06,-18.32 43.72,-28.03 1.58,-16.73 2.42,-34.14 2.42,-52.02 0,-17.87 -0.84,-35.27 -2.42,-51.99zm-124.08 -66.08c-14.25,-5.27 -28.17,-9.61 -41.55,-13.01 -3.74,13.28 -6.93,27.5 -9.49,42.49 8.07,-5.22 16.39,-10.31 24.94,-15.25 -0.02,-0.04 0.18,-0.11 0.22,-0.13 8.63,-4.98 17.27,-9.68 25.88,-14.1zm-117.27 118.07c9.62,9.87 20.33,19.74 32.02,29.44 -0.49,-9.66 -0.74,-19.49 -0.74,-29.44 0,-9.96 0.26,-19.79 0.74,-29.46 -11.69,9.7 -22.4,19.57 -32.02,29.46zm185.49 118.06c14.25,5.28 28.17,9.62 41.55,13.02 3.74,-13.28 6.93,-27.5 9.49,-42.49 -8.07,5.22 -16.39,10.31 -24.95,15.25 0.02,0.04 -0.17,0.11 -0.21,0.13 -8.63,4.98 -17.27,9.68 -25.88,14.09z"/>
    <path class="fil1" d="M4121.05 438.88c5.5,-5.29 14.24,-5.12 19.53,0.38 5.29,5.5 5.12,14.24 -0.38,19.53 -2.49,2.41 -4.98,4.82 -8.1,7.02 -3.91,2.76 -8.32,4.86 -13.72,5.63 -5.19,0.73 -10.95,0.03 -16.3,-1.98 -4.93,-1.86 -9.69,-4.91 -13.49,-9.08 -3.76,-4.11 -6.4,-9.06 -7.98,-14.41 -1.54,-5.2 -2.1,-10.84 -1.75,-16.44 0.33,-5.3 1.52,-10.7 3.51,-15.87 1.96,-5.09 4.67,-9.88 8.07,-14.06 3.51,-4.32 7.69,-7.98 12.5,-10.98 4.58,-2.86 9.8,-5.13 15.63,-6.83 5.71,-1.66 12.02,-2.73 18.43,-3.03 6.07,-0.27 12.26,0.14 18.17,1.4 6.47,1.37 12.57,3.7 18.17,6.97 5.44,3.18 10.49,7.32 15.04,12.41 4.44,4.97 8.26,10.72 11.39,17.19 3.02,6.24 5.43,13.15 7.18,20.66 1.79,7.66 2.91,16.18 3.1,24.87 0.17,8.12 -0.47,16.23 -2.13,23.79 -1.79,8.11 -4.77,15.78 -8.78,22.85 -4.07,7.15 -9.16,13.59 -15.12,19.15 -5.79,5.4 -12.33,9.95 -19.39,13.62 -7.09,3.69 -14.87,6.56 -23.06,8.56 -7.88,1.94 -16.12,3.02 -24.5,3.2 -8.29,0.19 -16.59,-0.49 -24.67,-2.07 -8.53,-1.67 -17.04,-4.38 -25.32,-8.34 -7.7,-3.68 -15.04,-8.39 -21.8,-14.27 -6.88,-5.98 -13.16,-13.14 -18.62,-21.04 -5.54,-8.03 -10.26,-16.78 -13.91,-25.79 -3.54,-8.73 -6.14,-17.91 -7.83,-27.29 -1.71,-9.46 -2.43,-19.01 -2.19,-28.43 0.23,-9.45 1.4,-18.71 3.49,-27.71 2.09,-9.02 5.13,-17.91 9.12,-26.65 4.11,-8.99 9.25,-17.82 15.55,-26.11 5.88,-7.75 12.69,-14.95 20.5,-21.28 8.03,-6.52 17.06,-12.14 26.58,-16.72 9.86,-4.75 20.23,-8.43 30.52,-10.88 9.99,-2.39 20.17,-3.65 30.39,-3.85 10.23,-0.2 20.34,0.74 30.19,2.74 9.84,2 19.41,5.07 28.46,9.15l0.06 0c8.98,4.04 17.49,9.08 25.31,15.08 7.69,5.89 14.63,12.64 20.88,20.09 6.47,7.72 12.23,16.21 17.32,25.28 4.94,8.8 9.3,18.23 12.88,28.35 3.55,10 6.33,20.73 8.17,32.25 1.77,11.13 2.61,22.95 2.59,34.86 -0.02,12.33 -0.92,24.58 -2.65,36.14 -1.73,11.65 -4.32,22.91 -7.95,33.77 -3.63,10.9 -8.31,21.28 -14.2,31.1 -5.91,9.85 -13.02,19.1 -21.02,27.46 -8.03,8.38 -16.98,15.89 -26.57,22.24 -9.52,6.31 -19.68,11.49 -30.34,15.53 -10.78,4.1 -21.99,7.01 -33.44,8.74 -10.66,1.61 -21.75,2.18 -32.84,1.94 -11.99,-0.26 -23.67,-1.47 -34.59,-3.36 -10.51,-1.83 -20.65,-4.35 -30.43,-7.6 -9.84,-3.26 -19.03,-7.17 -27.57,-11.76 -8.66,-4.64 -16.84,-10.06 -24.71,-16.54 -7.78,-6.41 -15.14,-13.8 -22.25,-22.44 -7.19,-8.76 -14.16,-18.91 -20.42,-30 -5.94,-10.52 -11.15,-21.68 -15.22,-33.06 -4.02,-11.27 -7.06,-23.12 -9.27,-35.2 -2.38,-12.96 -3.75,-26.04 -4.33,-38.85 -0.55,-12.22 -0.37,-24.3 0.73,-36.24 1.12,-12.09 3.18,-23.9 6.39,-35.4 3.12,-11.18 7.34,-22.1 12.37,-32.56 5.38,-11.2 11.56,-21.69 18.21,-31.24 6.38,-9.16 13.47,-17.82 21.09,-26.05 7.51,-8.11 15.26,-15.49 23.16,-22.3 7.99,-6.89 16.38,-13.4 25.46,-19.27 9.22,-5.96 18.9,-11.07 29.25,-15 10.37,-3.93 21.42,-6.7 32.87,-8.57 11.15,-1.82 22.74,-2.77 34.46,-3.09 11.67,-0.32 23.47,-0.02 35.18,1.14 11.85,1.18 23.7,3.25 35.35,6.46 11.52,3.17 22.67,7.37 32.93,12.24 10.75,5.1 20.79,11.05 29.51,17.41 8.64,6.31 15.74,12.82 22.11,19.49 6,6.28 11.57,12.98 17.24,19.81 5.45,6.57 11,13.26 16.53,20.54 5.66,7.44 11.03,15.13 15.74,23.22 4.87,8.37 9.12,17.19 12.73,26.68 3.62,9.49 6.63,19.68 9.05,30.79 2.29,10.58 4.06,22.24 5.27,34.23 1.26,12.39 1.89,24.74 1.89,36.27 0,11.25 -0.59,22.19 -1.72,32.77 -1.15,10.85 -2.87,21.1 -5.08,30.73 -2.19,9.55 -4.87,18.5 -8.2,27.3 -3.34,8.82 -7.3,17.4 -12.04,26.16 -9.31,17.19 -21.51,34.95 -33.7,52.71l-0.16 0.21c-4.43,6.23 -13.05,7.68 -19.27,3.26 -6.15,-4.38 -7.63,-12.85 -3.4,-19.05l-0.01 -0.01c11.8,-17.18 23.61,-34.36 32.19,-50.22 4.2,-7.75 7.66,-15.23 10.53,-22.8 2.88,-7.6 5.2,-15.39 7.11,-23.73 1.98,-8.59 3.51,-17.76 4.54,-27.48 0.99,-9.25 1.51,-19.2 1.51,-29.85 0,-11.16 -0.57,-22.59 -1.68,-33.57 -1.07,-10.6 -2.69,-21.17 -4.84,-31.08 -2.11,-9.73 -4.73,-18.59 -7.85,-26.79 -3.12,-8.19 -6.72,-15.69 -10.79,-22.68 -4.24,-7.28 -8.92,-14.01 -13.78,-20.4 -4.99,-6.56 -10.43,-13.12 -15.78,-19.57 -5.15,-6.2 -10.22,-12.3 -16.05,-18.4 -5.46,-5.72 -11.38,-11.18 -18.32,-16.24 -7.19,-5.24 -15.71,-10.27 -25.08,-14.71 -9.05,-4.3 -18.67,-7.95 -28.38,-10.62 -10.02,-2.75 -20.35,-4.55 -30.8,-5.59 -10.58,-1.05 -21.22,-1.33 -31.72,-1.04 -10.45,0.29 -20.8,1.14 -30.78,2.77 -9.67,1.58 -18.95,3.9 -27.57,7.16 -8.62,3.28 -16.57,7.46 -24.05,12.3 -7.62,4.93 -15.03,10.71 -22.33,17 -7.39,6.37 -14.45,13.06 -20.99,20.13 -6.44,6.96 -12.67,14.62 -18.6,23.13 -6.05,8.68 -11.5,17.88 -16.05,27.35 -4.32,8.98 -7.94,18.37 -10.63,28.01 -2.79,9.97 -4.57,20.15 -5.53,30.53 -0.98,10.54 -1.12,21.41 -0.62,32.56 0.52,11.62 1.75,23.43 3.89,35.06 1.9,10.38 4.58,20.75 8.19,30.87 3.68,10.31 8.18,20.02 13.16,28.84 5.39,9.55 11.44,18.35 17.72,25.99 5.95,7.25 12.06,13.39 18.46,18.66 6.32,5.2 13.04,9.63 20.27,13.51 7.34,3.94 15.05,7.24 23.14,9.92 8.14,2.7 16.95,4.87 26.43,6.51 9.93,1.73 20.25,2.83 30.48,3.05 9.3,0.2 18.8,-0.32 28.18,-1.73 9.65,-1.46 18.97,-3.86 27.81,-7.22 8.69,-3.3 17.01,-7.54 24.82,-12.72 7.91,-5.24 15.29,-11.43 21.91,-18.34 6.6,-6.89 12.43,-14.46 17.24,-22.48 4.84,-8.07 8.7,-16.64 11.71,-25.69 3.03,-9.08 5.24,-18.77 6.76,-29.01 1.59,-10.62 2.42,-21.52 2.44,-32.14 0.01,-10.44 -0.73,-20.79 -2.28,-30.53 -1.53,-9.64 -3.91,-18.76 -6.97,-27.38 -3.01,-8.51 -6.71,-16.51 -10.93,-24.02 -4.28,-7.63 -9.07,-14.71 -14.4,-21.06 -5,-5.96 -10.47,-11.3 -16.44,-15.88 -6.1,-4.67 -12.79,-8.63 -19.91,-11.83l0.01 -0.02c-7.23,-3.24 -14.85,-5.69 -22.68,-7.29 -7.9,-1.6 -16.02,-2.35 -24.24,-2.19 -7.9,0.15 -16.08,1.2 -24.44,3.19 -8.52,2.04 -16.98,5.02 -24.88,8.83 -7.7,3.71 -14.91,8.17 -21.18,13.26 -6.13,4.98 -11.43,10.56 -15.95,16.51 -4.96,6.54 -9.08,13.62 -12.41,20.92 -3.16,6.93 -5.59,14.05 -7.28,21.35 -1.71,7.36 -2.66,14.77 -2.85,22.19 -0.19,7.61 0.39,15.32 1.76,22.91 1.31,7.28 3.41,14.6 6.32,21.77 2.96,7.3 6.68,14.25 10.99,20.49 4.17,6.03 8.88,11.43 13.96,15.84 4.91,4.27 10.17,7.65 15.64,10.27 5.88,2.81 12.19,4.79 18.71,6.07 6.34,1.24 12.67,1.77 18.83,1.64 6.28,-0.14 12.52,-0.97 18.55,-2.45 5.82,-1.42 11.48,-3.53 16.78,-6.29 4.97,-2.58 9.47,-5.68 13.33,-9.29 3.93,-3.66 7.27,-7.88 9.92,-12.55 2.58,-4.54 4.53,-9.63 5.75,-15.17 1.24,-5.6 1.71,-11.49 1.59,-17.28 -0.14,-6.49 -1.03,-13.05 -2.44,-19.14 -1.31,-5.59 -3.03,-10.58 -5.13,-14.92 -2.05,-4.24 -4.42,-7.85 -7.07,-10.82 -2.45,-2.75 -5.29,-5.04 -8.43,-6.88 -3.1,-1.81 -6.44,-3.1 -9.94,-3.84 -3.63,-0.77 -7.47,-1.02 -11.25,-0.85 -4.19,0.19 -8.27,0.89 -11.93,1.95 -3.26,0.94 -6.17,2.21 -8.71,3.8 -2.26,1.41 -4.17,3.05 -5.68,4.92 -1.59,1.95 -2.85,4.16 -3.74,6.48 -0.94,2.44 -1.51,5.07 -1.67,7.75 -0.16,2.48 0.06,4.85 0.66,6.91 0.45,1.52 1.06,2.77 1.81,3.6 0.71,0.77 1.73,1.39 2.89,1.82 1.07,0.41 2.05,0.57 2.77,0.47 0.36,-0.05 0.92,-0.39 1.6,-0.86 1.46,-1.04 3.16,-2.68 4.86,-4.32z"/>
    <path class="fil1" d="M2597.02 423.66c5.85,5.79 12.02,11.79 17.89,17.37 6.95,6.6 14.3,13.42 21.51,19.85 7.47,6.67 14.33,12.48 21.02,17.73 6.72,5.29 13.22,10.01 19.91,14.46 7.01,4.65 14.33,9.08 21.66,13.03 6.87,3.69 13.61,6.91 19.95,9.43 6.55,2.6 12.88,4.56 19.07,5.93 6.07,1.34 12.07,2.13 18.07,2.4 6.01,0.27 12.07,0 18.12,-0.92 5.55,-0.85 10.93,-2.23 16.05,-4.22 5.32,-2.07 10.56,-4.87 15.59,-8.32 5.06,-3.45 9.85,-7.53 14.22,-12.15 4.4,-4.64 8.39,-9.81 11.89,-15.35 3.55,-5.62 6.6,-11.64 9.06,-17.88 2.46,-6.23 4.3,-12.51 5.56,-18.75 1.33,-6.6 2.08,-13.29 2.28,-19.94 0.19,-6.49 -0.17,-12.99 -1.09,-19.47 -0.88,-6.2 -2.32,-12.36 -4.33,-18.44 -2.06,-6.27 -4.68,-12.29 -7.84,-17.87 -3,-5.32 -6.57,-10.39 -10.71,-15.05l0 -0.05c-4.06,-4.56 -8.7,-8.74 -13.74,-12.49 -5.42,-4.04 -11.28,-7.58 -17.37,-10.59 -5.91,-2.93 -12.04,-5.36 -18.17,-7.21 -6.04,-1.82 -11.96,-3.05 -17.54,-3.63 -5.57,-0.57 -10.94,-0.51 -16.13,0.03 -5.12,0.53 -10.21,1.59 -15.23,3.03 -5.15,1.48 -10.04,3.29 -14.74,5.35 -4.8,2.11 -9.66,4.58 -14.6,7.3 -5.1,2.81 -9.96,5.68 -14.56,8.71 -4.67,3.09 -9.52,6.61 -14.67,10.76 -5.01,4.04 -10.29,8.71 -15.78,13.77 -5.81,5.36 -11.4,10.73 -17.1,16.22l-19.69 18.97 0 0.05 -18.56 17.94zm-1.16 37.39c-6.95,-6.61 -13.33,-12.79 -18.79,-18.17 -4.24,4.06 -8.57,8.2 -12.89,12.3 -10.58,10.05 -21.13,19.92 -30.27,28.16 -9.35,8.44 -17.84,15.72 -26.4,22.4 -8.6,6.72 -16.8,12.46 -25.43,17.68 -8.65,5.24 -18.13,10.17 -27.9,14.51 -9.46,4.2 -18.92,7.68 -27.85,10.16 -9.44,2.62 -18.44,4.21 -27.3,4.72 -9.04,0.52 -17.84,-0.07 -26.67,-1.82 -8.89,-1.75 -17.88,-4.69 -26.4,-8.62 -8.3,-3.84 -16.23,-8.69 -23.26,-14.39 -6.83,-5.53 -12.72,-11.82 -17.78,-18.63 -5.39,-7.25 -9.82,-15.08 -13.43,-23.19 -3.47,-7.8 -6.17,-15.77 -8.2,-23.85 -2,-7.98 -3.39,-16.24 -4.26,-24.71 -0.87,-8.48 -1.21,-17.13 -0.65,-25.84 0.58,-8.99 2.1,-18.07 4.92,-27.13 2.77,-8.87 6.73,-17.61 11.47,-25.74 4.9,-8.4 10.74,-16.31 17.04,-23.17 6.13,-6.68 12.7,-12.32 19.38,-17.09 6.58,-4.71 13.2,-8.52 19.58,-11.66 6.43,-3.16 12.69,-5.68 19.05,-7.64 6.32,-1.95 12.72,-3.34 19.45,-4.24 6.85,-0.93 14.06,-1.33 21.4,-1.09 6.98,0.22 13.97,1.01 20.78,2.47 6.7,1.43 13.38,3.54 19.95,6.15 7.16,2.86 13.87,6.15 20.06,9.69 5.83,3.33 11.52,7.06 17.11,11.02 5.37,3.82 10.47,7.76 15.42,11.72 4.79,3.84 9.57,7.82 14.44,12.02 4.36,3.75 9.09,7.98 14.25,12.7 5.35,4.89 10.26,9.49 14.58,13.66 4.78,4.6 9.54,9.3 14.13,13.95 3.73,3.78 7.12,7.3 10.73,11.04l5.44 5.63 18.86 -18.24 0.03 0.03c14.8,-14.32 11.51,-11.2 19.67,-19.06 6.12,-5.9 12.07,-11.61 17.53,-16.65 5.78,-5.33 11.49,-10.37 17.19,-14.96 5.57,-4.49 11.16,-8.53 16.83,-12.27 5.75,-3.79 11.16,-7.02 16.4,-9.9 5.41,-2.98 10.98,-5.8 16.87,-8.38 5.98,-2.62 12.03,-4.88 18.2,-6.65 6.31,-1.81 12.95,-3.17 20,-3.9 6.97,-0.73 14.22,-0.8 21.75,-0.02 7.47,0.77 15.1,2.33 22.63,4.6 7.54,2.27 15.13,5.28 22.5,8.93 7.51,3.72 14.79,8.13 21.59,13.19 6.48,4.83 12.54,10.29 17.93,16.36l0.03 -0.02c5.37,6.05 10.06,12.72 14.07,19.8 4.18,7.4 7.55,15.08 10.11,22.85 2.49,7.52 4.28,15.28 5.41,23.2 1.12,7.86 1.54,15.92 1.3,24.12 -0.24,8.17 -1.16,16.42 -2.81,24.61 -1.63,8.05 -3.91,15.91 -6.86,23.4 -3.08,7.8 -6.93,15.39 -11.44,22.53 -4.48,7.09 -9.6,13.72 -15.25,19.68 -5.73,6.04 -12,11.39 -18.65,15.94 -6.68,4.56 -13.81,8.35 -21.22,11.23 -7.24,2.82 -14.56,4.73 -21.9,5.85 -7.64,1.16 -15.49,1.49 -23.42,1.14 -7.52,-0.34 -15.09,-1.34 -22.83,-3.05 -7.61,-1.69 -15.34,-4.08 -23.3,-7.24 -7.66,-3.04 -15.36,-6.69 -22.87,-10.73 -8.08,-4.35 -16.13,-9.22 -23.82,-14.32 -7.51,-4.99 -14.61,-10.13 -21.75,-15.75 -7.19,-5.66 -14.47,-11.82 -22.31,-18.81 -6.83,-6.09 -14.49,-13.21 -22.17,-20.51zm-50.73 -25.89c4.25,-4.03 8.45,-8.04 12.52,-11.94l-5.44 -5.64c-3.68,-3.81 -7.13,-7.39 -10.52,-10.83 -4.32,-4.38 -8.9,-8.9 -13.58,-13.41 -5.2,-5 -9.93,-9.46 -14.04,-13.23 -4.27,-3.91 -8.79,-7.92 -13.71,-12.16 -4.4,-3.79 -8.93,-7.55 -13.69,-11.37 -4.61,-3.69 -9.3,-7.32 -14.12,-10.74 -4.61,-3.27 -9.52,-6.47 -14.83,-9.5 -5.46,-3.12 -11.01,-5.89 -16.5,-8.07 -4.97,-1.98 -10.16,-3.61 -15.5,-4.75 -5.36,-1.14 -10.7,-1.76 -15.91,-1.93 -5.73,-0.18 -11.41,0.14 -16.86,0.87l-0.05 0c-5.13,0.69 -10.04,1.75 -14.96,3.27 -4.89,1.51 -9.8,3.49 -14.94,6.03 -5.2,2.55 -10.55,5.63 -15.79,9.38 -5.14,3.67 -10.23,8.05 -15.06,13.3 -4.88,5.32 -9.49,11.6 -13.46,18.41 -3.78,6.47 -6.88,13.27 -8.98,20 -2.14,6.86 -3.29,13.77 -3.73,20.64 -0.46,7.17 -0.18,14.29 0.54,21.3 0.72,7.02 1.9,13.98 3.61,20.81 1.69,6.74 3.86,13.2 6.58,19.3 2.82,6.35 6.26,12.43 10.4,18 3.72,5 8.03,9.62 13.01,13.65 5.14,4.17 11.08,7.78 17.42,10.71 6.49,3 13.34,5.23 20.12,6.57 6.65,1.32 13.2,1.77 19.86,1.38 6.85,-0.39 13.92,-1.65 21.45,-3.74 7.82,-2.17 15.98,-5.17 24.06,-8.76 8.2,-3.64 16.62,-8.06 24.77,-12.99 7.96,-4.82 15.28,-9.92 22.72,-15.73 7.49,-5.85 15.57,-12.81 24.89,-21.21 9.54,-8.61 19.78,-18.17 29.72,-27.62z"/>
   </g>
   <path class="fil1" d="M339.59 42.86l4386.54 0c71.28,0 136.07,29.15 183.04,76.11 46.96,46.97 76.11,111.76 76.11,183.04l0 243.7c0,71.28 -29.15,136.07 -76.11,183.04 -46.97,46.96 -111.76,76.11 -183.04,76.11l-4386.54 0c-71.28,0 -136.07,-29.15 -183.04,-76.11 -46.96,-46.97 -76.11,-111.76 -76.11,-183.04l0 -243.7c0,-71.28 29.15,-136.07 76.11,-183.04 46.97,-46.96 111.76,-76.11 183.04,-76.11zm4386.54 30.91l-4386.54 0c-62.75,0 -119.81,25.68 -161.18,67.06 -41.38,41.37 -67.06,98.43 -67.06,161.18l0 243.7c0,62.75 25.68,119.81 67.06,161.18 41.37,41.38 98.43,67.06 161.18,67.06l4386.54 0c62.75,0 119.81,-25.68 161.18,-67.06 41.38,-41.37 67.06,-98.43 67.06,-161.18l0 -243.7c0,-62.75 -25.68,-119.81 -67.06,-161.18 -41.37,-41.38 -98.43,-67.06 -161.18,-67.06z"/>
  </g>
 </g>
</svg>
