<?xml version="1.0" encoding="UTF-8"?>
<!DOCTYPE svg PUBLIC "-//W3C//DTD SVG 1.1//EN" "http://www.w3.org/Graphics/SVG/1.1/DTD/svg11.dtd">
<!-- Creator: CorelDRAW -->
<svg xmlns="http://www.w3.org/2000/svg" xml:space="preserve" width="8.4666mm" height="8.4666mm" version="1.1" style="shape-rendering:geometricPrecision; text-rendering:geometricPrecision; image-rendering:optimizeQuality; fill-rule:evenodd; clip-rule:evenodd"
viewBox="0 0 846.66 846.66"
 xmlns:xlink="http://www.w3.org/1999/xlink"
 xmlns:xodm="http://www.corel.com/coreldraw/odm/2003">
 <defs>
  <style type="text/css">
   <![CDATA[
    .fil0 {fill:#FFA2F3;fill-rule:nonzero}
   ]]>
  </style>
 </defs>
 <g id="Capa_x0020_1">
  <metadata id="CorelCorpID_0Corel-Layer"/>
  <path class="fil0" d="M84.66 211.69l677.24 0c23.41,0 42.32,-18.91 42.32,-42.33 0,-23.41 -18.91,-42.32 -42.32,-42.32l-677.24 0c-23.41,0 -42.32,18.91 -42.32,42.32 0,23.42 18.91,42.33 42.32,42.33zm-29.89 181.75c-16.53,16.53 -16.53,43.38 0,59.92 16.53,16.53 43.38,16.53 59.92,0l54.63 -54.77 0 278.71c0,23.41 18.91,42.32 42.32,42.32 23.42,0 42.33,-18.91 42.33,-42.32l0 -278.71 54.76 54.77c16.54,16.53 43.39,16.53 59.92,0 16.54,-16.54 16.54,-43.39 0,-59.92l-126.98 -126.99c-16.53,-16.53 -43.38,-16.53 -59.92,0l-126.98 126.99 0 0zm423.27 59.92c16.54,16.53 43.39,16.53 59.92,0l54.63 -54.77 0 278.71c0,23.41 18.91,42.32 42.33,42.32 23.41,0 42.32,-18.91 42.32,-42.32l0 -278.71 54.76 54.77c16.54,16.53 43.39,16.53 59.92,0 16.54,-16.54 16.54,-43.39 0,-59.92l-126.98 -126.99c-16.53,-16.53 -43.38,-16.53 -59.92,0l-126.98 126.99c-16.53,16.53 -16.53,43.38 0,59.92l0 0z"/>
 </g>
</svg>
