<?xml version="1.0" encoding="UTF-8"?>
<!DOCTYPE svg PUBLIC "-//W3C//DTD SVG 1.1//EN" "http://www.w3.org/Graphics/SVG/1.1/DTD/svg11.dtd">
<!-- Creator: CorelDRAW -->
<svg xmlns="http://www.w3.org/2000/svg" xml:space="preserve" width="8.4666mm" height="8.4666mm" version="1.1" style="shape-rendering:geometricPrecision; text-rendering:geometricPrecision; image-rendering:optimizeQuality; fill-rule:evenodd; clip-rule:evenodd"
viewBox="0 0 846.66 846.66"
 xmlns:xlink="http://www.w3.org/1999/xlink"
 xmlns:xodm="http://www.corel.com/coreldraw/odm/2003">
 <defs>
  <style type="text/css">
   <![CDATA[
    .fil0 {fill:#FC69F8;fill-rule:nonzero}
   ]]>
  </style>
 </defs>
 <g id="Capa_x0020_1">
  <metadata id="CorelCorpID_0Corel-Layer"/>
  <path class="fil0" d="M380.69 450.24c9.57,-9.21 24.79,-8.91 34,0.66 9.2,9.57 8.91,24.79 -0.66,34 -4.33,4.18 -8.67,8.37 -14.11,12.21 -6.8,4.81 -14.47,8.46 -23.87,9.79 -9.03,1.28 -19.06,0.06 -28.37,-3.44 -8.57,-3.23 -16.85,-8.55 -23.48,-15.8 -6.54,-7.16 -11.14,-15.77 -13.89,-25.09 -2.67,-9.05 -3.66,-18.86 -3.04,-28.61 0.58,-9.21 2.65,-18.61 6.11,-27.61 3.41,-8.86 8.13,-17.2 14.04,-24.47 6.12,-7.52 13.4,-13.89 21.76,-19.11 7.97,-4.97 17.06,-8.94 27.2,-11.88 9.95,-2.89 20.93,-4.77 32.07,-5.28 10.57,-0.48 21.35,0.24 31.64,2.42 11.25,2.4 21.86,6.46 31.61,12.15 9.47,5.53 18.26,12.73 26.17,21.58 7.73,8.66 14.38,18.67 19.83,29.93 5.25,10.87 9.45,22.89 12.5,35.96 3.11,13.33 5.06,28.15 5.38,43.29 0.31,14.11 -0.8,28.23 -3.7,41.38 -3.11,14.12 -8.3,27.47 -15.28,39.78 -7.07,12.45 -15.94,23.65 -26.31,33.33 -10.08,9.4 -21.47,17.32 -33.74,23.7 -12.34,6.43 -25.88,11.41 -40.14,14.91 -13.71,3.36 -28.05,5.24 -42.63,5.57 -14.44,0.32 -28.89,-0.86 -42.95,-3.61 -14.84,-2.91 -29.65,-7.63 -44.06,-14.52 -13.4,-6.41 -26.18,-14.6 -37.95,-24.83 -11.97,-10.41 -22.89,-22.88 -32.39,-36.62 -9.66,-13.98 -17.86,-29.21 -24.21,-44.88 -6.16,-15.2 -10.69,-31.17 -13.64,-47.5 -2.96,-16.46 -4.22,-33.09 -3.81,-49.48 0.41,-16.45 2.44,-32.55 6.08,-48.23 3.64,-15.69 8.93,-31.17 15.87,-46.37 7.15,-15.66 16.11,-31.03 27.07,-45.46 10.23,-13.47 22.08,-26 35.67,-37.03 13.97,-11.34 29.7,-21.12 46.27,-29.1 17.16,-8.26 35.19,-14.66 53.1,-18.94 17.4,-4.15 35.11,-6.35 52.9,-6.69 17.81,-0.34 35.4,1.28 52.53,4.77 17.13,3.49 33.79,8.83 49.55,15.92l0.09 0c15.63,7.03 30.45,15.81 44.06,26.24 13.37,10.26 25.45,22 36.33,34.97 11.27,13.44 21.29,28.21 30.16,44 8.59,15.31 16.17,31.72 22.41,49.34 6.17,17.4 11.02,36.07 14.21,56.12 3.08,19.38 4.55,39.95 4.52,60.68 -0.04,21.46 -1.62,42.78 -4.61,62.9 -3.02,20.27 -7.53,39.86 -13.84,58.78 -6.33,18.96 -14.46,37.02 -24.72,54.12 -10.29,17.14 -22.65,33.24 -36.59,47.79 -13.97,14.58 -29.55,27.65 -46.23,38.7 -16.57,10.98 -34.26,20 -52.8,27.04 -18.78,7.13 -38.27,12.19 -58.2,15.2 -18.56,2.79 -37.85,3.8 -57.16,3.38 -20.87,-0.45 -41.2,-2.56 -60.2,-5.86 -18.3,-3.17 -35.95,-7.57 -52.96,-13.21 -17.12,-5.68 -33.11,-12.49 -47.99,-20.47 -15.07,-8.08 -29.3,-17.51 -43,-28.79 -13.54,-11.15 -26.36,-24.01 -38.72,-39.06 -12.52,-15.25 -24.65,-32.9 -35.55,-52.21 -10.33,-18.31 -19.41,-37.72 -26.47,-57.53 -7.01,-19.62 -12.29,-40.24 -16.15,-61.26 -4.14,-22.56 -6.52,-45.33 -7.52,-67.63 -0.96,-21.26 -0.66,-42.29 1.26,-63.05 1.95,-21.05 5.53,-41.61 11.13,-61.62 5.43,-19.46 12.77,-38.46 21.52,-56.67 9.37,-19.5 20.12,-37.75 31.69,-54.36 11.11,-15.95 23.45,-31.02 36.71,-45.35 13.07,-14.12 26.56,-26.96 40.31,-38.8 13.91,-11.99 28.49,-23.32 44.31,-33.54 16.04,-10.37 32.89,-19.28 50.91,-26.11 18.03,-6.84 37.27,-11.67 57.21,-14.92 19.39,-3.16 39.56,-4.82 59.97,-5.38 20.31,-0.56 40.84,-0.03 61.23,2 20.61,2.05 41.23,5.66 61.52,11.24 20.05,5.51 39.44,12.82 57.29,21.29 18.73,8.89 36.2,19.24 51.37,30.31 15.03,10.97 27.39,22.3 38.48,33.92 10.44,10.93 20.14,22.6 30,34.47 9.49,11.44 19.15,23.08 28.78,35.75 9.84,12.95 19.19,26.34 27.38,40.41 8.48,14.57 15.88,29.93 22.17,46.44 6.29,16.51 11.54,34.25 15.74,53.59 3.99,18.41 7.06,38.69 9.18,59.56 2.18,21.58 3.29,43.07 3.29,63.13 0,19.58 -1.04,38.62 -3,57.03 -2,18.88 -4.99,36.73 -8.84,53.49 -3.81,16.62 -8.47,32.2 -14.26,47.5 -5.82,15.36 -12.71,30.28 -20.97,45.54 -16.2,29.92 -37.43,60.83 -58.65,91.73l-0.28 0.38c-7.71,10.82 -22.72,13.35 -33.53,5.66 -10.7,-7.61 -13.29,-22.36 -5.92,-33.15l-0.01 -0.01c20.54,-29.91 41.08,-59.81 56.01,-87.4 7.31,-13.51 13.34,-26.52 18.33,-39.7 5.01,-13.22 9.05,-26.77 12.39,-41.29 3.43,-14.95 6.1,-30.92 7.9,-47.83 1.7,-16.09 2.61,-33.41 2.61,-51.95 0,-19.42 -0.98,-39.32 -2.91,-58.42 -1.87,-18.46 -4.69,-36.85 -8.43,-54.1 -3.68,-16.93 -8.23,-32.36 -13.67,-46.62 -5.43,-14.26 -11.68,-27.3 -18.77,-39.47 -7.38,-12.67 -15.53,-24.38 -23.99,-35.51 -8.67,-11.41 -18.14,-22.83 -27.46,-34.06 -8.96,-10.79 -17.78,-21.4 -27.93,-32.02 -9.5,-9.95 -19.81,-19.46 -31.89,-28.27 -12.5,-9.12 -27.34,-17.86 -43.65,-25.6 -15.75,-7.47 -32.49,-13.83 -49.38,-18.47 -17.44,-4.8 -35.42,-7.92 -53.61,-9.73 -18.42,-1.83 -36.93,-2.31 -55.21,-1.81 -18.18,0.5 -36.19,1.98 -53.56,4.82 -16.84,2.74 -32.99,6.78 -47.98,12.47 -15.01,5.69 -28.85,12.98 -41.87,21.4 -13.26,8.57 -26.15,18.63 -38.85,29.58 -12.87,11.09 -25.15,22.72 -36.54,35.04 -11.21,12.1 -22.05,25.43 -32.37,40.26 -10.52,15.1 -20.02,31.11 -27.93,47.58 -7.51,15.63 -13.83,31.99 -18.51,48.75 -4.85,17.36 -7.95,35.08 -9.62,53.15 -1.7,18.34 -1.95,37.26 -1.07,56.65 0.91,20.23 3.05,40.78 6.76,61.03 3.32,18.06 7.98,36.11 14.27,53.73 6.4,17.94 14.23,34.83 22.89,50.19 9.38,16.62 19.92,31.92 30.85,45.24 10.36,12.61 20.99,23.29 32.13,32.47 10.99,9.05 22.68,16.76 35.27,23.51 12.78,6.86 26.19,12.6 40.26,17.27 14.17,4.7 29.5,8.46 46,11.33 17.29,3 35.25,4.91 53.05,5.29 16.19,0.35 32.72,-0.54 49.05,-3 16.8,-2.53 33.02,-6.73 48.41,-12.57 15.11,-5.74 29.59,-13.12 43.19,-22.14 13.77,-9.11 26.61,-19.89 38.13,-31.92 11.49,-11.98 21.63,-25.17 30,-39.12 8.43,-14.04 15.14,-28.96 20.39,-44.71 5.27,-15.8 9.11,-32.66 11.77,-50.49 2.75,-18.48 4.2,-37.45 4.23,-55.93 0.03,-18.17 -1.26,-36.18 -3.96,-53.14 -2.67,-16.77 -6.8,-32.64 -12.13,-47.65 -5.25,-14.81 -11.68,-28.72 -19.03,-41.8 -7.45,-13.29 -15.79,-25.6 -25.07,-36.66 -8.7,-10.37 -18.21,-19.65 -28.61,-27.62 -10.6,-8.14 -22.26,-15.03 -34.63,-20.6l0.01 -0.03c-12.58,-5.65 -25.85,-9.91 -39.48,-12.68 -13.75,-2.8 -27.87,-4.1 -42.18,-3.83 -13.76,0.27 -27.99,2.09 -42.54,5.56 -14.83,3.54 -29.55,8.74 -43.31,15.36 -13.4,6.46 -25.93,14.22 -36.84,23.07 -10.69,8.67 -19.91,18.39 -27.77,28.75 -8.64,11.37 -15.8,23.7 -21.6,36.41 -5.5,12.05 -9.72,24.45 -12.67,37.15 -2.98,12.81 -4.63,25.71 -4.95,38.62 -0.33,13.25 0.67,26.66 3.06,39.88 2.28,12.67 5.94,25.4 11,37.89 5.14,12.69 11.62,24.79 19.12,35.65 7.26,10.49 15.45,19.89 24.3,27.58 8.54,7.42 17.69,13.31 27.21,17.86 10.23,4.9 21.22,8.34 32.57,10.56 11.03,2.16 22.06,3.1 32.77,2.86 10.94,-0.25 21.8,-1.68 32.28,-4.25 10.14,-2.49 19.99,-6.15 29.21,-10.95 8.64,-4.5 16.47,-9.9 23.2,-16.17 6.83,-6.38 12.65,-13.72 17.27,-21.84 4.48,-7.92 7.88,-16.77 10,-26.4 2.15,-9.76 2.98,-20.01 2.77,-30.09 -0.25,-11.29 -1.79,-22.71 -4.26,-33.3 -2.26,-9.73 -5.27,-18.41 -8.92,-25.98 -3.57,-7.36 -7.69,-13.66 -12.29,-18.82 -4.28,-4.78 -9.21,-8.78 -14.68,-11.98 -5.41,-3.15 -11.21,-5.38 -17.31,-6.68 -6.31,-1.34 -12.99,-1.78 -19.58,-1.48 -7.28,0.34 -14.39,1.54 -20.76,3.39 -5.67,1.65 -10.73,3.85 -15.15,6.61 -3.95,2.46 -7.26,5.32 -9.9,8.56 -2.76,3.4 -4.95,7.25 -6.5,11.29 -1.63,4.24 -2.62,8.83 -2.91,13.48 -0.28,4.32 0.1,8.46 1.16,12.04 0.78,2.64 1.83,4.81 3.15,6.25 1.22,1.34 3.01,2.43 5.02,3.18 1.86,0.7 3.57,0.99 4.83,0.81 0.61,-0.09 1.6,-0.67 2.78,-1.5 2.53,-1.79 5.49,-4.65 8.45,-7.51z"/>
 </g>
</svg>
