<?xml version="1.0" encoding="UTF-8"?>
<!DOCTYPE svg PUBLIC "-//W3C//DTD SVG 1.1//EN" "http://www.w3.org/Graphics/SVG/1.1/DTD/svg11.dtd">
<!-- Creator: CorelDRAW -->
<svg xmlns="http://www.w3.org/2000/svg" xml:space="preserve" width="8.4666mm" height="8.4666mm" version="1.1" style="shape-rendering:geometricPrecision; text-rendering:geometricPrecision; image-rendering:optimizeQuality; fill-rule:evenodd; clip-rule:evenodd"
viewBox="0 0 846.66 846.66"
 xmlns:xlink="http://www.w3.org/1999/xlink"
 xmlns:xodm="http://www.corel.com/coreldraw/odm/2003">
 <defs>
  <style type="text/css">
   <![CDATA[
    .fil0 {fill:#FC69F8;fill-rule:nonzero}
   ]]>
  </style>
 </defs>
 <g id="Capa_x0020_1">
  <metadata id="CorelCorpID_0Corel-Layer"/>
  <path class="fil0" d="M449.82 423.89c7.86,7.78 16.15,15.84 24.04,23.35 9.34,8.87 19.22,18.03 28.92,26.68 10.03,8.95 19.26,16.76 28.24,23.83 9.03,7.11 17.77,13.45 26.76,19.42 9.43,6.26 19.26,12.21 29.11,17.51 9.24,4.98 18.29,9.3 26.81,12.68 8.81,3.49 17.32,6.13 25.64,7.97 8.16,1.81 16.22,2.87 24.29,3.23 8.07,0.36 16.21,0 24.34,-1.24 7.47,-1.14 14.7,-2.99 21.58,-5.67 7.15,-2.78 14.19,-6.55 20.96,-11.17 6.8,-4.65 13.23,-10.14 19.11,-16.34 5.91,-6.23 11.28,-13.19 15.98,-20.63 4.77,-7.56 8.87,-15.65 12.18,-24.03 3.3,-8.37 5.78,-16.82 7.47,-25.2 1.79,-8.87 2.8,-17.87 3.06,-26.81 0.25,-8.72 -0.22,-17.46 -1.46,-26.17 -1.19,-8.33 -3.12,-16.61 -5.82,-24.78 -2.78,-8.42 -6.29,-16.52 -10.54,-24.02 -4.04,-7.15 -8.84,-13.95 -14.4,-20.21l0 -0.08c-5.45,-6.13 -11.69,-11.74 -18.46,-16.79 -7.28,-5.42 -15.16,-10.18 -23.35,-14.23 -7.94,-3.93 -16.17,-7.2 -24.42,-9.68 -8.12,-2.45 -16.07,-4.11 -23.57,-4.88 -7.48,-0.77 -14.7,-0.7 -21.68,0.03 -6.88,0.72 -13.72,2.14 -20.47,4.08 -6.93,1.98 -13.49,4.42 -19.81,7.19 -6.45,2.83 -12.99,6.16 -19.63,9.81 -6.86,3.77 -13.39,7.63 -19.56,11.71 -6.28,4.14 -12.8,8.88 -19.72,14.45 -6.74,5.43 -13.84,11.71 -21.21,18.51 -7.81,7.2 -15.33,14.42 -22.98,21.8l-26.47 25.5 0 0.07 -24.94 24.11zm-1.56 50.26c-9.34,-8.89 -17.91,-17.19 -25.26,-24.43 -5.69,5.46 -11.51,11.02 -17.32,16.54 -14.22,13.5 -28.41,26.77 -40.68,37.84 -12.58,11.34 -23.99,21.12 -35.48,30.11 -11.56,9.03 -22.59,16.75 -34.18,23.76 -11.63,7.04 -24.37,13.67 -37.51,19.5 -12.72,5.64 -25.43,10.32 -37.43,13.66 -12.69,3.52 -24.78,5.66 -36.68,6.34 -12.17,0.7 -23.99,-0.09 -35.86,-2.44 -11.94,-2.36 -24.02,-6.3 -35.47,-11.59 -11.17,-5.16 -21.82,-11.68 -31.27,-19.34 -9.18,-7.44 -17.09,-15.89 -23.89,-25.04 -7.24,-9.74 -13.2,-20.26 -18.05,-31.18 -4.67,-10.48 -8.3,-21.18 -11.02,-32.04 -2.69,-10.73 -4.57,-21.83 -5.74,-33.21 -1.17,-11.4 -1.62,-23.02 -0.86,-34.73 0.78,-12.09 2.82,-24.29 6.61,-36.47 3.72,-11.92 9.04,-23.67 15.42,-34.6 6.58,-11.28 14.42,-21.91 22.89,-31.13 8.25,-8.99 17.08,-16.56 26.06,-22.98 8.83,-6.32 17.73,-11.45 26.31,-15.66 8.64,-4.26 17.06,-7.64 25.61,-10.28 8.49,-2.62 17.09,-4.48 26.14,-5.7 9.2,-1.24 18.89,-1.78 28.76,-1.46 9.37,0.3 18.78,1.36 27.93,3.32 8.99,1.92 17.98,4.76 26.8,8.27 9.63,3.83 18.65,8.27 26.97,13.02 7.84,4.48 15.49,9.49 22.99,14.82 7.23,5.13 14.08,10.42 20.73,15.74 6.44,5.16 12.87,10.52 19.41,16.16 5.86,5.04 12.22,10.72 19.15,17.07 7.19,6.57 13.79,12.76 19.6,18.36 6.42,6.18 12.82,12.5 18.99,18.75 5.01,5.08 9.57,9.81 14.42,14.84l7.31 7.56 25.36 -24.52 0.03 0.04c19.89,-19.23 15.48,-15.05 26.43,-25.61 8.24,-7.93 16.23,-15.61 23.57,-22.37 7.76,-7.17 15.44,-13.94 23.1,-20.11 7.48,-6.03 15,-11.46 22.62,-16.49 7.74,-5.1 15,-9.44 22.04,-13.31 7.28,-4 14.77,-7.8 22.68,-11.26 8.04,-3.53 16.17,-6.57 24.47,-8.94 8.47,-2.43 17.4,-4.26 26.87,-5.24 9.38,-0.98 19.11,-1.08 29.24,-0.03 10.04,1.03 20.29,3.13 30.41,6.18 10.14,3.06 20.33,7.1 30.23,12.01 10.1,5 19.89,10.92 29.03,17.72 8.71,6.5 16.85,13.83 24.1,21.99l0.03 -0.03c7.23,8.13 13.53,17.1 18.91,26.61 5.62,9.94 10.15,20.28 13.6,30.71 3.34,10.12 5.75,20.54 7.27,31.19 1.5,10.57 2.07,21.4 1.75,32.42 -0.32,10.97 -1.57,22.07 -3.79,33.07 -2.18,10.82 -5.24,21.38 -9.22,31.45 -4.13,10.48 -9.31,20.68 -15.37,30.28 -6.02,9.53 -12.9,18.45 -20.5,26.45 -7.69,8.12 -16.13,15.32 -25.06,21.43 -8.98,6.13 -18.56,11.22 -28.53,15.1 -9.72,3.78 -19.57,6.35 -29.43,7.85 -10.26,1.57 -20.81,2.01 -31.47,1.53 -10.11,-0.46 -20.29,-1.79 -30.69,-4.1 -10.23,-2.27 -20.62,-5.48 -31.31,-9.72 -10.31,-4.08 -20.65,-8.99 -30.74,-14.42 -10.87,-5.85 -21.68,-12.4 -32.02,-19.25 -10.09,-6.7 -19.63,-13.62 -29.23,-21.17 -9.66,-7.61 -19.45,-15.89 -29.99,-25.29 -9.17,-8.18 -19.47,-17.75 -29.79,-27.55zm-68.18 -34.8c5.71,-5.42 11.35,-10.81 16.82,-16.06l-7.31 -7.57c-4.94,-5.13 -9.58,-9.94 -14.13,-14.55 -5.82,-5.89 -11.97,-11.97 -18.26,-18.03 -6.99,-6.72 -13.35,-12.72 -18.87,-17.78 -5.74,-5.25 -11.82,-10.65 -18.43,-16.34 -5.91,-5.1 -12,-10.16 -18.39,-15.28 -6.2,-4.97 -12.51,-9.84 -18.99,-14.44 -6.2,-4.4 -12.79,-8.7 -19.93,-12.78 -7.34,-4.19 -14.8,-7.9 -22.17,-10.84 -6.68,-2.66 -13.66,-4.85 -20.84,-6.38 -7.2,-1.54 -14.38,-2.36 -21.38,-2.59 -7.7,-0.25 -15.34,0.18 -22.66,1.16l-0.07 0c-6.89,0.93 -13.5,2.36 -20.1,4.4 -6.57,2.03 -13.18,4.7 -20.09,8.1 -6.98,3.43 -14.17,7.57 -21.22,12.6 -6.9,4.94 -13.75,10.83 -20.23,17.89 -6.56,7.14 -12.76,15.59 -18.1,24.73 -5.08,8.71 -9.25,17.85 -12.07,26.89 -2.87,9.22 -4.41,18.5 -5.01,27.75 -0.62,9.62 -0.25,19.2 0.72,28.62 0.97,9.44 2.55,18.79 4.86,27.97 2.27,9.06 5.19,17.74 8.84,25.94 3.79,8.53 8.41,16.7 13.98,24.19 5,6.73 10.79,12.92 17.49,18.35 6.9,5.6 14.88,10.45 23.41,14.39 8.72,4.03 17.92,7.03 27.04,8.83 8.94,1.77 17.74,2.37 26.69,1.86 9.2,-0.53 18.71,-2.22 28.83,-5.03 10.5,-2.92 21.48,-6.95 32.34,-11.77 11.02,-4.89 22.34,-10.83 33.29,-17.46 10.7,-6.48 20.54,-13.33 30.54,-21.15 10.07,-7.86 20.92,-17.21 33.45,-28.51 12.82,-11.56 26.58,-24.42 39.95,-37.11z"/>
 </g>
</svg>
