<?xml version="1.0" encoding="UTF-8"?>
<!DOCTYPE svg PUBLIC "-//W3C//DTD SVG 1.1//EN" "http://www.w3.org/Graphics/SVG/1.1/DTD/svg11.dtd">
<!-- Creator: CorelDRAW -->
<svg xmlns="http://www.w3.org/2000/svg" xml:space="preserve" width="8.4666mm" height="8.4666mm" version="1.1" style="shape-rendering:geometricPrecision; text-rendering:geometricPrecision; image-rendering:optimizeQuality; fill-rule:evenodd; clip-rule:evenodd"
viewBox="0 0 846.66 846.66"
 xmlns:xlink="http://www.w3.org/1999/xlink"
 xmlns:xodm="http://www.corel.com/coreldraw/odm/2003">
 <defs>
  <style type="text/css">
   <![CDATA[
    .fil0 {fill:#FC69F8;fill-rule:nonzero}
   ]]>
  </style>
 </defs>
 <g id="Capa_x0020_1">
  <metadata id="CorelCorpID_0Corel-Layer"/>
  <path class="fil0" d="M93.44 613.83c-25.9,-44.85 -9.54,-106.59 37.82,-170.15 5.03,-6.75 10.42,-13.54 16.16,-20.35 -5.73,-6.81 -11.13,-13.6 -16.16,-20.35 -47.36,-63.56 -63.72,-125.3 -37.82,-170.15 25.89,-44.84 87.52,-61.54 166.23,-52.3 8.35,0.98 16.91,2.25 25.67,3.81 3.02,-8.34 6.2,-16.38 9.52,-24.08 31.38,-72.86 76.69,-117.93 128.48,-117.93 51.78,0 97.09,45.07 128.48,117.93 3.32,7.7 6.49,15.74 9.51,24.08 8.76,-1.56 17.33,-2.83 25.68,-3.81 78.71,-9.24 140.34,7.46 166.22,52.3 25.9,44.85 9.55,106.59 -37.82,170.15 -5.03,6.75 -10.42,13.54 -16.16,20.35 5.73,6.81 11.13,13.6 16.16,20.35 47.37,63.56 63.72,125.3 37.82,170.15 -25.88,44.84 -87.51,61.54 -166.22,52.3 -8.35,-0.98 -16.92,-2.25 -25.68,-3.81 -3.02,8.34 -6.19,16.38 -9.51,24.08 -31.39,72.86 -76.7,117.93 -128.48,117.93 -51.79,0 -97.1,-45.07 -128.48,-117.93 -3.32,-7.7 -6.5,-15.74 -9.52,-24.08 -8.75,1.56 -17.32,2.83 -25.67,3.81 -78.71,9.24 -140.34,-7.46 -166.23,-52.3zm81.47 -220.61c22.68,-23.03 49.03,-45.94 78.45,-67.91 4.32,-36.51 11,-70.84 19.63,-102.05 -6.09,-0.99 -12.06,-1.84 -17.91,-2.53 -62.48,-7.33 -109.64,2.88 -126.66,32.36 -17.02,29.48 -2.28,75.41 35.29,125.83 3.54,4.75 7.28,9.52 11.2,14.3zm496.85 60.21c-22.68,23.04 -49.03,45.95 -78.45,67.92 -4.32,36.51 -10.99,70.84 -19.62,102.04 6.08,1 12.05,1.85 17.91,2.54 62.47,7.33 109.63,-2.88 126.65,-32.36 17.02,-29.48 2.29,-75.41 -35.29,-125.83 -3.54,-4.75 -7.28,-9.52 -11.2,-14.31zm-150.34 200.11c-31.3,-8.14 -64.33,-19.52 -98.08,-34.03 -33.76,14.51 -66.79,25.89 -98.09,34.02 2.19,5.81 4.46,11.44 6.8,16.88 24.86,57.7 57.25,93.39 91.29,93.39 34.03,0 66.42,-35.69 91.28,-93.39 2.35,-5.44 4.61,-11.07 6.8,-16.87zm-147.97 -57.52c-12.6,-6.46 -25.24,-13.34 -37.86,-20.62l-0.07 -0.04 -0.02 0.03c-12.59,-7.26 -24.83,-14.76 -36.7,-22.43 3.74,21.9 8.4,42.68 13.87,62.09 19.57,-4.97 39.93,-11.32 60.78,-19.03zm-120.09 -74.63c-29.41,-21.98 -55.77,-44.89 -78.45,-67.95 -3.93,4.78 -7.66,9.55 -11.2,14.3 -37.57,50.42 -52.31,96.35 -35.29,125.83 17.02,29.48 64.18,39.69 126.66,32.36 5.85,-0.69 11.83,-1.54 17.91,-2.54 -8.63,-31.19 -15.3,-65.5 -19.63,-102zm71.89 -328.27c31.3,8.14 64.33,19.52 98.09,34.03 33.75,-14.51 66.78,-25.89 98.08,-34.02 -2.19,-5.81 -4.45,-11.44 -6.8,-16.89 -24.86,-57.7 -57.25,-93.38 -91.28,-93.38 -34.04,0 -66.43,35.68 -91.29,93.38 -2.34,5.45 -4.61,11.08 -6.8,16.88zm147.97 57.52c12.61,6.46 25.24,13.33 37.86,20.62l0.07 0.04 0.02 -0.03c12.59,7.26 24.83,14.75 36.7,22.43 -3.74,-21.9 -8.4,-42.68 -13.87,-62.09 -19.57,4.97 -39.92,11.32 -60.78,19.03zm120.09 74.63c29.42,21.97 55.77,44.89 78.46,67.95 3.92,-4.79 7.65,-9.56 11.19,-14.3 37.58,-50.42 52.31,-96.35 35.29,-125.83 -17.02,-29.48 -64.18,-39.69 -126.65,-32.36 -5.86,0.69 -11.83,1.54 -17.91,2.53 8.62,31.2 15.3,65.51 19.62,102.01zm51.45 98.07c-14.07,-14.45 -29.75,-28.88 -46.84,-43.07 0.71,14.13 1.07,28.5 1.07,43.06 0,14.57 -0.36,28.95 -1.07,43.09 17.09,-14.19 32.76,-28.63 46.84,-43.08zm-89.83 -76.05c-20,-14.22 -41.41,-27.99 -64.02,-41.04 -0.05,-0.04 -0.26,-0.14 -0.24,-0.18 -22.54,-13 -45.08,-24.61 -67.33,-34.78 -22.25,10.17 -44.8,21.78 -67.34,34.78 0.03,0.04 -0.26,0.15 -0.32,0.18 -22.58,13.03 -43.95,26.78 -63.94,40.99 -2.32,24.47 -3.54,49.93 -3.54,76.09 0,26.14 1.22,51.58 3.54,76.04 20,14.22 41.41,27.98 64.02,41.04 0.06,0.04 0.27,0.14 0.24,0.18 22.54,13 45.09,24.61 67.34,34.78 22.25,-10.17 44.8,-21.78 67.33,-34.78 -0.03,-0.04 0.26,-0.15 0.32,-0.18 22.58,-13.04 43.96,-26.78 63.94,-40.99 2.32,-24.47 3.54,-49.93 3.54,-76.09 0,-26.14 -1.22,-51.59 -3.54,-76.04zm-181.48 -96.65c-20.85,-7.71 -41.21,-14.06 -60.78,-19.03 -5.47,19.42 -10.14,40.22 -13.88,62.14 11.8,-7.63 23.97,-15.08 36.49,-22.31 -0.03,-0.05 0.25,-0.15 0.31,-0.18 12.62,-7.29 25.26,-14.16 37.86,-20.62zm-171.53 172.68c14.07,14.45 29.74,28.88 46.83,43.07 -0.71,-14.13 -1.07,-28.5 -1.07,-43.06 0,-14.57 0.37,-28.95 1.08,-43.09 -17.1,14.19 -32.77,28.63 -46.84,43.08zm271.3 172.7c20.86,7.71 41.21,14.06 60.78,19.03 5.47,-19.43 10.14,-40.22 13.88,-62.14 -11.8,7.63 -23.97,15.07 -36.48,22.31 0.03,0.04 -0.26,0.15 -0.32,0.18 -12.62,7.28 -25.26,14.16 -37.86,20.62z"/>
 </g>
</svg>
