<?xml version="1.0" encoding="UTF-8"?>
<!DOCTYPE svg PUBLIC "-//W3C//DTD SVG 1.1//EN" "http://www.w3.org/Graphics/SVG/1.1/DTD/svg11.dtd">
<!-- Creator: CorelDRAW -->
<svg xmlns="http://www.w3.org/2000/svg" xml:space="preserve" width="8.4666mm" height="8.4666mm" version="1.1" style="shape-rendering:geometricPrecision; text-rendering:geometricPrecision; image-rendering:optimizeQuality; fill-rule:evenodd; clip-rule:evenodd"
viewBox="0 0 846.66 846.66"
 xmlns:xlink="http://www.w3.org/1999/xlink"
 xmlns:xodm="http://www.corel.com/coreldraw/odm/2003">
 <defs>
  <style type="text/css">
   <![CDATA[
    .fil0 {fill:#FC69F8}
   ]]>
  </style>
 </defs>
 <g id="Capa_x0020_1">
  <metadata id="CorelCorpID_0Corel-Layer"/>
  <path class="fil0" d="M507.77 785.98c0.97,7.4 2.5,7.11 3.46,-0.09 24.94,-289.02 7.68,-346.04 274.06,-365.38 12.76,-0.88 14,-10.12 2.44,-11.42 -275.02,-18.88 -235.3,-52.25 -272.64,-274.54 -2.74,-15.58 -8.43,-16.26 -11.11,-1.06 -37.33,222.3 2.38,255.67 -272.64,274.54 -16.92,1.22 -16.11,12.38 -0.02,13.8 277,17.27 245.84,68.04 276.45,364.15zm-235.29 15.63c0.48,3.71 1.25,3.56 1.73,-0.05 12.5,-144.79 3.85,-173.35 137.29,-183.04 6.4,-0.44 7.02,-5.07 1.23,-5.73 -137.78,-9.45 -117.88,-26.17 -136.59,-137.53 -1.37,-7.8 -4.22,-8.14 -5.56,-0.53 -18.71,111.36 1.19,128.08 -136.59,137.54 -8.47,0.61 -8.07,6.2 -0.01,6.91 138.77,8.65 123.16,34.08 138.5,182.43zm-76.79 -426.88c0.48,3.71 1.25,3.56 1.73,-0.05 12.5,-144.79 3.85,-173.35 137.3,-183.04 6.39,-0.44 7.01,-5.07 1.22,-5.72 -137.78,-9.46 -117.88,-26.18 -136.58,-137.54 -1.38,-7.8 -4.23,-8.14 -5.57,-0.53 -18.7,111.37 1.19,128.08 -136.58,137.54 -8.48,0.61 -8.07,6.2 -0.01,6.91 138.76,8.65 123.15,34.09 138.49,182.43z"/>
 </g>
</svg>
