<?xml version="1.0" encoding="UTF-8"?>
<!DOCTYPE svg PUBLIC "-//W3C//DTD SVG 1.1//EN" "http://www.w3.org/Graphics/SVG/1.1/DTD/svg11.dtd">
<!-- Creator: CorelDRAW -->
<svg xmlns="http://www.w3.org/2000/svg" xml:space="preserve" width="8.4666mm" height="8.4666mm" version="1.1" style="shape-rendering:geometricPrecision; text-rendering:geometricPrecision; image-rendering:optimizeQuality; fill-rule:evenodd; clip-rule:evenodd"
viewBox="0 0 846.66 846.66"
 xmlns:xlink="http://www.w3.org/1999/xlink"
 xmlns:xodm="http://www.corel.com/coreldraw/odm/2003">
 <defs>
  <style type="text/css">
   <![CDATA[
    .fil0 {fill:#F07DE6;fill-rule:nonzero}
   ]]>
  </style>
 </defs>
 <g id="Capa_x0020_1">
  <metadata id="CorelCorpID_0Corel-Layer"/>
  <path id="rect3641" class="fil0" d="M423.33 42.33c-210.31,0 -381,170.69 -381,381 0,210.32 170.69,381 381,381 210.32,0 381,-170.68 381,-381 0,-210.31 -170.68,-381 -381,-381zm-14.88 53.59c0,0.68 0,131.2 0,141.38 -48.93,-0.45 -96.78,-6.1 -142.87,-16 12.99,-39.07 29.91,-75.12 49.48,-107.15 29.41,-10.39 60.84,-16.73 93.39,-18.23zm29.77 0c32.54,1.5 63.98,7.84 93.39,18.23 19.57,32.03 36.49,68.08 49.48,107.15 -46.09,9.9 -93.94,15.55 -142.87,16 0,-10.18 0,-140.7 0,-141.38zm-168.55 38.32c-12.75,25.15 -23.84,52.08 -33.12,80.36 -17.38,-4.51 -34.49,-9.85 -51.34,-15.62 24.28,-25.97 52.94,-47.8 84.46,-64.74zm307.33 0c31.52,16.94 60.18,38.77 84.46,64.74 -16.85,5.77 -33.96,11.11 -51.34,15.62 -9.28,-28.28 -20.37,-55.21 -33.12,-80.36zm-412.63 88.92c20.76,7.5 42.06,14.08 63.63,19.72 -14.25,51.67 -22.23,107.35 -23.44,165.57 -68.38,0 -12.79,0 -107.16,0 3.06,-69.75 27.28,-133.61 66.97,-185.29zm517.92 0c39.7,51.68 63.92,115.54 66.98,185.29 -94.37,0 -38.78,0 -107.16,0 -1.21,-58.22 -9.19,-113.9 -23.44,-165.57 21.57,-5.64 42.87,-12.22 63.62,-19.72zm-424.9 26.79c48.68,10.6 99.34,16.29 151.06,16.74 0,13.4 0,107.21 0,141.76 -49.41,0 -73.54,0 -174.13,0 1.23,-55.93 9.42,-109.2 23.07,-158.5zm331.89 0c13.65,49.3 21.84,102.57 23.07,158.5 -100.59,0 -124.72,0 -174.13,0 0,-34.55 0,-128.36 0,-141.76 51.72,-0.45 102.37,-6.14 151.06,-16.74zm-491.88 188.27c94.37,0 38.78,0 107.16,0 1.21,58.22 9.19,113.9 23.44,165.57 -21.57,5.64 -42.87,12.22 -63.63,19.72 -39.69,-51.69 -63.91,-115.54 -66.97,-185.29zm136.92 0c100.59,0 124.72,0 174.13,0 0,34.55 0,128.36 0,141.75 -51.72,0.46 -102.38,6.15 -151.06,16.75 -13.65,-49.3 -21.84,-102.57 -23.07,-158.5zm203.9 0c49.41,0 73.54,0 174.13,0 -1.23,55.93 -9.42,109.2 -23.07,158.5 -48.69,-10.6 -99.34,-16.29 -151.06,-16.75 0,-13.39 0,-107.2 0,-141.75zm203.89 0c68.38,0 12.79,0 107.16,0 -3.06,69.75 -27.28,133.6 -66.98,185.29 -20.75,-7.5 -42.05,-14.08 -63.62,-19.72 14.25,-51.67 22.23,-107.35 23.44,-165.57zm-233.66 171.15c0,10.18 0,140.7 0,141.38 -32.55,-1.5 -63.98,-7.84 -93.39,-18.23 -19.57,-32.03 -36.49,-68.09 -49.48,-107.15 46.09,-9.9 93.94,-15.55 142.87,-16zm29.77 0c48.93,0.45 96.78,6.1 142.87,16 -12.99,39.06 -29.91,75.12 -49.48,107.15 -29.41,10.39 -60.85,16.73 -93.39,18.23 0,-0.68 0,-131.2 0,-141.38zm-201.67 22.7c9.28,28.28 20.37,55.21 33.12,80.36 -31.52,-16.94 -60.18,-38.77 -84.46,-64.74 16.85,-5.77 33.96,-11.11 51.34,-15.62zm373.57 0c17.38,4.51 34.49,9.85 51.34,15.62 -24.28,25.97 -52.94,47.8 -84.46,64.74 12.75,-25.15 23.84,-52.08 33.12,-80.36z"/>
 </g>
</svg>
