<?xml version="1.0" encoding="UTF-8"?>
<!DOCTYPE svg PUBLIC "-//W3C//DTD SVG 1.1//EN" "http://www.w3.org/Graphics/SVG/1.1/DTD/svg11.dtd">
<!-- Creator: CorelDRAW -->
<svg xmlns="http://www.w3.org/2000/svg" xml:space="preserve" width="8.4666mm" height="8.4666mm" version="1.1" style="shape-rendering:geometricPrecision; text-rendering:geometricPrecision; image-rendering:optimizeQuality; fill-rule:evenodd; clip-rule:evenodd"
viewBox="0 0 846.66 846.66"
 xmlns:xlink="http://www.w3.org/1999/xlink"
 xmlns:xodm="http://www.corel.com/coreldraw/odm/2003">
 <defs>
  <style type="text/css">
   <![CDATA[
    .fil0 {fill:#FF83EF;fill-rule:nonzero}
   ]]>
  </style>
 </defs>
 <g id="Capa_x0020_1">
  <metadata id="CorelCorpID_0Corel-Layer"/>
  <path class="fil0" d="M423.33 42.33c-210.42,0 -381.01,170.58 -381.01,381 0,210.43 170.59,381 381.01,381 210.44,0 381.01,-170.57 381.01,-381 0,-210.4 -170.57,-380.98 -381.02,-380.98l0.01 -0.02 0 0zm225.36 337.75c-122.79,-72.94 -325.39,-79.65 -442.63,-44.06 -18.83,5.71 -38.74,-4.92 -44.45,-23.75 -5.7,-18.83 4.92,-38.73 23.76,-44.45 134.58,-40.86 358.32,-32.97 499.69,50.96 16.97,10.05 22.53,31.92 12.47,48.84 -10.01,16.93 -31.94,22.51 -48.82,12.46l-0.02 0zm-4 108.02c-8.6,13.98 -26.89,18.39 -40.86,9.79 -102.41,-62.95 -258.53,-81.18 -379.67,-44.41 -15.71,4.75 -32.3,-4.1 -37.07,-19.79 -4.73,-15.71 4.13,-32.27 19.81,-37.04 138.37,-41.99 310.39,-21.65 428.01,50.62 13.96,8.6 18.38,26.89 9.78,40.84l0 -0.01zm-46.64 103.75c-6.82,11.19 -21.47,14.74 -32.66,7.87 -89.46,-54.64 -202.07,-67.02 -334.7,-36.72 -12.78,2.91 -25.52,-5.09 -28.43,-17.88 -2.92,-12.78 5.05,-25.52 17.86,-28.43 145.14,-33.16 269.63,-18.89 370.06,42.49 11.2,6.87 14.75,21.47 7.87,32.67z"/>
 </g>
</svg>
