<?xml version="1.0" encoding="UTF-8"?>
<!DOCTYPE svg PUBLIC "-//W3C//DTD SVG 1.1//EN" "http://www.w3.org/Graphics/SVG/1.1/DTD/svg11.dtd">
<!-- Creator: CorelDRAW -->
<svg xmlns="http://www.w3.org/2000/svg" xml:space="preserve" width="8.4666mm" height="8.4666mm" version="1.1" style="shape-rendering:geometricPrecision; text-rendering:geometricPrecision; image-rendering:optimizeQuality; fill-rule:evenodd; clip-rule:evenodd"
viewBox="0 0 846.66 846.66"
 xmlns:xlink="http://www.w3.org/1999/xlink"
 xmlns:xodm="http://www.corel.com/coreldraw/odm/2003">
 <defs>
  <style type="text/css">
   <![CDATA[
    .fil0 {fill:#F07DE6;fill-rule:nonzero}
   ]]>
  </style>
 </defs>
 <g id="Capa_x0020_1">
  <metadata id="CorelCorpID_0Corel-Layer"/>
  <g id="_1320793823744">
   <path class="fil0" d="M593.99 42.27l-341.43 0c-115.95,0 -210.28,94.34 -210.28,210.28l0 341.44c0,115.95 94.33,210.28 210.28,210.28l341.43 0c115.96,0 210.29,-94.34 210.29,-210.28l0 -341.44c0,-115.94 -94.33,-210.28 -210.29,-210.28zm142.69 551.72c0,78.67 -64.01,142.67 -142.69,142.67l-341.43 0c-78.67,0.01 -142.67,-64 -142.67,-142.67l0 -341.44c0,-78.66 64,-142.67 142.67,-142.67l341.43 0c78.67,0 142.68,64 142.68,142.67l0 341.44 0.01 0z"/>
   <path class="fil0" d="M423.28 226.93c-108.27,0 -196.35,88.08 -196.35,196.35 0,108.26 88.08,196.34 196.35,196.34 108.27,0 196.35,-88.08 196.35,-196.34 0,-108.27 -88.08,-196.35 -196.35,-196.35zm0 325.08c-70.98,0 -128.74,-57.75 -128.74,-128.74 0,-70.98 57.75,-128.73 128.74,-128.73 70.99,0 128.74,57.75 128.74,128.73 0,70.99 -57.76,128.74 -128.74,128.74z"/>
   <path class="fil0" d="M627.86 169.6c-13.02,0 -25.82,5.28 -35.02,14.52 -9.24,9.19 -14.56,21.99 -14.56,35.06 0,13.03 5.32,25.83 14.56,35.07 9.2,9.19 22,14.51 35.02,14.51 13.07,0 25.83,-5.32 35.07,-14.51 9.24,-9.24 14.51,-22.04 14.51,-35.07 0,-13.07 -5.27,-25.87 -14.51,-35.06 -9.2,-9.24 -22,-14.52 -35.07,-14.52z"/>
  </g>
 </g>
</svg>
