<?xml version="1.0" encoding="UTF-8"?>
<!DOCTYPE svg PUBLIC "-//W3C//DTD SVG 1.1//EN" "http://www.w3.org/Graphics/SVG/1.1/DTD/svg11.dtd">
<!-- Creator: CorelDRAW -->
<svg xmlns="http://www.w3.org/2000/svg" xml:space="preserve" width="8.4666mm" height="8.4666mm" version="1.1" style="shape-rendering:geometricPrecision; text-rendering:geometricPrecision; image-rendering:optimizeQuality; fill-rule:evenodd; clip-rule:evenodd"
viewBox="0 0 846.66 846.66"
 xmlns:xlink="http://www.w3.org/1999/xlink"
 xmlns:xodm="http://www.corel.com/coreldraw/odm/2003">
 <defs>
  <style type="text/css">
   <![CDATA[
    .fil0 {fill:#FF83EF}
   ]]>
  </style>
 </defs>
 <g id="Capa_x0020_1">
  <metadata id="CorelCorpID_0Corel-Layer"/>
  <path class="fil0" d="M818.34 253.74c14.11,113.13 16.82,229.89 -3.65,353.12 -8.94,53.85 -41.63,85.79 -100,90.81 -180.03,15.47 -376.26,17.09 -587.55,-0.54 -55.01,-4.59 -87.71,-40.66 -96.85,-98.47 -15.44,-97.57 -18.89,-215.22 -1.37,-351.28 7.98,-61.97 47.04,-96.56 106.3,-100.36 190.52,-12.22 384.87,-14.85 581.88,0 60.06,4.53 93.48,44.44 101.24,106.72zm-479.64 46.77l0 227.32 220.89 -112.95 -220.89 -114.37z"/>
 </g>
</svg>
