<?xml version="1.0" encoding="UTF-8"?>
<!DOCTYPE svg PUBLIC "-//W3C//DTD SVG 1.1//EN" "http://www.w3.org/Graphics/SVG/1.1/DTD/svg11.dtd">
<!-- Creator: CorelDRAW -->
<svg xmlns="http://www.w3.org/2000/svg" xml:space="preserve" width="8.4666mm" height="8.4666mm" version="1.1" style="shape-rendering:geometricPrecision; text-rendering:geometricPrecision; image-rendering:optimizeQuality; fill-rule:evenodd; clip-rule:evenodd"
viewBox="0 0 846.66 846.66"
 xmlns:xlink="http://www.w3.org/1999/xlink"
 xmlns:xodm="http://www.corel.com/coreldraw/odm/2003">
 <defs>
  <style type="text/css">
   <![CDATA[
    .fil0 {fill:#F07DE6}
   ]]>
  </style>
 </defs>
 <g id="Capa_x0020_1">
  <metadata id="CorelCorpID_0Corel-Layer"/>
  <path class="fil0" d="M423.33 42.33c210.42,0 381,170.58 381,381 0,210.42 -170.58,381 -381,381 -210.42,0 -381,-170.58 -381,-381 0,-210.42 170.58,-381 381,-381zm-3.65 305.53c-25,-85.81 87.78,-174.25 170.79,-91.43 20.7,-3.77 41.92,-11.88 63.66,-24.32 -6.63,22.07 -21.32,40.55 -44.08,55.45 18.7,-2.04 37.89,-7.3 57.57,-15.79 -13.61,20.29 -30.3,37.61 -50.07,51.95 -2.87,256.56 -251.34,368.24 -438.51,253.09 54.47,5.98 103.93,-7.85 148.4,-41.49 -46.03,-3.19 -77.57,-26.61 -94.62,-70.28 14.15,3.58 29.58,3.22 46.27,-1.07 -51.73,-15.16 -78.53,-48.34 -80.39,-99.54 15.85,8.24 30.99,12.42 45.41,12.52 -45.5,-35.62 -55.84,-80.22 -31.02,-133.81 50.71,62.46 119.58,97.37 206.59,104.72z"/>
 </g>
</svg>
