<?xml version="1.0" encoding="UTF-8"?>
<!DOCTYPE svg PUBLIC "-//W3C//DTD SVG 1.1//EN" "http://www.w3.org/Graphics/SVG/1.1/DTD/svg11.dtd">
<!-- Creator: CorelDRAW -->
<svg xmlns="http://www.w3.org/2000/svg" xml:space="preserve" width="8.4666mm" height="8.4666mm" version="1.1" style="shape-rendering:geometricPrecision; text-rendering:geometricPrecision; image-rendering:optimizeQuality; fill-rule:evenodd; clip-rule:evenodd"
viewBox="0 0 846.66 846.66"
 xmlns:xlink="http://www.w3.org/1999/xlink"
 xmlns:xodm="http://www.corel.com/coreldraw/odm/2003">
 <defs>
  <style type="text/css">
   <![CDATA[
    .fil0 {fill:#F07DE6;fill-rule:nonzero}
   ]]>
  </style>
 </defs>
 <g id="Capa_x0020_1">
  <metadata id="CorelCorpID_0Corel-Layer"/>
  <path class="fil0" d="M360.47 800.52c-180.98,-32.38 -318.14,-188.59 -318.14,-377.19 0,-209.55 171.45,-381 381,-381 209.55,0 381,171.45 381,381 0,188.6 -137.16,344.81 -318.13,377.19l-1.59 -1.3 3.48 -0.61 0.01 -268.6 83.82 0 17.15 -106.68 -100.97 0 0 -74.3c0,-30.47 11.43,-53.33 57.15,-53.33l49.53 0 0 -97.16c-26.67,-3.81 -57.15,-7.62 -83.82,-7.62 -87.63,0 -148.59,53.34 -148.59,148.6l0 83.81 -95.25 0 0 106.68 95.25 0 0 268.6 0.34 0.06 -2.24 1.84 0 0.01z"/>
 </g>
</svg>
