<?xml version="1.0" encoding="UTF-8"?>
<!DOCTYPE svg PUBLIC "-//W3C//DTD SVG 1.1//EN" "http://www.w3.org/Graphics/SVG/1.1/DTD/svg11.dtd">
<!-- Creator: CorelDRAW -->
<svg xmlns="http://www.w3.org/2000/svg" xml:space="preserve" width="50.7998mm" height="1.8626mm" version="1.1" style="shape-rendering:geometricPrecision; text-rendering:geometricPrecision; image-rendering:optimizeQuality; fill-rule:evenodd; clip-rule:evenodd"
viewBox="0 0 5079.98 186.26"
 xmlns:xlink="http://www.w3.org/1999/xlink"
 xmlns:xodm="http://www.corel.com/coreldraw/odm/2003">
 <defs>
  <style type="text/css">
   <![CDATA[
    .fil0 {fill:#FFA2F3;fill-rule:nonzero}
   ]]>
  </style>
 </defs>
 <g id="Capa_x0020_1">
  <metadata id="CorelCorpID_0Corel-Layer"/>
  <path class="fil0" d="M4820.91 8.46c-15.56,0 -28.22,12.66 -28.22,28.23l0 28.22c0,3.88 3.26,6.92 6.92,8.2 8.29,2.87 14.25,10.76 14.25,20.02 0,9.26 -5.96,17.15 -14.25,20.02 -3.66,1.28 -6.92,4.32 -6.92,8.2l0 28.22c0,15.57 12.66,28.22 28.22,28.22l197.56 0.01c15.56,0 28.22,-12.66 28.22,-28.23l0 -28.22c0,-3.88 -3.26,-6.92 -6.92,-8.2 -8.29,-2.87 -14.25,-10.76 -14.25,-20.02 0,-9.26 5.96,-17.15 14.25,-20.02 3.66,-1.28 6.92,-4.32 6.92,-8.2l0 -28.22c0,-15.57 -12.66,-28.23 -28.22,-28.23l-197.56 0zm-1065.78 83.37c0,-9.23 1.79,-18.5 5.38,-27.8 2.59,-6.72 6.21,-12.86 10.9,-18.46 4.69,-5.57 10.57,-10.57 17.66,-14.91 7.05,-4.35 14.26,-7.48 21.66,-9.39 7.36,-1.9 15.56,-2.86 24.64,-2.86 15.48,0 28.91,2.9 40.31,8.74 11.4,5.79 20.36,13.65 26.88,23.57 8.51,12.89 12.74,26.43 12.74,40.57 0,21.09 -7.17,39.13 -21.47,54.2 -14.34,15.06 -34.25,22.57 -59.8,22.57 -6.33,0 -12.24,-0.42 -17.73,-1.22 -4.16,-0.61 -7.82,-1.41 -10.95,-2.48 -5.64,-1.87 -8.81,-2.93 -9.49,-3.24 -8.09,-4.61 -14.61,-9.34 -19.53,-14.18 -4.92,-4.85 -9.07,-10.3 -12.51,-16.44 -1.83,-3.43 -3.96,-9.61 -6.33,-18.54 -1.56,-5.75 -2.36,-12.43 -2.36,-20.13zm75.93 -62.43c-6.49,0 -12.21,1.52 -17.2,4.54 -5,3.01 -8.77,6.33 -11.29,9.99 -4.27,6.18 -7.28,12.96 -9.08,20.29 -1.79,7.36 -2.67,16.28 -2.67,26.81 0,6.4 0.27,10.98 0.8,13.73 0.12,0.91 0.35,2.44 0.65,4.61 0.69,5.49 1.45,9.53 2.37,12.05 3.2,9.46 5.45,15.33 6.82,17.58 2.22,3.78 5.53,7.55 9.92,11.29 2.25,1.91 5.49,3.7 9.72,5.3 4.28,1.6 8.51,2.4 12.78,2.4 8.05,0 15.52,-1.86 22.42,-5.64 6.87,-3.77 12.4,-10.14 16.59,-19.18 4.16,-9 6.26,-20.75 6.26,-35.24 0,-5.95 -0.42,-14.03 -1.22,-24.26l-0.57 -2.13c-0.23,-0.57 -0.61,-2.1 -1.11,-4.58 -2.78,-12.2 -8.05,-21.54 -15.83,-27.95 -7.78,-6.41 -17.58,-9.61 -29.36,-9.61zm101.97 137.29l0.23 -8.12c1.64,-0.38 4.35,-0.96 8.16,-1.68 3.78,-0.76 7.56,-1.6 11.37,-2.59l2.1 -1.34c0.68,-2.97 1.03,-6.02 1.03,-9.15l0 -0.65 -0.38 -25.82 0.11 -10.83 -0.42 -15.94 0.23 -18.99 -1.34 -37.41c-1.1,-0.96 -4.72,-1.91 -10.79,-2.9 -1.49,-0.27 -3.66,-0.8 -6.48,-1.64l-2.67 -0.99 0 -7.71 14.72 0.54c8.92,0.87 22.04,1.29 39.36,1.29 8.73,0 17.77,-0.23 27.24,-0.68l2.13 -0.12 5.46 0.12 2.21 -0.12 4.69 0 19.98 -0.69c0.88,0 2.06,-0.07 3.51,-0.22 1.45,-0.16 2.78,-0.27 4.08,-0.35 0.42,2.25 0.73,4.46 0.88,6.71l1.6 21.02c0,2.21 -0.23,3.93 -0.65,5.11 -2.74,0.38 -4.73,0.57 -6.02,0.57 -1.53,0 -2.71,-0.34 -3.63,-0.99 -0.45,-0.46 -1.29,-2.14 -2.55,-5.07 -3.13,-7.52 -5.76,-11.98 -7.93,-13.39 -2.22,-1.37 -8.28,-2.06 -18.31,-2.06l-15.34 0.46c-6.52,0.08 -11.67,0.46 -15.45,1.11 -0.8,0.15 -1.98,0.53 -3.54,1.1 -0.96,1.72 -1.41,3.93 -1.41,6.64l0.22 13.31 -0.22 15.25c0,7.74 0.26,12.51 0.76,14.3 0.65,0.46 1.22,0.73 1.64,0.8l7.93 0.12 13.39 0c2.98,0 7.52,-0.38 13.7,-1.11 4.23,-0.53 6.86,-1.14 7.82,-1.79 1.79,-1.22 3.05,-2.71 3.85,-4.54 0.76,-1.83 1.33,-6.29 1.71,-13.38 0.38,0 1.38,-0.04 3.02,-0.12 1.03,-0.08 1.75,-0.11 2.13,-0.11 0.8,0 2.44,0.11 4.88,0.34l-0.64 17.85c-0.04,3.81 -0.16,7.09 -0.35,9.84l0.23 2.44c0.08,0.76 0.12,6.25 0.12,16.55 0,0.65 -0.04,1.75 -0.12,3.32 -1.45,0.3 -2.55,0.45 -3.39,0.45 -0.61,0 -2.06,-0.22 -4.39,-0.68 -0.69,-1.38 -1.45,-3.43 -2.25,-6.1 -1.72,-5.84 -3.55,-9.27 -5.57,-10.22 -3.58,-1.8 -14.79,-2.67 -33.68,-2.67 -2.75,0 -5.95,0.26 -9.61,0.76 -0.5,3.13 -0.76,6.75 -0.76,10.83l0.53 33.52c0.08,6.18 0.76,9.99 2.02,11.4 0.8,0.88 3.59,1.8 8.35,2.67l2.21 0.23c3.36,0.23 6.3,0.69 8.81,1.45l3.02 0.69c0.3,1.91 0.45,3.39 0.45,4.46 0,1.11 -0.11,2.52 -0.34,4.23l-2.13 -0.11 -3.44 0.11 -15.86 -0.8c-1.76,-0.07 -10.11,-0.11 -24.98,-0.11 -4.08,0 -8.01,0.23 -11.71,0.68 -5.87,0.69 -9.08,1.03 -9.61,1.03 -4.81,0 -8.12,-0.03 -9.92,-0.11zm142.95 -0.69l0 -8.01c1.49,-0.45 3.97,-1.1 7.44,-1.9 4.88,-1.22 8.5,-2.44 10.91,-3.74 1.33,-2.29 2.02,-5.49 2.02,-9.61l-0.12 -13.16 0.23 -25.51 -0.11 -6.03c0.46,-14.75 0.68,-22.34 0.68,-22.8l-0.11 -14.88 0.23 -6.02 -0.34 -12.74 -0.23 -4.8c-0.08,-0.73 -0.35,-1.95 -0.8,-3.59 -3.06,-1.41 -8.05,-2.29 -14.95,-2.67 -1.64,-0.04 -2.94,-0.11 -3.93,-0.23l-0.23 -9.84 31.92 1.38c3.93,0.15 6.37,0.23 7.36,0.23 4.39,0 11.4,-0.31 21.09,-0.92 5.42,-0.38 8.85,-0.61 10.26,-0.69 0.04,1.42 0.07,2.6 0.07,3.59 0,1.26 -0.07,2.9 -0.19,4.92 -2.97,1.03 -6.4,1.98 -10.25,2.9 -3.86,0.91 -7.02,1.87 -9.46,2.78 -0.46,1.95 -0.69,4.77 -0.69,8.39 0,3.2 0.12,5.84 0.34,7.82 -0.22,12.62 -0.34,22.31 -0.34,29.06l0.12 29.52 -0.23 14.98 0.11 22.35 0 4.24c0,0.61 0.12,1.45 0.34,2.59 4.58,0.95 8.74,1.64 12.47,1.98 0.69,0.08 2.98,0.38 6.87,0.92 0.3,2.25 0.46,4.12 0.46,5.6 0,0.8 -0.04,2.06 -0.12,3.78 -0.95,0 -1.71,0.04 -2.25,0.11 -2.36,0.16 -3.73,0.23 -4.12,0.23 -0.53,0 -1.48,-0.11 -2.89,-0.34 -1.07,-0.12 -6.03,-0.65 -14.92,-1.49l-19.79 -0.23c-3.97,0 -9.69,0.35 -17.24,1.07 -4.92,0.46 -8.12,0.69 -9.61,0.76zm218.71 -142.21c0.96,2.25 2.94,8.58 5.92,19.07 1.33,4.73 2.05,9.8 2.13,15.14l-10.18 0c-7.17,-10.11 -14.53,-17.35 -22.16,-21.74 -7.59,-4.42 -16.09,-6.63 -25.47,-6.63 -11.56,0 -20.9,4.5 -28,13.5 -9.61,12.16 -14.41,29.17 -14.41,50.95 0,12.62 0.84,21.62 2.48,27 2.67,8.69 6.06,15.79 10.14,21.28 3.17,4.16 7.25,7.47 12.32,9.91 6.56,3.36 13.58,5.04 21.01,5.04 8.24,0 16.13,-2.56 23.8,-7.63 7.63,-5.11 14.95,-12.7 21.97,-22.84 2.74,-0.5 6.33,-0.8 10.79,-0.88 -0.31,2.82 -0.76,5.76 -1.45,8.81 -0.23,1.18 -1.07,5.91 -2.56,14.19l-0.99 3.31 -1.52 5.27c-4.58,3.51 -10.95,6.14 -19.19,7.89 -8.23,1.76 -18.34,2.63 -30.35,2.63 -9.15,0 -17.81,-0.84 -25.97,-2.55 -8.16,-1.72 -15.14,-4.43 -20.94,-8.16 -8.5,-5.34 -15.18,-11.18 -20.02,-17.39 -4.85,-6.26 -8.43,-13.08 -10.79,-20.45 -2.33,-7.36 -3.51,-15.63 -3.51,-24.78 0,-22.16 7.32,-40.47 21.96,-54.88 14.65,-14.46 33.34,-21.66 56.03,-21.66 9.26,0 17.96,0.45 26.12,1.41 8.12,0.91 15.75,2.32 22.84,4.19zm26.85 142.21l0 -8.01c1.49,-0.45 3.97,-1.1 7.44,-1.9 4.88,-1.22 8.5,-2.44 10.91,-3.74 1.33,-2.29 2.02,-5.49 2.02,-9.61l-0.12 -13.16 0.23 -25.51 -0.11 -6.03c0.46,-14.75 0.68,-22.34 0.68,-22.8l-0.11 -14.88 0.23 -6.02 -0.34 -12.74 -0.23 -4.8c-0.08,-0.73 -0.35,-1.95 -0.8,-3.59 -3.06,-1.41 -8.05,-2.29 -14.95,-2.67 -1.64,-0.04 -2.94,-0.11 -3.93,-0.23l-0.23 -9.84 31.92 1.38c3.93,0.15 6.37,0.23 7.36,0.23 4.39,0 11.4,-0.31 21.09,-0.92 5.42,-0.38 8.85,-0.61 10.26,-0.69 0.04,1.42 0.07,2.6 0.07,3.59 0,1.26 -0.07,2.9 -0.19,4.92 -2.97,1.03 -6.4,1.98 -10.25,2.9 -3.86,0.91 -7.02,1.87 -9.46,2.78 -0.46,1.95 -0.69,4.77 -0.69,8.39 0,3.2 0.12,5.84 0.34,7.82 -0.22,12.62 -0.34,22.31 -0.34,29.06l0.12 29.52 -0.23 14.98 0.11 22.35 0 4.24c0,0.61 0.12,1.45 0.34,2.59 4.58,0.95 8.74,1.64 12.47,1.98 0.69,0.08 2.98,0.38 6.87,0.92 0.3,2.25 0.46,4.12 0.46,5.6 0,0.8 -0.04,2.06 -0.12,3.78 -0.95,0 -1.71,0.04 -2.25,0.11 -2.36,0.16 -3.73,0.23 -4.12,0.23 -0.53,0 -1.48,-0.11 -2.89,-0.34 -1.07,-0.12 -6.03,-0.65 -14.92,-1.49l-19.79 -0.23c-3.97,0 -9.69,0.35 -17.24,1.07 -4.92,0.46 -8.12,0.69 -9.61,0.76zm78.49 0l0.22 -7.7c1.42,-0.42 3.89,-0.99 7.48,-1.68 5.72,-1.1 9.19,-2.1 10.41,-2.97 1.22,-0.88 2.71,-3.02 4.5,-6.37l22.54 -59.11 26.39 -69.53c2.52,0 4.88,0 7.17,0l5.11 0 0.99 2.02 19.37 46.04c4.4,9.76 8.33,19.25 11.8,28.45 3.51,9.19 6.48,16.7 9,22.53 1.49,3.51 3.55,8.74 6.14,15.75 1.33,3.82 3.36,8.59 6.1,14.31 1.53,3.12 2.63,4.92 3.4,5.45 1.37,1.11 3.54,1.83 6.59,2.21 3.05,0.38 6.37,1.22 9.88,2.56 0.38,2.48 0.57,4.34 0.57,5.56 0,0.54 -0.04,1.34 -0.11,2.48 -5.53,0 -11.6,-0.26 -18.23,-0.8 -6.64,-0.53 -12.59,-0.8 -17.89,-0.8 -5.87,0 -10.14,0.08 -12.74,0.23l-19 0.92 -5.49 0.22c0,-2.59 0.12,-5.11 0.34,-7.47l12.4 -2.67c3.74,-0.95 5.91,-1.72 6.48,-2.21 0.76,-0.76 1.15,-1.6 1.15,-2.56 0,-0.99 -0.19,-1.98 -0.58,-3.01l-4.46 -10.94 -8.77 -21.93 -42.67 0c-1.57,3.54 -4.85,12.28 -9.81,26.16 -1.41,3.93 -2.13,6.6 -2.13,8.01 0,1.94 0.53,3.32 1.56,4.12 1.72,1.41 5,2.44 9.84,3.01 0.69,0.15 3.32,0.57 7.93,1.22 0.08,2.67 0.12,4.5 0.12,5.53 0,0.8 -0.08,1.64 -0.23,2.52 -4.61,0 -15.64,-0.58 -33.03,-1.72l-4.57 0.8c-5.53,0.92 -10.76,1.37 -15.75,1.37l-2.02 0zm52.51 -62.81c17.43,0.23 27.69,0.35 30.81,0.35l2.79 -0.12c-2.21,-6.63 -5.15,-14.38 -8.7,-23.19 -3.58,-8.84 -6.52,-15.59 -8.73,-20.21l-16.17 43.17zm105.8 53.62c2.32,-0.72 5.57,-1.41 9.76,-1.98 4.23,-0.61 6.71,-0.92 7.44,-0.92 2.9,-0.07 4.84,-0.53 5.79,-1.37 0.46,-1.79 0.69,-3.28 0.69,-4.46l-0.23 -14.34 0.69 -14.53 0 -9.31 0.11 -10.94 -0.23 -11.67 0.46 -24.94 0.12 -11.29 0 -1.56c-0.54,-7.86 -1.03,-12.17 -1.53,-12.93 -0.46,-0.8 -2.59,-1.79 -6.41,-2.98 -0.38,-0.15 -1.79,-0.72 -4.23,-1.67 -1.87,-0.77 -3.55,-1.26 -5.03,-1.57 -2.6,-0.69 -4.43,-1.45 -5.46,-2.36 -0.15,-1.95 -0.23,-3.44 -0.23,-4.5 0,-0.58 0.04,-1.49 0.12,-2.67 0.65,-0.38 1.37,-0.57 2.13,-0.57 1.76,0 8.24,0.34 19.42,1.02l15.98 -0.11 11.86 0.23c5.14,0 11.74,-0.31 19.79,-0.88 2.36,-0.19 3.74,-0.26 4.12,-0.26 1.1,0 1.9,0.3 2.36,0.87 0.57,0.77 0.88,2.21 0.88,4.31 0,1.68 -0.42,2.94 -1.22,3.82 -0.46,0.49 -2.1,0.95 -4.96,1.33l-13.88 3.24c-0.38,0.15 -1.03,0.46 -1.91,0.88 -0.3,0.53 -0.53,0.99 -0.68,1.37l-0.12 3.13 -0.34 7.05 0 2.03 0 1.22c0,0.38 -0.04,2.4 -0.15,6.14 -0.04,0.99 -0.08,1.94 -0.08,2.93 0,1.18 0.04,3.21 0.08,6.03 0.11,4.46 0.15,8.39 0.15,11.74 0,3.89 -0.12,8.32 -0.34,13.31 -0.08,1.87 -0.12,4.31 -0.12,7.29l-0.46 53.05c0,2.25 0.5,3.7 1.45,4.38l10.6 0.42 6.6 -0.11 7.06 0.11c11.97,0 21.35,-1.37 28.18,-4.16 5.15,-2.05 8.47,-4.15 10.03,-6.25 2.52,-2.25 4.58,-4.65 6.18,-7.28 1.6,-2.6 3.39,-6.94 5.41,-12.97l3.59 0c1.79,0 3.77,0.15 6.02,0.46l0 3.12c0,5.34 -0.68,14.73 -2.02,28.15 -0.49,5.34 -1.03,8.62 -1.56,9.8 -1.68,0.31 -2.78,0.46 -3.2,0.46l-4.12 0 -5.8 0.11c-0.69,0 -5.15,-0.3 -13.35,-0.87 -1.48,-0.08 -8.62,-0.31 -21.39,-0.77 -12.78,-0.42 -25.29,-0.65 -37.57,-0.65l-22.65 0.65c-8.73,0.23 -16.89,0.61 -24.52,1.18l-1.68 0c-0.46,0 -1.18,-0.03 -2.17,-0.11 -0.16,-0.8 -0.23,-1.53 -0.23,-2.1 0,-3.09 0.26,-5.37 0.8,-6.75zm-1392.36 -129.18l-0.46 -7.05c0.92,-0.42 1.6,-0.61 2.14,-0.61 6.17,0.38 12.39,0.64 18.57,0.83 2.55,0.04 4.19,0.08 4.92,0.08 2.71,0 5.83,-0.11 9.42,-0.3l14.57 -0.61c0.49,0.26 0.84,0.64 0.99,1.14l-0.88 5.26c-1.45,0.92 -2.82,1.68 -4.16,2.37 -3.01,1.64 -4.5,2.97 -4.5,4.04 0,0.95 0.39,2.17 1.15,3.7 0.42,0.88 1.03,2.4 1.75,4.58 1.26,3.62 4.85,12.5 10.72,26.58l28.83 67.42c3.85,-7.05 9.8,-18.95 17.92,-35.69l-16.28 -39.32c-3.01,-7.36 -5.64,-13.46 -7.89,-18.23 -0.77,-1.57 -1.41,-3.05 -1.91,-4.46 -0.46,-0.77 -1.07,-1.87 -1.83,-3.32 -0.73,-1.45 -1.91,-2.63 -3.47,-3.59 -1.57,-0.91 -5.34,-2.09 -11.25,-3.51l0.46 -6.75c2.4,0 5.64,0.12 9.83,0.31 6.03,0.42 9.92,0.61 11.64,0.61l15.63 -0.23 19.34 -1.14c0.38,0.07 0.87,0.11 1.56,0.11l0.12 3.89 0 1.37c0,0.46 -0.16,1.07 -0.46,1.83 -1.26,0.39 -3.28,0.73 -6.03,1.03 -1.94,0.16 -3.28,0.58 -4.08,1.22 -0.76,0.69 -1.18,1.45 -1.18,2.37 0,2.21 0.8,4.96 2.36,8.16 0.65,1.41 1.57,3.55 2.67,6.48 3.74,9.54 6.64,16.48 8.66,20.86l7.86 -16.17c3.62,-7.47 5.98,-12.92 7.09,-16.43 0.19,-0.77 0.27,-1.38 0.27,-1.91l0 -0.65c-0.88,-0.99 -1.72,-1.68 -2.44,-2.02 -1.87,-0.84 -5,-1.83 -9.46,-2.94 -0.15,-1.41 -0.23,-2.51 -0.23,-3.27 0,-0.81 0.11,-2.06 0.34,-3.7 2.44,0 9.38,0.15 20.79,0.45 6.75,0.23 11.06,0.35 12.93,0.35 1.56,0 2.93,-0.04 4.11,-0.08 1.19,-0.04 2.45,-0.04 3.78,-0.04l0.15 0.92 -0.23 5.15 -0.22 0.57c-8.01,2.36 -12.82,4.08 -14.38,5.15 -1.57,1.06 -3.05,2.82 -4.46,5.26 -3.7,6.52 -10.61,20.14 -20.67,40.88l0.45 1.03 7.13 16.55 12.21 28.72c1.26,2.82 2.17,4.92 2.67,6.25l14.03 -36.87 19.57 -50.19 3.12 -9.38c0.16,-0.61 0.23,-1.19 0.23,-1.8l-0.34 -1.9c-2.52,-0.8 -4.54,-1.45 -6.14,-1.83 -1.6,-0.42 -2.98,-0.99 -4.16,-1.76 -0.23,-2.48 -0.34,-4.04 -0.34,-4.65 0,-0.61 0.27,-1.37 0.76,-2.36l1.79 -0.42 16.71 0.68 11.02 -0.46 2.33 0.27c0.22,1.37 0.34,2.56 0.34,3.62 0,1.34 -0.27,2.41 -0.8,3.25 -0.34,0.53 -1.11,0.99 -2.21,1.37 -3.09,1.49 -5.19,2.9 -6.3,4.27 -0.8,0.88 -1.98,3.39 -3.47,7.51 -6.44,17.43 -13.08,34.21 -19.94,50.38 -6.83,16.13 -17.01,41.88 -30.59,77.15l-11.17 0c-0.76,-2.67 -1.57,-4.96 -2.48,-6.79 -2.17,-4.84 -3.43,-7.89 -3.81,-9.15l-12.4 -28.56c-2.02,-4.77 -3.66,-8.32 -4.96,-10.61 -0.19,-0.38 -0.49,-0.87 -0.87,-1.56 -0.16,0.38 -4.12,7.86 -11.86,22.46 -7.75,14.61 -13.43,26.01 -17.05,34.21l-11.71 0c-2.67,-8.2 -7.89,-20.78 -15.71,-37.75l-35.96 -84.4c-3.82,-8.58 -6.56,-13.69 -8.24,-15.33 -0.57,-0.57 -1.72,-1.22 -3.36,-1.91 -0.61,-0.19 -1.45,-0.53 -2.59,-0.99zm209.37 -8.35c4.23,0.23 7.93,0.57 11.06,1.03 5.87,0.84 12.7,1.26 20.44,1.26 2.7,0 9.57,-0.23 20.67,-0.65 16.63,-0.65 31.62,-0.95 45.05,-0.95l20.21 -0.23c4.58,0 11.25,0.57 20.14,1.67 1.33,1.49 2.02,3.51 2.02,6.03l0 23 0.23 4.57c0,0.46 -0.04,1.15 -0.12,2.02l-4.58 0.23c-0.57,0 -1.83,-0.07 -3.77,-0.23 -0.69,-1.48 -1.6,-3.69 -2.75,-6.63l-4.54 -7.97c-1.71,-3.4 -4.15,-6.83 -7.24,-10.34 -1.87,-0.53 -4.27,-0.84 -7.17,-0.91 -0.76,-0.08 -3.01,-0.27 -6.83,-0.54 -6.94,-0.57 -14.41,-0.83 -22.42,-0.83 -9.08,0 -17.24,0.15 -24.42,0.45 0.04,1.87 0.08,9.16 0.08,21.89l-0.08 18.69 0 14c1.88,0.23 3.48,0.34 4.82,0.34 13.27,0 22.73,-0.27 28.37,-0.76 5.64,-0.54 9.11,-1.26 10.45,-2.18 1.33,-0.95 2.55,-2.55 3.58,-4.84 0.65,-1.64 1.95,-7.09 3.89,-16.36l1.45 -0.12 6.56 0c0.31,6.64 0.46,11.67 0.46,15.11 0,7.81 -0.04,12.85 -0.11,15.06 -0.08,2.25 -0.12,4 -0.12,5.26 0,2.02 0.12,5.23 0.34,9.65 0.23,4.43 0.35,7.74 0.35,9.88l0 2.48 -8.01 0c-0.31,-1.18 -0.84,-3.62 -1.68,-7.32 -1.49,-6.91 -2.82,-11.22 -4,-12.93 -0.92,-1.34 -2.41,-2.33 -4.46,-3.02 -1.49,-0.49 -7.02,-0.76 -16.52,-0.76 -11.25,0 -19.68,0.31 -25.37,0.92 0,1.94 0,3.2 0,3.77 0,8.89 0,16.25 0,22.12l0 24.07c0,2.86 1.03,4.76 3.06,5.83 3.05,1.57 12.43,2.33 28.15,2.33 10.41,0 19.22,-0.76 26.46,-2.33 5.04,-1.14 9.46,-3.62 13.28,-7.47 5.07,-5 9.3,-11.98 12.66,-20.98 2.32,-0.23 4.19,-0.34 5.68,-0.34 0.84,0 2.06,0.04 3.7,0.11 -0.23,1.87 -0.42,3.44 -0.57,4.69l-0.65 3.36 -4.12 21.09 -1.98 12.74c-4.85,0.23 -8.66,0.34 -11.52,0.34 -4.16,0 -15.29,-0.34 -33.41,-1.07 -12.74,-0.49 -28.07,-0.76 -46,-0.76 -8.96,0 -19.95,0.38 -32.99,1.14l-4.69 0 -13.5 0.46 0 -7.78c1.41,-0.38 4.23,-0.76 8.47,-1.22 7.7,-0.91 13.04,-2.1 16.01,-3.58 0.77,-2.14 1.15,-4.89 1.15,-8.13 0,-1.29 -0.04,-3.43 -0.12,-6.48l0.12 -3.47 -0.31 -42.07 0.12 -12.62 -0.5 -17.85 0.11 -12.62 -1.03 -13.84c0,-0.38 -0.07,-1.11 -0.22,-2.25 -0.73,-0.8 -1.83,-1.34 -3.32,-1.57 -0.84,-0.11 -1.95,-0.34 -3.36,-0.65 -4.23,-0.87 -8.31,-1.41 -12.24,-1.56 -1.41,-0.08 -3.01,-0.23 -4.88,-0.46l0.46 -8.92zm165.79 145.53l0.23 -8.85c1.79,-0.46 3.92,-0.84 6.4,-1.22 4.81,-0.69 8.74,-1.64 11.75,-2.94 1.07,-1.67 1.72,-3.31 2.02,-4.92 0.57,-4.15 0.88,-10.29 0.88,-18.42l-0.23 -47.51c0,-4.92 -0.23,-17.78 -0.69,-38.56 -0.15,-5.57 -0.53,-9.04 -1.1,-10.37 -0.23,-0.46 -0.61,-0.84 -1.15,-1.15 -1.18,-0.8 -3.43,-1.29 -6.71,-1.45 -1.41,-0.07 -5.07,-0.45 -10.94,-1.22l-0.23 -8.01 25.01 -0.53 36.46 -1.18 4.39 -0.12c0.88,-0.07 1.75,-0.11 2.67,-0.11 0.72,0 2.71,0.04 5.91,0.11l7.13 0c5.64,-0.07 11.78,0.77 18.42,2.56 2.29,0.61 5.34,1.87 9.15,3.74 3.78,1.9 7.1,4.31 9.88,7.24 2.78,2.98 4.84,6.26 6.18,9.88 1.33,3.66 2.02,7.55 2.02,11.63 0,4.54 -0.99,8.62 -3.01,12.21 -2.02,3.62 -5.07,6.94 -9.19,9.99 -2.06,1.48 -6.91,3.93 -14.42,7.36 11.29,2.55 19.87,7.21 25.78,13.96 5.91,6.75 8.85,14.26 8.85,22.53 0,4.92 -0.92,10.07 -2.79,15.45 -1.33,4 -3.62,7.74 -6.82,11.17 -4.23,4.54 -8.73,7.97 -13.46,10.3 -4.73,2.33 -11.25,4.23 -19.61,5.72 -4.15,0.73 -10.48,1.11 -18.95,1.11l-18.99 -0.46c-8.05,0 -17.62,0.34 -28.72,1.07 -3.13,0.15 -11.82,0.49 -26.12,0.99zm51.83 -84.89c2.97,0.45 6.48,0.68 10.52,0.68 11.18,0 19.64,-2.06 25.36,-6.21 5.76,-4.12 8.62,-11.25 8.62,-21.4 0,-7.13 -2.71,-13.12 -8.12,-17.88 -5.42,-4.77 -13.58,-7.14 -24.49,-7.14 -3.12,0 -7.28,0.42 -12.47,1.22 0,1.72 0.08,4.2 0.19,7.4 0.35,6.33 0.5,15.18 0.5,26.58l-0.23 9.39c0,1.64 0.04,4.11 0.12,7.36zm1.44 71.35c4.85,2.02 9.35,3.01 13.5,3.01 8.51,0 15.41,-1.29 20.79,-3.85 5.38,-2.59 9.27,-6.18 11.71,-10.79 2.48,-4.62 3.7,-10.41 3.7,-17.35 0,-7.14 -1.34,-12.89 -4.01,-17.2 -3.74,-5.99 -8.24,-10 -13.54,-12.02 -5.26,-2.06 -13.19,-3.09 -23.76,-3.09 -4.69,0 -7.93,0.35 -9.72,1l0 13.76 -0.23 16.55 0.34 25.71c0.12,1.22 0.5,2.63 1.22,4.27zm-793 -25.63c-1.84,5.03 -2.75,10.11 -2.75,15.25 0,3.75 0.88,6.76 2.67,9 1.16,1.57 2.75,2.33 4.77,2.33 1.22,0 2.3,-0.25 3.24,-0.74 2.07,-1.05 3.83,-2.27 5.31,-3.69 1.47,-1.42 3.01,-3.29 4.63,-5.56 1.62,-2.3 2.92,-4.89 3.92,-7.73l1.16 0c0.65,0 1.42,0.06 2.24,0.17 -1.67,6.16 -5.76,12.21 -12.32,18.15 -4.12,3.69 -8.35,5.54 -12.72,5.54 -2.96,0 -5.46,-1.34 -7.51,-4.01 -2.73,-3.49 -4.09,-8.29 -4.09,-14.45 0,-2.67 0.4,-5.85 1.19,-9.57 0.83,-3.72 1.73,-6.82 2.81,-9.32 1.66,-3.89 3.54,-7.55 5.58,-10.99l6.39 -9.31c4.17,-4.43 6.5,-6.87 6.99,-7.3 1.96,-1.68 3.89,-2.93 5.87,-3.81 1.96,-0.85 4.01,-1.27 6.11,-1.27 2.73,0 5.08,1.13 7.16,3.4 2.04,2.28 3.06,5.14 3.06,8.58 0,3.07 -0.79,6.08 -2.38,9.06 -1.56,2.95 -3.27,5.14 -5.11,6.53l-6.9 4.49c-0.77,0.4 -2.87,1.11 -6.25,2.13 -3.38,1.02 -7.76,2.07 -13.07,3.12zm188.46 -85.31l0.28 -2.58c7.32,-0.61 12.86,-0.92 16.64,-0.92l3.97 0 0 1.11 -2.8 8.76c-0.12,0.22 -2.31,5.79 -6.58,16.65l-12.19 31.71c-2.18,5.97 -5.78,15.14 -10.82,27.6l-2.99 7.81c-2.12,5.72 -3.78,9.57 -5.07,11.54 -1.97,3.26 -2.96,5.69 -2.96,7.26l0.34 1.44c1.97,-0.18 4.43,-1.53 7.35,-4.06 4.28,-3.57 8.19,-8.12 11.66,-13.66 1.14,-0.24 2,-0.37 2.62,-0.37l1.01 0.1c-2.24,4.37 -4.67,7.96 -7.29,10.7 -4.09,4.34 -6.95,7.08 -8.49,8.22 -3.48,2.64 -6.8,4.64 -10,6.03 -2.03,0.89 -4.03,1.35 -5.97,1.35 -1.04,0 -1.84,-0.28 -2.36,-0.8 -0.53,-0.55 -0.77,-1.23 -0.77,-2.06 0,-2.83 4.8,-15.23 14.42,-37.23 2.93,-6.64 6,-14.27 9.2,-22.88 5.57,-15.02 9.88,-25.72 12.89,-32.09 2.99,-6.37 5.2,-12.09 6.56,-17.2 0.12,-0.52 0.18,-0.95 0.18,-1.29 0,-0.86 -0.4,-1.66 -1.23,-2.4 -1.08,-0.92 -3.6,-1.81 -7.6,-2.74zm67.71 50.92c0.58,-1.02 0.98,-1.79 1.17,-2.31 0.74,-1.78 1.47,-2.95 2.21,-3.48 1.76,-0.18 3.02,-0.27 3.85,-0.27 1.04,0 2.06,0.21 3.07,0.64l0.28 1.14c0,0.37 -0.15,0.89 -0.46,1.63 -0.18,0.37 -0.58,1.51 -1.2,3.42l-0.71 1.81 -6 16.09c-2.55,7.29 -4.76,13.08 -6.67,17.38 -1.91,4.34 -3.57,8.74 -4.95,13.2 -1.39,4.46 -2.65,7.66 -3.82,9.6l-0.37 0.86c0,0.37 0.34,0.83 0.96,1.41 2.52,-1.5 4.64,-3.13 6.36,-4.89 4.46,-4.55 7.11,-7.35 7.94,-8.43 0.62,-0.8 1.2,-1.5 1.75,-2.18 0.68,0.62 1.3,1.23 1.85,1.91 -1.6,2.34 -4.31,5.53 -8.12,9.56 -3.79,4.03 -7.2,6.9 -10.25,8.59 -2.37,1.26 -4.58,1.9 -6.64,1.9 -1.32,0 -2.31,-0.3 -2.99,-0.89 -0.64,-0.58 -0.98,-1.38 -0.98,-2.34 0,-0.83 0.31,-2.36 0.89,-4.64 1.51,-3.97 2.56,-6.58 3.17,-7.85 0.59,-1.26 1.42,-3.19 2.43,-5.84 0.59,-1.63 1.82,-4.43 3.69,-8.46 -1.17,1.14 -2.61,2.83 -4.33,5.05 -5.02,6.12 -10.74,11.93 -17.23,17.41 -1.48,1.26 -5.05,3.26 -10.74,6.03 -2.09,0.8 -4.55,1.29 -7.38,1.53 -2.4,-0.06 -4.03,-0.3 -4.83,-0.73 -1.48,-0.77 -2.68,-2 -3.6,-3.69 -0.68,-1.27 -1.02,-3.24 -1.02,-5.88 0,-3.85 0.87,-8.12 2.59,-12.83 2.92,-8 5.9,-13.93 8.92,-17.81 5.14,-6.68 10.24,-11.97 15.32,-15.87 5.04,-3.94 9.69,-6.8 13.94,-8.62 5.56,-2.4 10.42,-3.6 14.52,-3.6 1.35,0 2.64,0.13 3.87,0.37 1.23,0.25 2.4,0.59 3.51,1.08zm-43.96 59.37c1.47,-0.37 2.77,-0.86 3.87,-1.54 0.71,-0.37 3.11,-2.03 7.26,-4.98 7.54,-7.41 11.82,-11.66 12.8,-12.77 2.19,-2.34 4.62,-5.57 7.35,-9.66 0.74,-1.04 2.31,-3.87 4.74,-8.52l2.34 -6.24c0.83,-3.7 1.26,-5.79 1.26,-6.34 0,-1.69 -0.71,-3.29 -2.09,-4.8 -0.92,-0.89 -2.46,-1.35 -4.55,-1.35 -2.4,0 -4.5,0.4 -6.22,1.17 -3.87,1.81 -7.44,4.12 -10.64,6.89 -4.34,3.78 -8.52,8.67 -12.52,14.61 -4.03,5.94 -6.86,10.92 -8.55,14.89 -2.28,5.51 -3.42,9.6 -3.42,12.3 0,2.25 0.46,3.91 1.38,4.99 0.93,1.07 2.13,1.63 3.54,1.63 0.49,0 1.63,-0.09 3.45,-0.28zm-210.79 -29.24c1.77,0.06 4.55,-0.62 8.33,-2.07 2.07,-0.77 4.77,-2.3 8.17,-4.57 1.34,-0.88 2.87,-2.42 4.58,-4.55 1.73,-2.13 3.03,-4.34 3.91,-6.64 0.89,-2.3 1.34,-4.66 1.34,-7.1 0,-1.62 -0.48,-2.93 -1.42,-3.98 -0.94,-1.05 -1.99,-1.59 -3.15,-1.59 -1.51,0 -3.3,0.85 -5.34,2.59 -3.44,2.98 -7.07,8 -10.85,15.02 -2.81,5.39 -4.69,9.68 -5.57,12.89zm58.14 -23.4c-0.12,-0.42 -0.26,-0.74 -0.46,-0.88 -0.2,-0.17 -0.42,-0.25 -0.71,-0.25 -2.87,0 -7.35,4.57 -13.43,13.71 -0.6,0.06 -1.05,0.09 -1.33,0.09 -0.32,0 -0.88,-0.03 -1.65,-0.09 1.16,-2.33 3.07,-5.28 5.71,-8.83 2.64,-3.55 5.45,-6.53 8.43,-8.89 2.95,-2.36 5.79,-4.12 8.46,-5.28 0.88,-0.4 1.68,-0.6 2.42,-0.6 0.28,0 0.68,0.03 1.25,0.09 0.99,0.99 1.5,2.01 1.5,3.07 0,0.68 -0.08,1.33 -0.23,1.98 -0.14,0.68 -0.42,1.71 -0.88,3.07 -1.64,4.77 -2.89,8.09 -3.66,10.05l-4.77 12.27c-1.11,2.81 -2.19,5.79 -3.24,8.95 0.43,-0.54 0.83,-1.08 1.17,-1.57 5.17,-7.55 10.73,-14.76 16.72,-21.66 6,-6.9 10.91,-11.5 14.83,-13.83 2.75,-1.74 5.42,-2.59 7.92,-2.59 1.88,0 3.35,0.51 4.4,1.56 1.08,1.03 1.59,2.36 1.59,3.98 0,1.02 -0.11,1.99 -0.31,2.95 -0.4,2.11 -1.28,5.03 -2.61,8.81 -1.37,3.75 -4.89,11.92 -10.59,24.5l-8.41 19.2 -0.34 1.08c0,0.34 0.2,0.82 0.59,1.48 3.13,-0.66 7.81,-5.6 14.03,-14.83l3.44 0.09c-1.73,3.09 -4.57,7.1 -8.52,11.98 -3.04,3.72 -6.33,6.62 -9.83,8.66 -1.95,1.17 -4.06,1.77 -6.27,1.77 -1.34,0 -2.33,-0.29 -3.01,-0.83 -0.65,-0.57 -1,-1.16 -1,-1.82 0,-2.95 1.42,-7.46 4.26,-13.63l12.1 -26.38 4.66 -11.07c1.05,-2.45 1.7,-4.12 1.93,-5.06 0.2,-0.96 0.31,-1.9 0.31,-2.84 0,-0.77 -0.2,-1.36 -0.57,-1.79 -0.39,-0.42 -0.88,-0.65 -1.5,-0.65 -0.88,0 -1.9,0.37 -3.07,1.08 -4.09,2.44 -8.6,6.64 -13.54,12.58 -7.1,8.57 -11.79,14.71 -14.12,18.43 -5.85,9.23 -10.93,18.66 -15.28,28.26 -0.68,1.59 -1.47,2.72 -2.41,3.46 -1.16,0.17 -2.07,0.26 -2.67,0.26 -0.71,0 -1.84,-0.15 -3.32,-0.43 -0.23,-0.45 -0.34,-0.85 -0.34,-1.14 0,-0.42 0.28,-1.44 0.82,-2.98 1.22,-3.6 4.23,-11.22 8.97,-22.8l1.94 -4.49 10.62 -28.2zm-1363.66 65.59c0.76,-0.65 1.37,-1.07 1.91,-1.22 1.26,-0.38 3.43,-0.69 6.52,-0.88 7.25,-0.46 11.75,-1.14 13.46,-2.02 1.03,-1.49 1.57,-3.59 1.57,-6.26l-0.12 -7.81 0.12 -28.38 -0.23 -13.38 0.11 -28.03 -0.57 -31.81c-0.08,-7.59 -0.53,-11.86 -1.45,-12.85 -1.33,-1.41 -5.3,-2.21 -11.94,-2.44 -2.82,-0.08 -5.3,-0.31 -7.47,-0.69 -0.95,-0.5 -1.45,-1.18 -1.45,-2.02 0,-0.57 0.19,-1.3 0.57,-2.1 0.65,-0.38 1.26,-0.57 1.79,-0.57 1.03,0 2.29,0.04 3.78,0.11 4.39,0.46 8.92,0.69 13.65,0.69l8.24 -0.23 19.68 0.46c9.84,0 17.5,-0.15 22.99,-0.46 5.53,-0.3 9.27,-0.46 11.18,-0.46 1.71,0 5.99,0.27 12.74,0.8l15.86 -0.11 1.91 0.34 9.27 -0.34 1.1 0.57c0.38,0.57 0.65,1.22 0.8,1.87 0,1.07 -0.15,2.67 -0.49,4.81 -0.35,2.17 -0.5,3.5 -0.5,4.04 0,7.7 0.23,14.26 0.76,19.64 -0.07,0.42 -0.3,0.72 -0.65,0.88 -0.8,0 -1.56,-0.12 -2.21,-0.35 -0.8,-1.41 -1.9,-3.89 -3.28,-7.47 -1.37,-3.55 -3.47,-7.71 -6.21,-12.4 -1.87,-3.09 -3.32,-4.95 -4.35,-5.56 -1.03,-0.58 -3.2,-0.88 -6.48,-0.88 -0.65,0 -4.05,-0.08 -10.15,-0.23 -1.64,-0.08 -3.24,-0.11 -4.8,-0.11l-31.81 0.68 -2.82 0c-4.08,0 -6.52,0.5 -7.36,1.53 -1.26,1.79 -1.91,7.01 -1.91,15.71 0,0.88 0.19,9.76 0.57,26.7l0 15.44c0.8,0.23 1.72,0.34 2.67,0.34l1.87 0c1.26,0 3.09,0.04 5.53,0.12 3.85,0.15 6.45,0.23 7.78,0.23 0.88,0 1.64,-0.04 2.33,-0.12 7.97,-0.3 18.23,-0.45 30.77,-0.45 3.93,-0.65 6.22,-1.45 6.87,-2.33 1.1,-1.34 1.94,-4.84 2.52,-10.49 0.57,-5.68 1.83,-8.88 3.77,-9.61 0.99,0 1.87,0.19 2.71,0.57 0.15,0.58 0.23,1.15 0.23,1.64 0,0.54 -0.08,1.41 -0.23,2.6 -0.15,2.74 -0.23,11.36 -0.23,25.89 0,3.85 0.19,8.16 0.57,12.93 0.38,4.77 0.57,7.32 0.57,7.7 0,0.65 -0.11,1.57 -0.34,2.67 -0.57,0.31 -1.07,0.46 -1.45,0.46l-0.76 0c-1.18,-2.1 -2.37,-5.34 -3.47,-9.72 -1.91,-7.48 -3.97,-12.21 -6.07,-14.08 -2.13,-1.9 -5.56,-2.86 -10.29,-2.86 -1.03,0 -2.94,0.08 -5.68,0.19 -2.75,0.12 -6.83,0.16 -12.25,0.16l-7.24 0c-10.34,0 -17.09,0.22 -20.29,0.68l-0.12 3.66 0.12 20.56 -0.12 12.97 0.12 12.62c0.08,7.59 0.57,11.97 1.45,13.19 1.26,1.64 4.04,2.44 8.27,2.44l6.83 -0.11c0.57,0 2.9,0.08 6.98,0.19 4.04,0.12 9.04,0.15 15.03,0.15 14.37,0 23.94,-0.61 28.71,-1.83 4.77,-1.26 8.7,-3.43 11.79,-6.56 3.09,-3.12 6.98,-9.84 11.67,-20.21 1.41,-3.05 2.78,-4.58 4.19,-4.58 0.65,0 1.41,0.31 2.21,0.92 -2.09,7.36 -3.31,12.24 -3.62,14.53 -0.8,5.26 -1.26,10.6 -1.41,16.06 0,2.44 -0.61,4.5 -1.79,6.14l-2.48 0 -31.43 0.34 -14.11 -0.23 -33.6 0.42 -13.65 0c-1.71,0 -3.32,0.04 -4.8,0.11 -13.43,0.58 -23.31,0.84 -29.67,0.84 -1.11,0 -1.87,-0.19 -2.29,-0.57 -0.42,-0.34 -0.61,-0.91 -0.61,-1.68l0.11 -1.1zm147.66 -135.08l-0.11 -5.27c11.52,0 19.95,-0.26 25.32,-0.84 2.06,-0.19 3.51,-0.3 4.35,-0.3 0.65,0 1.68,0.08 3.01,0.23 3.09,2.59 5.99,5.6 8.66,8.96 0.61,0.65 1.3,1.41 2.02,2.21l23.49 26.05 3.36 4.04c4.73,5.57 9.08,10.38 12.97,14.3 3.89,3.97 11.48,12.21 22.76,24.72l26.63 29.63c2.6,2.9 5.91,6.52 10,10.87l0.11 -1.79c-0.46,-10.42 -0.69,-15.91 -0.69,-16.48l0.46 -6.71 -0.23 -10.57 0 -4.8c0,-3.05 -0.23,-12.51 -0.65,-28.34 -0.07,-2.17 -0.3,-6.25 -0.76,-12.28 -0.42,-5.98 -0.65,-11.29 -0.65,-15.82 0,-8.24 -0.49,-13.01 -1.48,-14.34 -0.69,-0.99 -3.89,-1.99 -9.69,-3.02 -1.34,-0.07 -3.47,-0.3 -6.37,-0.68 -3.39,-0.15 -5.42,-0.35 -6.03,-0.54 -0.61,-0.22 -1.22,-0.87 -1.83,-1.9 0.16,-1.18 0.5,-2.29 1.03,-3.32 2.02,-0.57 4.01,-0.88 5.95,-0.88 2.14,0 4.73,0.27 7.86,0.8 3.13,0.54 5.95,0.8 8.43,0.8 3.43,0 8.81,-0.19 16.13,-0.53 4.12,-0.27 6.98,-0.38 8.58,-0.38l1.91 0 -0.23 3.43c-1.18,0.53 -2.86,0.84 -4.96,0.95 -2.06,0.12 -4.04,0.42 -5.84,0.96 -2.66,0.8 -4.3,1.52 -4.8,2.1 -1.79,1.94 -2.71,3.92 -2.71,5.94l1.26 35.32 0.92 16.21 -0.12 4.69 0.69 22.46c0.46,15.33 0.68,28.68 0.68,40.01 0,2.47 -0.15,7.78 -0.45,15.98l-5.88 0.45c-2.59,-2.97 -11.55,-12.39 -26.81,-28.22 -3.59,-3.66 -5.99,-6.21 -7.25,-7.7l-9.57 -11.1c-3.7,-4.12 -6.11,-6.71 -7.25,-7.86 -1.11,-1.1 -1.91,-1.94 -2.44,-2.44 -8.09,-9.26 -18.57,-20.82 -31.46,-34.74 -3.51,-3.7 -8.62,-9.53 -15.37,-17.47 -4.24,-4.99 -6.91,-8.04 -8.01,-9.15 -1.11,-1.14 -2.63,-2.4 -4.58,-3.81l-0.3 3.81c0,14.53 0.34,34.59 1.06,60.18l0.81 37.07c0.03,3.13 0.22,6.14 0.53,9.04l3.93 0.91c7.05,0.65 13.99,1.68 20.86,3.02 0.53,0.45 0.95,0.76 1.33,0.99l-0.11 4.19c-1.18,0.35 -2.14,0.54 -2.9,0.54 -0.8,0 -1.79,-0.08 -2.97,-0.19 -7.33,-0.5 -16.25,-0.73 -26.78,-0.73 -7.4,0 -13.92,0.19 -19.56,0.57l-1.53 0.12c-0.68,0 -1.64,-0.08 -2.89,-0.23l-0.12 -3.28 2.9 -1.3 5.26 -0.8c4.69,-0.65 8.09,-1.41 10.26,-2.21 1.41,-0.53 2.56,-1.33 3.47,-2.36 0.8,-5.19 1.22,-12.74 1.22,-22.7 0,-4.61 -0.11,-13.11 -0.34,-25.47l0 -15.26 -0.23 -31.84c-0.15,-14.22 -0.61,-22.61 -1.45,-25.17 -0.46,-1.33 -1.37,-2.52 -2.78,-3.58 -2.86,-2.03 -6.56,-3.28 -11.14,-3.82 -4.58,-0.49 -7.55,-0.95 -8.89,-1.33zm177.54 10.68l4.62 -16.86c0.3,-2.25 0.68,-3.7 1.22,-4.31 0.53,-0.65 1.1,-0.95 1.79,-0.95 1.33,0 2.82,1.6 4.54,4.8 1.25,2.33 2.32,3.81 3.12,4.46 0.8,0.61 2.02,1.03 3.59,1.26l1.1 -0.11 4.81 0.45 26.35 0.35 31.12 -0.12 9.15 0 17.32 -0.3c0.76,0 1.68,0.04 2.78,0.19 5.07,0.46 8.2,0.69 9.38,0.69 1.11,0 2.03,-0.39 2.67,-1.11 0.23,-0.31 1.45,-2.75 3.7,-7.4 0.99,-2.1 2.18,-3.16 3.59,-3.16 0.61,0 1.37,0.15 2.25,0.45 0.38,1.45 0.57,2.79 0.57,3.97l-0.11 4.46 0.11 9.42c0,2.29 -0.19,9.69 -0.57,22.16 0,0.84 -0.15,1.56 -0.46,2.25 -0.8,0.49 -1.53,0.76 -2.1,0.76 -0.61,0 -1.14,-0.27 -1.6,-0.84 -0.46,-0.53 -0.99,-2.25 -1.68,-5.11 -1.48,-6.63 -3.35,-11.4 -5.57,-14.26 -1.48,-1.83 -3.62,-3.17 -6.4,-3.97 -2.79,-0.8 -9.46,-1.22 -19.99,-1.22 -8.46,0 -14.72,0 -18.84,0 -0.11,2.98 -0.19,5.68 -0.19,8.16l0.88 69.3c0,2.74 -0.15,7.97 -0.46,15.63l0.12 14.84 -0.12 8.28c0,2.59 0.46,4.46 1.34,5.56 0.91,1.11 3.35,2.21 7.28,3.24 6.87,1.72 11.44,2.75 13.77,3.13 1.41,0.15 2.59,0.5 3.47,0.96l0 3.62 -15.9 -0.42c-8.74,-0.04 -15.3,-0.23 -19.68,-0.5l-16.36 0.73 -11.94 0.65c-3.39,0 -5.41,-0.08 -6.18,-0.23l-1.56 -0.65c0.15,-1.68 0.5,-2.75 0.99,-3.24 0.53,-0.46 1.91,-0.84 4.16,-1.15 3.13,-0.45 6.82,-1.26 11.1,-2.4 4.27,-1.14 7.05,-2.33 8.39,-3.51 0.76,-0.68 1.29,-1.79 1.6,-3.35 0.65,-3.28 0.99,-9.73 0.99,-19.38l0 -18.99 -0.46 -41.49 -0.46 -8.93 -0.11 -29.86c-4.69,0 -10.68,0 -18,0 -10.72,0 -17.24,0.65 -19.57,1.95 -3.66,2.02 -9.07,7.93 -16.32,17.73 -2.4,3.66 -4.5,5.49 -6.33,5.49l-0.99 -0.23c-0.31,-0.45 -0.46,-0.84 -0.46,-1.22 0,-0.91 0.61,-3.58 1.79,-8.04 1.53,-5.72 2.45,-9.61 2.75,-11.63zm142.94 122.95c10.87,-1.26 17.01,-2.18 18.42,-2.67 0.99,-0.38 1.87,-1.49 2.71,-3.36l0 -1.22c0,-1.87 0.3,-8.58 0.87,-20.21 0.16,-3.28 0.23,-6.45 0.23,-9.57l-0.34 -13.31 0.23 -15.07 -0.12 -27.99 0.12 -20.06c0.07,-8.5 -0.57,-13.65 -1.95,-15.52 -1.37,-1.87 -4.92,-3.2 -10.68,-3.97 -5.72,-0.8 -8.88,-1.37 -9.49,-1.71 -0.57,-0.38 -0.88,-0.99 -0.88,-1.8 0,-0.53 0.12,-1.22 0.34,-2.02 0.73,-0.68 2.45,-1.06 5.15,-1.1 0.35,0 1.38,-0.12 3.05,-0.31 1.68,-0.19 3.28,-0.26 4.77,-0.26l9.15 0 29.45 -0.35c16.59,0 28.25,1.22 34.93,3.7 6.67,2.44 11.97,6.6 15.94,12.43 3.93,5.84 5.91,12.36 5.91,19.57 0,13.69 -7.17,24.14 -21.47,31.35 -2.44,1.29 -4.35,2.4 -5.76,3.35 2.52,5.34 6.03,11.75 10.53,19.22l14.11 24.26c5.64,8.92 9.53,14.49 11.71,16.74 2.13,2.29 4.76,4.16 7.81,5.64 3.09,1.49 8.28,2.9 15.56,4.24 0.08,0.72 0.12,1.33 0.12,1.75 0,0.46 -0.04,1.03 -0.12,1.68 -10.18,0.15 -22.12,0.23 -35.81,0.23 -0.95,0 -2.28,-0.08 -4,-0.23 -5.26,-10.11 -11.48,-21.2 -18.65,-33.29l-16.51 -30.06c-2.21,-3.12 -4.08,-5.07 -5.53,-5.83 -1.45,-0.8 -3.4,-1.18 -5.8,-1.18l-9.53 0.11 -3.13 -0.11c-0.23,2.4 -0.34,7.24 -0.34,14.64l0 38.18c-0.08,1.41 0.22,3.39 0.87,5.95 0.61,1.41 1.6,2.51 3.05,3.39 1.41,0.84 5.53,2.14 12.4,3.85l4.5 1.11c0.61,0.72 0.88,1.68 0.88,2.93 -1.99,0.35 -3.4,0.54 -4.2,0.54 -6.67,0 -11.4,-0.04 -14.15,-0.15 -1.41,-0.04 -2.55,-0.08 -3.43,-0.08l-15.14 0.23 -14.8 -0.12c-0.65,0 -4,0.12 -10.1,0.35l-2.22 -0.46 -0.22 -1.11c0,-0.64 0.53,-1.45 1.56,-2.32zm41.22 -73.11c2.03,0.08 3.55,0.11 4.54,0.11 5.42,0 11.67,-0.64 18.73,-1.9 4.99,-0.96 9.04,-2.52 12.13,-4.73 3.08,-2.18 5.64,-5.42 7.74,-9.73 2.06,-4.31 3.09,-8.73 3.09,-13.34 0,-5.04 -1.61,-10.38 -4.85,-16.02 -2.51,-4.31 -6.71,-7.9 -12.62,-10.79 -5.91,-2.9 -13,-4.35 -21.28,-4.35 -2.06,0 -4.69,0.11 -7.93,0.34 -0.31,3.85 -0.42,6.83 -0.42,8.89l0.53 20.82 -0.11 8.54c0,5.8 0.15,13.2 0.45,22.16zm94.28 72.88c1.03,-0.61 1.94,-0.92 2.78,-0.92l2.56 0c0.53,0 1.41,-0.03 2.7,-0.11 5.72,-0.53 9.12,-1.03 10.15,-1.56 2.59,-1.42 4.84,-3.86 6.71,-7.36 3.85,-7.59 8.2,-18.39 13,-32.31 2.33,-6.59 3.78,-10.64 4.35,-12.05 1.87,-4.46 3.66,-9.15 5.34,-14.07l10.49 -29.37c1.64,-4.61 5.57,-15.17 11.78,-31.73 1.57,-4.15 3.47,-9.76 5.68,-16.74l3.51 -0.23 3.89 0.12c3.21,6.33 6.07,13.19 8.51,20.52 1.33,3.89 3.54,9.68 6.6,17.35l16.97 46.11 9.07 24.97c4.77,14.19 7.9,22.93 9.38,26.17 1.49,3.28 2.86,5.41 4.12,6.44 0.38,0.31 1.76,0.76 4.2,1.37 2.4,0.58 4.12,1.03 5.07,1.34 3.43,0.95 5.8,1.72 7.14,2.36 0.31,0.8 0.46,1.42 0.46,1.87 0,0.35 -0.12,0.88 -0.34,1.6 -2.38,0.08 -4.06,0.12 -5.05,0.12 -3.77,0 -10.49,-0.08 -20.06,-0.23l-11.17 -0.19 -13.5 0.11c-0.92,0 -1.83,0 -2.75,-0.07 -0.95,-0.04 -1.75,-0.08 -2.4,-0.08l-2.44 0c-0.84,-0.08 -1.56,-0.3 -2.25,-0.69 0,-1.06 0.19,-2.09 0.53,-3.08 0.88,-0.46 1.72,-0.73 2.44,-0.81l11.52 -0.8c2.98,-0.15 5.26,-0.53 6.83,-1.22 0.45,-1.37 0.68,-2.36 0.68,-3.05 0,-1.33 -0.99,-4.84 -2.93,-10.48 -1.34,-3.74 -2.48,-7.33 -3.51,-10.72 -0.99,-3.36 -4.96,-14.49 -11.86,-33.33 -3.05,-0.54 -5.72,-0.8 -8.05,-0.8l-23.8 0.23 -7.01 -0.12c-2.52,0 -5.3,0.19 -8.36,0.57 -0.99,2.25 -1.6,3.85 -1.9,4.81l-9.77 30.89c-4.15,11.78 -6.25,18.23 -6.25,19.45 0,0.68 0.34,1.79 0.99,3.35 1.57,0.46 3.66,0.88 6.26,1.26l15.21 1.34c0.8,0.68 1.22,1.29 1.22,1.83 0,0.38 -0.11,0.95 -0.34,1.71 -3.36,0.08 -5.91,0.12 -7.7,0.12 -5.95,0 -12.89,-0.31 -20.79,-0.92 -3.66,-0.15 -6.25,-0.23 -7.82,-0.23 -1.56,0 -4.27,0.08 -8.16,0.23 -2.51,0.16 -4.34,0.23 -5.45,0.23 -1.79,0 -4.12,-0.11 -6.94,-0.34l0 -0.69c0,-0.53 0.15,-1.26 0.46,-2.17zm53.2 -67.01c7.93,0.42 17.01,0.65 27.15,0.65 5.8,0 10.87,-0.19 15.25,-0.53 -0.72,-2.9 -1.6,-5.57 -2.55,-8.05 -4.84,-12.78 -7.51,-19.83 -8.05,-21.17l-10.14 -25.43 -1.11 -1.99c-0.46,0.88 -2.1,4.66 -4.92,11.33 -4.73,11.48 -8.12,20.4 -10.18,26.77 -0.99,2.86 -1.98,5.72 -3.01,8.55 -1.03,2.82 -1.68,4.8 -1.95,5.94 -0.26,1.15 -0.65,2.29 -1.18,3.48l0.69 0.45zm105.65 68.53c2.74,-1.18 5.95,-1.94 9.61,-2.32 5.3,-0.57 9.23,-1.87 11.86,-3.78 2.02,-4.12 3.01,-14.57 3.01,-31.35l0 -17.65 0.23 -10.64 -0.23 -7.82 0.23 -14.46 -0.34 -36.34c0,-4.12 -0.62,-6.79 -1.8,-8.08 -1.71,-1.87 -6.29,-3.59 -13.69,-5.15 -3.05,-0.65 -4.92,-1.26 -5.6,-1.8 -0.65,-0.57 -1.07,-1.6 -1.22,-3.12 1.71,-0.35 2.89,-0.54 3.58,-0.54l7.93 0 4.16 -0.11c2.75,0 5.8,0.3 9.15,0.91 6.87,0.46 13.92,0.69 21.17,0.69 2.06,0 5.07,-0.11 8.92,-0.3 10.3,-0.58 17.7,-0.84 22.16,-0.84 9.04,0 17.54,0.87 25.55,2.67 8.01,1.79 16.29,5.07 24.79,9.91 5.3,3.05 10.72,7.86 16.28,14.42 5.53,6.56 9.77,13.73 12.63,21.51 2.86,7.74 4.31,16.47 4.31,26.2 0,8.69 -1.6,17.31 -4.77,25.85 -3.17,8.55 -7.55,15.94 -13.23,22.2 -5.69,6.29 -11.41,11.02 -17.24,14.15 -5.8,3.16 -14.68,5.91 -26.58,8.2 -4.92,0.87 -13.77,1.33 -26.51,1.33 -8.43,0 -15.29,-0.23 -20.59,-0.65 -2.06,-0.26 -4.31,-0.38 -6.71,-0.38 -0.35,0 -0.77,0.04 -1.22,0.12l-45.62 0.91 -0.22 -0.88c-0.16,-0.38 -0.23,-0.76 -0.23,-1.22l0.23 -1.64zm56.9 -4.65c5.64,1.95 11.36,2.9 17.2,2.9 7.51,0 14.91,-1.18 22.11,-3.51 7.25,-2.36 13.62,-5.64 19.19,-9.95 5.53,-4.27 10.1,-9.08 13.69,-14.49 3.55,-5.38 6.1,-10.22 7.59,-14.57 2.1,-6.29 3.12,-14.53 3.12,-24.64 0,-9.69 -2.05,-19.49 -6.14,-29.48 -2.82,-6.9 -7.81,-13.5 -14.91,-19.83 -7.13,-6.33 -15.52,-10.94 -25.2,-13.88 -9.69,-2.94 -20.18,-4.42 -31.43,-4.42 -7.74,0 -13.46,0.83 -17.2,2.55 -0.46,0.46 -0.88,0.99 -1.33,1.56 -0.46,1.87 -0.69,3.59 -0.69,5.15 0,0.96 0.04,2.1 0.11,3.43 0.23,8.66 0.35,15.56 0.35,20.79l-0.12 25.32c0,37.19 0.69,57.89 2.06,62.09 1.38,4.19 5.27,7.85 11.6,10.98zm104.23 3.13c1.03,-0.61 1.94,-0.92 2.78,-0.92l2.56 0c0.53,0 1.41,-0.03 2.7,-0.11 5.72,-0.53 9.12,-1.03 10.15,-1.56 2.59,-1.42 4.84,-3.86 6.71,-7.36 3.85,-7.59 8.2,-18.39 13,-32.31 2.33,-6.59 3.78,-10.64 4.35,-12.05 1.87,-4.46 3.66,-9.15 5.34,-14.07l10.49 -29.37c1.64,-4.61 5.57,-15.17 11.78,-31.73 1.57,-4.15 3.47,-9.76 5.68,-16.74l3.51 -0.23 3.89 0.12c3.21,6.33 6.07,13.19 8.51,20.52 1.33,3.89 3.54,9.68 6.6,17.35l16.97 46.11 9.07 24.97c4.77,14.19 7.9,22.93 9.38,26.17 1.49,3.28 2.86,5.41 4.12,6.44 0.38,0.31 1.76,0.76 4.2,1.37 2.4,0.58 4.12,1.03 5.07,1.34 3.43,0.95 5.8,1.72 7.13,2.36 0.31,0.8 0.46,1.42 0.46,1.87 0,0.35 -0.12,0.88 -0.34,1.6 -2.37,0.08 -4.05,0.12 -5.04,0.12 -3.77,0 -10.49,-0.08 -20.06,-0.23l-11.17 -0.19 -13.5 0.11c-0.92,0 -1.83,0 -2.75,-0.07 -0.95,-0.04 -1.75,-0.08 -2.4,-0.08l-2.44 0c-0.84,-0.08 -1.56,-0.3 -2.25,-0.69 0,-1.06 0.19,-2.09 0.53,-3.08 0.88,-0.46 1.72,-0.73 2.44,-0.81l11.52 -0.8c2.98,-0.15 5.26,-0.53 6.83,-1.22 0.45,-1.37 0.68,-2.36 0.68,-3.05 0,-1.33 -0.99,-4.84 -2.93,-10.48 -1.34,-3.74 -2.48,-7.33 -3.51,-10.72 -0.99,-3.36 -4.96,-14.49 -11.86,-33.33 -3.05,-0.54 -5.72,-0.8 -8.05,-0.8l-23.8 0.23 -7.01 -0.12c-2.52,0 -5.3,0.19 -8.36,0.57 -0.99,2.25 -1.6,3.85 -1.9,4.81l-9.77 30.89c-4.15,11.78 -6.25,18.23 -6.25,19.45 0,0.68 0.34,1.79 0.99,3.35 1.57,0.46 3.66,0.88 6.26,1.26l15.21 1.34c0.8,0.68 1.22,1.29 1.22,1.83 0,0.38 -0.11,0.95 -0.34,1.71 -3.36,0.08 -5.91,0.12 -7.7,0.12 -5.95,0 -12.89,-0.31 -20.79,-0.92 -3.66,-0.15 -6.25,-0.23 -7.82,-0.23 -1.56,0 -4.27,0.08 -8.16,0.23 -2.51,0.16 -4.34,0.23 -5.45,0.23 -1.79,0 -4.12,-0.11 -6.94,-0.34l0 -0.69c0,-0.53 0.15,-1.26 0.46,-2.17zm53.2 -67.01c7.93,0.42 17.01,0.65 27.15,0.65 5.8,0 10.87,-0.19 15.25,-0.53 -0.72,-2.9 -1.6,-5.57 -2.55,-8.05 -4.84,-12.78 -7.51,-19.83 -8.05,-21.17l-10.14 -25.43 -1.11 -1.99c-0.46,0.88 -2.1,4.66 -4.92,11.33 -4.73,11.48 -8.12,20.4 -10.18,26.77 -0.99,2.86 -1.98,5.72 -3.01,8.55 -1.03,2.82 -1.68,4.8 -1.95,5.94 -0.26,1.15 -0.65,2.29 -1.18,3.48l0.69 0.45zm191.67 -67.27c0.61,4.96 0.88,7.82 0.88,8.54l-0.42 9.99c-0.15,4.28 -0.34,7.02 -0.57,8.2 -0.65,0.31 -1.22,0.46 -1.64,0.46l-0.99 -0.23c-2.37,-10.52 -6.41,-18.19 -12.09,-22.99 -5.69,-4.81 -12.59,-7.21 -20.75,-7.21 -8.47,0 -15.41,2.4 -20.82,7.17 -5.42,4.8 -8.13,10.37 -8.13,16.74 0,4.88 1.91,9.31 5.69,13.35 3.77,4.04 13.46,10.14 29.06,18.27 11.86,6.25 20.36,11.32 25.51,15.21 5.11,3.93 8.96,8.43 11.59,13.58 2.6,5.15 3.89,10.87 3.89,17.2 0,7.97 -2.06,15.44 -6.17,22.46 -4.16,6.98 -9.73,12.24 -16.71,15.79 -6.98,3.55 -16.24,5.3 -27.8,5.3 -10.03,0 -19.68,-1.6 -28.91,-4.81 -5.41,-1.94 -8.73,-3.5 -9.91,-4.72 -1.18,-1.19 -1.79,-2.44 -1.79,-3.82 0,-0.8 0.07,-1.83 0.22,-3.13 1,-8.77 1.53,-16.01 1.61,-21.66 0.15,-3.51 0.42,-5.56 0.76,-6.14 0.3,-0.53 0.84,-0.8 1.64,-0.8 0.65,0 1.18,0.23 1.6,0.73 0.38,0.49 0.65,1.41 0.8,2.74 0.84,9.16 5.07,17.36 12.74,24.6 7.63,7.21 16.24,10.83 25.86,10.83 5.91,0 11.32,-1.22 16.28,-3.7 4.96,-2.44 8.85,-6.02 11.63,-10.68 2.79,-4.65 4.2,-9.19 4.2,-13.61 0,-6.03 -2.1,-11.56 -6.33,-16.55 -4.24,-5 -12.74,-10.83 -25.52,-17.51 -12.77,-6.67 -21.09,-11.55 -24.94,-14.6 -6.29,-5 -10.98,-10.3 -14.11,-15.91 -2.33,-4.34 -3.47,-9.38 -3.47,-15.1 0,-10.37 4.08,-19.18 12.24,-26.39 8.2,-7.21 19.15,-10.79 32.88,-10.79 7.58,0 14.14,0.88 19.64,2.59 4,1.34 8.12,3.55 12.35,6.6zm-1639.49 11.44l4.62 -16.86c0.3,-2.25 0.68,-3.7 1.22,-4.31 0.53,-0.65 1.1,-0.95 1.79,-0.95 1.33,0 2.82,1.6 4.54,4.8 1.25,2.33 2.32,3.81 3.12,4.46 0.8,0.61 2.02,1.03 3.59,1.26l1.1 -0.11 4.81 0.45 26.35 0.35 31.12 -0.12 9.15 0 17.32 -0.3c0.76,0 1.68,0.04 2.78,0.19 5.07,0.46 8.2,0.69 9.38,0.69 1.11,0 2.03,-0.39 2.67,-1.11 0.23,-0.31 1.45,-2.75 3.7,-7.4 0.99,-2.1 2.18,-3.16 3.59,-3.16 0.61,0 1.37,0.15 2.25,0.45 0.38,1.45 0.57,2.79 0.57,3.97l-0.11 4.46 0.11 9.42c0,2.29 -0.19,9.69 -0.57,22.16 0,0.84 -0.15,1.56 -0.46,2.25 -0.8,0.49 -1.53,0.76 -2.1,0.76 -0.61,0 -1.14,-0.27 -1.6,-0.84 -0.46,-0.53 -0.99,-2.25 -1.68,-5.11 -1.48,-6.63 -3.35,-11.4 -5.57,-14.26 -1.48,-1.83 -3.62,-3.17 -6.4,-3.97 -2.79,-0.8 -9.46,-1.22 -19.99,-1.22 -8.46,0 -14.72,0 -18.84,0 -0.11,2.98 -0.19,5.68 -0.19,8.16l0.88 69.3c0,2.74 -0.15,7.97 -0.46,15.63l0.12 14.84 -0.12 8.28c0,2.59 0.46,4.46 1.34,5.56 0.91,1.11 3.35,2.21 7.28,3.24 6.87,1.72 11.44,2.75 13.77,3.13 1.41,0.15 2.59,0.5 3.47,0.96l0 3.62 -15.9 -0.42c-8.74,-0.04 -15.3,-0.23 -19.68,-0.5l-16.36 0.73 -11.94 0.65c-3.39,0 -5.41,-0.08 -6.18,-0.23l-1.56 -0.65c0.15,-1.68 0.5,-2.75 0.99,-3.24 0.53,-0.46 1.91,-0.84 4.16,-1.15 3.13,-0.45 6.82,-1.26 11.1,-2.4 4.27,-1.14 7.05,-2.33 8.39,-3.51 0.76,-0.68 1.29,-1.79 1.6,-3.35 0.65,-3.28 0.99,-9.73 0.99,-19.38l0 -18.99 -0.46 -41.49 -0.46 -8.93 -0.11 -29.86c-4.69,0 -10.68,0 -18,0 -10.72,0 -17.24,0.65 -19.57,1.95 -3.66,2.02 -9.07,7.93 -16.32,17.73 -2.4,3.66 -4.5,5.49 -6.33,5.49l-0.99 -0.23c-0.31,-0.45 -0.46,-0.84 -0.46,-1.22 0,-0.91 0.61,-3.58 1.79,-8.04 1.53,-5.72 2.45,-9.61 2.75,-11.63zm201.67 -16.98c0.38,1.26 0.57,2.22 0.57,2.86 0,0.46 -0.11,1.11 -0.34,1.99 -1.91,0.49 -3.47,0.76 -4.69,0.76 -0.5,0 -1.38,-0.04 -2.6,-0.15 -1.22,-0.12 -2.21,-0.19 -2.97,-0.19 -3.39,0 -6.14,0.68 -8.12,2.02 -1.34,0.8 -2.18,1.91 -2.48,3.24l-1.11 12.74 0.34 55.3c0.08,20.28 0.77,32.87 2.03,37.83 1.25,4.96 3.39,9.04 6.36,12.24 2.98,3.2 7.48,5.83 13.47,7.93 5.98,2.1 11.82,3.13 17.5,3.13 12.66,0 22.35,-1.83 29.1,-5.49 6.75,-3.63 11.59,-8.7 14.54,-15.14 2.94,-6.45 4.42,-16.21 4.42,-29.33 0,-0.38 -0.11,-3.36 -0.34,-8.96l0 -3.24c0,-1.19 0.08,-3.51 0.23,-6.98 0.15,-3.47 0.23,-5.49 0.23,-6.1l-1.68 -32.08c-0.53,-10.79 -1.14,-17.16 -1.87,-19.1 -0.68,-1.95 -1.72,-3.4 -3.1,-4.35 -2.9,-2.1 -8.43,-3.97 -16.59,-5.61 -0.38,-1.03 -0.61,-2.1 -0.68,-3.2 2.93,-0.31 5.79,-0.46 8.65,-0.46 2.98,0 6.14,0.12 9.42,0.34 4.93,0.39 7.64,0.58 8.1,0.58l17.73 -0.92 3.47 0.12 -0.11 4.46c-9.19,1.18 -14.68,2.59 -16.52,4.19 -1.79,1.6 -2.66,4.54 -2.66,8.89 0,2.29 0.15,7.32 0.45,15.06l0.77 23.15 -0.12 9.15 0.34 11.64c0,14.56 -0.42,24.52 -1.22,29.82 -1.18,7.36 -2.89,13.23 -5.11,17.54 -2.17,4.31 -5.38,8.2 -9.54,11.67 -4.2,3.47 -9.76,6.33 -16.7,8.54 -6.98,2.25 -13.85,3.36 -20.64,3.36 -10.64,0 -18.34,-0.76 -23.03,-2.25 -8.58,-2.59 -15.37,-5.99 -20.44,-10.14 -5.07,-4.16 -8.58,-8.36 -10.53,-12.51 -2.59,-5.53 -3.89,-13.54 -3.89,-24.14l0 -7.71 -0.34 -31.27 0.34 -25.25 0 -16.97c0,-4.31 -0.61,-7.32 -1.79,-9.04 -0.8,-1.18 -2.02,-1.79 -3.55,-1.79l-6.59 0.12c-4.89,0 -8.01,-0.54 -9.35,-1.57 -0.23,-0.68 -0.34,-1.29 -0.34,-1.79 0,-0.69 0.23,-1.22 0.69,-1.56 0.8,-0.61 1.79,-0.92 2.97,-0.92l2.94 0 7.43 -0.11 17.62 0 29.33 -0.35zm185.81 5.42c0.61,4.96 0.88,7.82 0.88,8.54l-0.42 9.99c-0.15,4.28 -0.34,7.02 -0.57,8.2 -0.65,0.31 -1.22,0.46 -1.64,0.46l-0.99 -0.23c-2.37,-10.52 -6.41,-18.19 -12.09,-22.99 -5.69,-4.81 -12.59,-7.21 -20.75,-7.21 -8.47,0 -15.41,2.4 -20.82,7.17 -5.42,4.8 -8.13,10.37 -8.13,16.74 0,4.88 1.91,9.31 5.69,13.35 3.77,4.04 13.46,10.14 29.06,18.27 11.86,6.25 20.36,11.32 25.51,15.21 5.11,3.93 8.96,8.43 11.59,13.58 2.6,5.15 3.89,10.87 3.89,17.2 0,7.97 -2.06,15.44 -6.17,22.46 -4.16,6.98 -9.73,12.24 -16.71,15.79 -6.98,3.55 -16.24,5.3 -27.8,5.3 -10.03,0 -19.68,-1.6 -28.91,-4.81 -5.41,-1.94 -8.73,-3.5 -9.91,-4.72 -1.18,-1.19 -1.79,-2.44 -1.79,-3.82 0,-0.8 0.07,-1.83 0.22,-3.13 1,-8.77 1.53,-16.01 1.61,-21.66 0.15,-3.51 0.42,-5.56 0.76,-6.14 0.3,-0.53 0.84,-0.8 1.64,-0.8 0.65,0 1.18,0.23 1.6,0.73 0.38,0.49 0.65,1.41 0.8,2.74 0.84,9.16 5.07,17.36 12.74,24.6 7.63,7.21 16.24,10.83 25.86,10.83 5.91,0 11.32,-1.22 16.28,-3.7 4.96,-2.44 8.85,-6.02 11.63,-10.68 2.79,-4.65 4.2,-9.19 4.2,-13.61 0,-6.03 -2.1,-11.56 -6.33,-16.55 -4.24,-5 -12.74,-10.83 -25.52,-17.51 -12.77,-6.67 -21.09,-11.55 -24.94,-14.6 -6.29,-5 -10.98,-10.3 -14.11,-15.91 -2.33,-4.34 -3.47,-9.38 -3.47,-15.1 0,-10.37 4.08,-19.18 12.24,-26.39 8.2,-7.21 19.15,-10.79 32.88,-10.79 7.58,0 14.14,0.88 19.64,2.59 4,1.34 8.12,3.55 12.35,6.6zm-1258.04 2.6c0.87,5.69 1.33,11.56 1.33,17.55 0,1.18 -0.04,2.78 -0.11,4.76 -1.03,0.23 -1.83,0.35 -2.33,0.35 -0.46,0 -1.11,-0.08 -1.91,-0.23 -3.12,-8.66 -8.23,-15.33 -15.33,-19.98 -7.05,-4.7 -15.82,-7.02 -26.27,-7.02 -5.5,0 -10.15,0.65 -13.96,1.9 -6.71,2.29 -12.59,5.5 -17.66,9.54 -5.07,4.04 -9.34,8.88 -12.85,14.49 -3.51,5.61 -6.29,12.43 -8.31,20.44 -2.06,7.97 -3.09,16.13 -3.09,24.49 0,15.9 2.44,29.06 7.28,39.43 4.84,10.37 11.48,17.77 19.87,22.19 8.43,4.43 16.93,6.64 25.51,6.64l5.23 -0.11c5.98,-0.73 10.03,-1.45 12.2,-2.14 5.45,-1.52 9.92,-3.39 13.46,-5.49 3.55,-2.14 7.02,-5.11 10.41,-9 3.4,-3.85 6.26,-8.35 8.66,-13.46l1.37 -0.46c0.39,0 0.96,0.23 1.72,0.69 -0.08,1.75 -0.15,2.89 -0.23,3.43 -3.16,12.58 -5.45,21.16 -6.9,25.78 -1.18,0.26 -2.67,0.72 -4.46,1.33 -8.74,2.98 -20.37,4.46 -34.97,4.46 -11.79,0 -20.6,-0.8 -26.43,-2.4 -5.84,-1.6 -12.21,-4.08 -19.11,-7.47 -6.9,-3.36 -12.93,-7.86 -18.15,-13.43 -5.23,-5.56 -9.42,-12.62 -12.63,-21.12 -3.2,-8.51 -4.8,-17.78 -4.8,-27.84 0,-9.5 1.26,-17.81 3.81,-24.91 2.52,-7.09 6.45,-14.3 11.71,-21.58 5.3,-7.29 11.52,-13.35 18.73,-18.16 7.17,-4.84 15.17,-8.27 23.95,-10.25 6.17,-1.34 14.95,-2.03 26.27,-2.03 8.28,0 16.06,1.07 23.34,3.25 7.29,2.17 12.17,4.31 14.65,6.36zm23.61 65.22c0,-7.59 0.91,-14.34 2.74,-20.29 1.83,-5.91 4.88,-12.36 9.23,-19.3 4.31,-6.9 9.53,-12.7 15.64,-17.35 6.1,-4.65 14.56,-8.77 25.4,-12.36 7.58,-2.48 17.2,-3.7 28.83,-3.7 7.82,0 15.48,1.03 22.99,3.13 7.49,2.1 14.28,5 20.42,8.74 6.1,3.69 12.2,9.45 18.3,17.19 4.27,5.38 7.48,11.14 9.65,17.32 2.82,8.16 4.23,16.51 4.23,25.17 0,9.84 -0.95,18 -2.86,24.48 -1.9,6.49 -5.07,12.89 -9.53,19.22 -3.51,4.92 -9.53,10.61 -18,17.01 -5.68,4.31 -12.74,7.82 -21.18,10.45 -8.39,2.63 -17.5,3.97 -27.26,3.97 -9.92,0 -18.77,-1.15 -26.51,-3.47 -7.74,-2.29 -14.22,-5.11 -19.37,-8.43 -5.19,-3.32 -10.53,-8.24 -16.02,-14.72 -5.45,-6.48 -9.61,-13.62 -12.47,-21.47 -2.82,-7.82 -4.23,-16.36 -4.23,-25.59zm77.6 69.56c6.26,0 12.74,-0.88 19.49,-2.63 6.75,-1.76 12.74,-4.65 17.97,-8.74 5.19,-4.04 9.27,-8.65 12.25,-13.84 2.93,-5.19 5.3,-11.82 7.09,-19.98 1.79,-8.13 2.67,-16.25 2.67,-24.37 0,-10.15 -1.49,-20.18 -4.46,-30.09 -2.33,-7.51 -6.1,-14.23 -11.29,-20.18 -5.23,-5.91 -11.53,-10.48 -18.93,-13.73 -7.36,-3.24 -15.21,-4.88 -23.57,-4.88 -6.78,0 -13.42,1.11 -19.9,3.36 -6.49,2.25 -11.83,5.07 -15.98,8.54 -4.16,3.47 -8.05,8.39 -11.63,14.76 -3.59,6.37 -6.3,13.42 -8.17,21.09 -1.86,7.67 -2.78,14.45 -2.78,20.37 0,6.17 0.92,13.19 2.78,21.01 1.87,7.82 4.43,14.61 7.67,20.36 3.24,5.72 7.25,10.83 11.98,15.26 4.72,4.42 10.03,7.82 15.9,10.18 5.91,2.33 12.2,3.51 18.91,3.51zm92.26 -0.69c2.33,-1.52 6.48,-2.63 12.51,-3.28 4.73,-0.23 7.51,-0.65 8.39,-1.26 0.61,-0.45 1.07,-0.99 1.37,-1.67 1.11,-2.79 1.91,-10.3 2.44,-22.54 0.65,-15.87 1.76,-36.99 3.21,-63.39 1.18,-20.09 1.79,-32.64 1.79,-37.64l0 -2.89c-5.34,-1.03 -13.81,-2.1 -25.4,-3.25 -0.72,-1.1 -1.1,-1.98 -1.1,-2.59 0,-0.34 0.26,-1.03 0.8,-1.98 1.25,-0.46 2.21,-0.69 2.89,-0.69 0.58,0 1.91,0.12 3.89,0.34 3.67,0.39 8.7,0.58 15.11,0.58 2.09,0 5.68,-0.19 10.75,-0.54 3.55,-0.26 5.57,-0.38 6.03,-0.38 1.18,0 2.55,0.23 4.12,0.69 0.68,0.76 1.18,1.48 1.48,2.17l4.77 10.45 31.46 70.02 13.31 29.14c10.34,-20.45 18.38,-38.6 24.1,-54.5 0.39,-1.18 0.84,-2.25 1.34,-3.24 0.69,-1.26 1.3,-2.67 1.91,-4.24 0.61,-1.56 3.01,-7.47 7.24,-17.81 1.72,-4.15 3.09,-7.74 4.12,-10.71 4.27,-11.86 6.75,-18.69 7.48,-20.37 1.44,-0.61 2.67,-0.91 3.7,-0.91 1.18,0 2.74,0.07 4.57,0.23 4.2,0.3 10.98,0.45 20.37,0.45 5.79,0 10.56,-0.07 14.3,-0.22 0.15,0.8 0.23,1.41 0.23,1.79 0,0.49 -0.12,1.22 -0.35,2.1 -2.36,1.25 -5.22,1.98 -8.58,2.09 -6.6,0.38 -10.79,0.92 -12.58,1.57 -1.76,0.68 -2.9,1.52 -3.4,2.59 -0.45,1.03 -0.91,4.42 -1.26,10.22l0.08 5.15 -0.08 5.34c0,11.13 0.27,29.86 0.88,56.13l-0.11 21.86 0.11 14.03c0,5.49 0.27,8.73 0.76,9.73 0.54,1.03 2.03,1.98 4.47,2.86 4,1.33 10.56,2.7 19.6,4.12 0.53,0.38 0.8,0.87 0.8,1.48 0,0.69 -0.04,1.45 -0.11,2.29l-5.15 0c-4.43,0 -9.19,-0.15 -14.34,-0.42 -5.15,-0.27 -7.9,-0.38 -8.28,-0.38 -15.29,0 -25.4,0.19 -30.39,0.53 -3.09,0.27 -5.04,0.39 -5.84,0.39 -0.53,0 -1.07,-0.16 -1.68,-0.46l0 -1.49c0,-0.69 0.12,-1.41 0.35,-2.17 2.44,-1.03 5.83,-1.76 10.07,-2.14 4.72,-1.26 8.16,-2.59 10.33,-4 0.65,-2.83 0.99,-8.58 0.99,-17.28l-0.15 -22.54c0,-2.48 0.08,-7.05 0.3,-13.73 0.2,-6.71 0.31,-17.62 0.31,-32.72 0,-11.97 -0.23,-21.05 -0.69,-27.19 -1.26,2.59 -3.77,8.28 -7.55,16.97l-1.68 4.27 -0.22 0.69 -16.67 39.13 -5.95 15.1 -7.78 18.34c-3.36,8.43 -6.25,15.91 -8.66,22.39 -1.06,2.97 -1.9,5.34 -2.59,7.05l-2.25 -0.22c-8.43,-24.6 -18.5,-49.81 -30.2,-75.67 -11.67,-25.85 -19.87,-42.9 -24.6,-51.18 -0.57,3.21 -1.26,12.51 -2.02,27.92 -1,18.8 -1.49,39.47 -1.49,62.05 0,6.98 0.53,14.83 1.56,23.57 0.31,2.51 1.38,4.34 3.24,5.56 1.87,1.22 6.72,1.91 14.5,2.06 2.97,0 5.83,0.19 8.5,0.65 0.53,1.18 0.8,2.02 0.8,2.59 0,0.39 -0.19,1.03 -0.57,1.99l-34.78 -0.92c-2.52,0 -6.48,0.15 -11.86,0.5 -2.98,0.23 -7.25,0.34 -12.85,0.42l-0.12 -2.98zm194.15 -140.38c1.34,-0.23 2.18,-0.34 2.56,-0.34 2.52,0 6.67,0.23 12.51,0.72 3.05,0.12 5.11,0.19 6.21,0.19 1.64,0 5.11,-0.15 10.42,-0.45l18.95 -1.15c5,-0.46 10.79,-0.68 17.43,-0.68 11.67,0 20.97,1.67 27.88,4.99 6.94,3.32 12.28,8.51 16.01,15.56 3.78,7.09 5.65,14.11 5.65,21.13 0,11.67 -4.08,21.78 -12.28,30.24 -8.2,8.51 -19.22,12.74 -33.07,12.74 -3.89,0 -7.13,-0.38 -9.72,-1.18 -2.63,-0.77 -5.61,-2.29 -8.96,-4.54 -1.41,-0.95 -2.25,-1.95 -2.56,-3.01 0.31,-0.5 0.73,-0.88 1.22,-1.11 1.07,0 2.14,0.23 3.24,0.69 2.52,0.91 5.72,1.37 9.61,1.37 5.88,0 11.44,-1.45 16.71,-4.35 5.22,-2.93 9.19,-7.05 11.9,-12.43 2.67,-5.38 4,-11.02 4,-17.01 0,-5.8 -1.41,-11.48 -4.23,-16.93 -2.83,-5.49 -6.52,-9.88 -11.14,-13.16 -2.59,-1.87 -6.56,-3.43 -11.94,-4.69 -5.37,-1.26 -9.53,-1.91 -12.5,-1.91 -9.2,0 -14.65,0.69 -16.37,2.02l-0.11 1.57 0.34 12.62 -0.11 2.25c-0.15,2.02 -0.23,5.11 -0.23,9.27 0,15.21 0.23,24.67 0.65,28.41l0 6.25 1.41 51.15c0,0.72 -0.08,2.09 -0.27,4.11 -0.19,2.03 -0.3,3.78 -0.3,5.27 0,3.58 0.3,6.29 0.91,8.16 1.76,0.53 6.98,1.75 15.56,3.7 4.01,0.95 6.18,1.49 6.56,1.64 0.61,0.23 1.11,0.72 1.57,1.45 -0.31,1.1 -0.69,1.79 -1.19,2.13 -0.45,0.35 -1.41,0.5 -2.82,0.5 -0.88,0 -2.97,-0.19 -6.25,-0.57 -6.37,-0.69 -11.41,-1.03 -15.03,-1.03l-19.6 1.03 -11.71 -0.42c-0.72,0 -2.9,0.11 -6.44,0.3l-0.12 -2.97 14.46 -2.79c2.36,-0.68 3.81,-1.37 4.34,-2.02 0.73,-1.07 1.11,-3.09 1.11,-6.18 0,-0.64 0.04,-2.13 0.11,-4.34 0.08,-1.57 0.12,-3.74 0.12,-6.53 0,-8.8 -0.35,-27.57 -0.99,-56.32 -0.27,-13.43 -0.39,-27.08 -0.39,-40.96l0 -1.91c0,-5.38 -0.83,-8.77 -2.47,-10.18 -2.75,-2.48 -9.69,-4.5 -20.75,-6.06 -0.38,-0.84 -0.57,-1.53 -0.57,-2.06 0,-0.61 0.23,-1.34 0.68,-2.18zm130.05 139.47c10.87,-1.26 17.01,-2.18 18.42,-2.67 0.99,-0.38 1.87,-1.49 2.71,-3.36l0 -1.22c0,-1.87 0.3,-8.58 0.87,-20.21 0.16,-3.28 0.23,-6.45 0.23,-9.57l-0.34 -13.31 0.23 -15.07 -0.12 -27.99 0.12 -20.06c0.07,-8.5 -0.57,-13.65 -1.95,-15.52 -1.37,-1.87 -4.92,-3.2 -10.68,-3.97 -5.72,-0.8 -8.88,-1.37 -9.49,-1.71 -0.57,-0.38 -0.88,-0.99 -0.88,-1.8 0,-0.53 0.12,-1.22 0.34,-2.02 0.73,-0.68 2.45,-1.06 5.15,-1.1 0.35,0 1.38,-0.12 3.05,-0.31 1.68,-0.19 3.28,-0.26 4.77,-0.26l9.15 0 29.45 -0.35c16.59,0 28.25,1.22 34.93,3.7 6.67,2.44 11.97,6.6 15.94,12.43 3.93,5.84 5.91,12.36 5.91,19.57 0,13.69 -7.17,24.14 -21.47,31.35 -2.44,1.29 -4.35,2.4 -5.76,3.35 2.52,5.34 6.03,11.75 10.53,19.22l14.11 24.26c5.64,8.92 9.54,14.49 11.72,16.74 2.13,2.29 4.76,4.16 7.81,5.64 3.09,1.49 8.28,2.9 15.56,4.24 0.08,0.72 0.12,1.33 0.12,1.75 0,0.46 -0.04,1.03 -0.12,1.68 -10.18,0.15 -22.12,0.23 -35.82,0.23 -0.95,0 -2.28,-0.08 -4,-0.23 -5.26,-10.11 -11.48,-21.2 -18.65,-33.29l-16.51 -30.06c-2.21,-3.12 -4.08,-5.07 -5.53,-5.83 -1.45,-0.8 -3.4,-1.18 -5.8,-1.18l-9.53 0.11 -3.13 -0.11c-0.23,2.4 -0.34,7.24 -0.34,14.64l0 38.18c-0.08,1.41 0.22,3.39 0.87,5.95 0.61,1.41 1.6,2.51 3.05,3.39 1.41,0.84 5.53,2.14 12.4,3.85l4.5 1.11c0.61,0.72 0.88,1.68 0.88,2.93 -1.99,0.35 -3.4,0.54 -4.2,0.54 -6.67,0 -11.4,-0.04 -14.15,-0.15 -1.41,-0.04 -2.55,-0.08 -3.43,-0.08l-15.14 0.23 -14.8 -0.12c-0.65,0 -4,0.12 -10.1,0.35l-2.22 -0.46 -0.22 -1.11c0,-0.64 0.53,-1.45 1.56,-2.32zm41.22 -73.11c2.03,0.08 3.55,0.11 4.54,0.11 5.42,0 11.67,-0.64 18.73,-1.9 4.99,-0.96 9.04,-2.52 12.13,-4.73 3.08,-2.18 5.64,-5.42 7.74,-9.73 2.06,-4.31 3.09,-8.73 3.09,-13.34 0,-5.04 -1.61,-10.38 -4.85,-16.02 -2.51,-4.31 -6.71,-7.9 -12.62,-10.79 -5.91,-2.9 -13,-4.35 -21.28,-4.35 -2.06,0 -4.69,0.11 -7.93,0.34 -0.31,3.85 -0.42,6.83 -0.42,8.89l0.53 20.82 -0.11 8.54c0,5.8 0.15,13.2 0.45,22.16zm94.29 72.88c1.03,-0.61 1.94,-0.92 2.78,-0.92l2.56 0c0.53,0 1.41,-0.03 2.7,-0.11 5.72,-0.53 9.12,-1.03 10.15,-1.56 2.59,-1.42 4.84,-3.86 6.71,-7.36 3.85,-7.59 8.2,-18.39 13,-32.31 2.33,-6.59 3.78,-10.64 4.35,-12.05 1.87,-4.46 3.66,-9.15 5.34,-14.07l10.49 -29.37c1.64,-4.61 5.57,-15.17 11.78,-31.73 1.57,-4.15 3.47,-9.76 5.68,-16.74l3.51 -0.23 3.89 0.12c3.21,6.33 6.07,13.19 8.51,20.52 1.33,3.89 3.54,9.68 6.6,17.35l16.97 46.11 9.07 24.97c4.77,14.19 7.9,22.93 9.38,26.17 1.49,3.28 2.86,5.41 4.12,6.44 0.38,0.31 1.76,0.76 4.2,1.37 2.4,0.58 4.12,1.03 5.07,1.34 3.43,0.95 5.8,1.72 7.13,2.36 0.31,0.8 0.46,1.42 0.46,1.87 0,0.35 -0.12,0.88 -0.34,1.6 -2.37,0.08 -4.05,0.12 -5.04,0.12 -3.77,0 -10.49,-0.08 -20.06,-0.23l-11.17 -0.19 -13.5 0.11c-0.92,0 -1.83,0 -2.75,-0.07 -0.95,-0.04 -1.75,-0.08 -2.4,-0.08l-2.44 0c-0.84,-0.08 -1.56,-0.3 -2.25,-0.69 0,-1.06 0.19,-2.09 0.53,-3.08 0.88,-0.46 1.72,-0.73 2.44,-0.81l11.52 -0.8c2.98,-0.15 5.26,-0.53 6.83,-1.22 0.45,-1.37 0.68,-2.36 0.68,-3.05 0,-1.33 -0.99,-4.84 -2.93,-10.48 -1.34,-3.74 -2.48,-7.33 -3.51,-10.72 -0.99,-3.36 -4.96,-14.49 -11.86,-33.33 -3.05,-0.54 -5.72,-0.8 -8.05,-0.8l-23.8 0.23 -7.01 -0.12c-2.52,0 -5.3,0.19 -8.36,0.57 -0.99,2.25 -1.6,3.85 -1.9,4.81l-9.77 30.89c-4.15,11.78 -6.25,18.23 -6.25,19.45 0,0.68 0.34,1.79 0.99,3.35 1.57,0.46 3.66,0.88 6.26,1.26l15.21 1.34c0.8,0.68 1.22,1.29 1.22,1.83 0,0.38 -0.11,0.95 -0.34,1.71 -3.36,0.08 -5.91,0.12 -7.7,0.12 -5.95,0 -12.89,-0.31 -20.79,-0.92 -3.66,-0.15 -6.25,-0.23 -7.82,-0.23 -1.56,0 -4.27,0.08 -8.16,0.23 -2.51,0.16 -4.34,0.23 -5.45,0.23 -1.79,0 -4.12,-0.11 -6.94,-0.34l0 -0.69c0,-0.53 0.15,-1.26 0.46,-2.17zm53.2 -67.01c7.93,0.42 17.01,0.65 27.15,0.65 5.8,0 10.87,-0.19 15.25,-0.53 -0.72,-2.9 -1.6,-5.57 -2.55,-8.05 -4.84,-12.78 -7.51,-19.83 -8.05,-21.17l-10.14 -25.43 -1.11 -1.99c-0.46,0.88 -2.1,4.66 -4.92,11.33 -4.73,11.48 -8.12,20.4 -10.18,26.77 -0.99,2.86 -1.98,5.72 -3.01,8.55 -1.03,2.82 -1.68,4.8 -1.95,5.94 -0.26,1.15 -0.65,2.29 -1.18,3.48l0.69 0.45zm3987 -38.18l0 70.56c0,3.88 3.18,7.05 7.06,7.05l127 0c3.88,0 7.06,-3.17 7.06,-7.05l0 -70.56c0,-3.88 -3.18,-7.05 -7.06,-7.05l-127 0c-3.88,0 -7.06,3.17 -7.06,7.05zm-14.11 -7.05c0,-7.81 6.31,-14.11 14.11,-14.11l141.12 0c7.8,0 14.11,6.3 14.11,14.11l0 84.66c0,7.81 -6.31,14.11 -14.11,14.11l-141.12 0c-7.8,0 -14.11,-6.3 -14.11,-14.11l0 -84.66z"/>
 </g>
</svg>
